<?xml version="1.0" encoding="UTF-8" standalone="no"?>
<svg
   xmlns:dc="http://purl.org/dc/elements/1.1/"
   xmlns:cc="http://creativecommons.org/ns#"
   xmlns:rdf="http://www.w3.org/1999/02/22-rdf-syntax-ns#"
   xmlns:svg="http://www.w3.org/2000/svg"
   xmlns="http://www.w3.org/2000/svg"
   xmlns:sodipodi="http://sodipodi.sourceforge.net/DTD/sodipodi-0.dtd"
   xmlns:inkscape="http://www.inkscape.org/namespaces/inkscape"
   width="16"
   height="13"
   viewBox="0 0 16 13"
   fill="none"
   id="svg2"
   version="1.1"
   inkscape:version="0.91 r13725"
   sodipodi:docname="aroma.svg">
  <path
     style="color:#000000;font-style:normal;font-variant:normal;font-weight:normal;font-stretch:normal;font-size:medium;line-height:normal;font-family:sans-serif;text-indent:0;text-align:start;text-decoration:none;text-decoration-line:none;text-decoration-style:solid;text-decoration-color:#000000;letter-spacing:normal;word-spacing:normal;text-transform:none;direction:ltr;block-progression:tb;writing-mode:lr-tb;baseline-shift:baseline;text-anchor:start;white-space:normal;clip-rule:nonzero;display:inline;overflow:visible;visibility:visible;opacity:1;isolation:auto;mix-blend-mode:normal;color-interpolation:sRGB;color-interpolation-filters:linearRGB;solid-color:#000000;solid-opacity:1;fill:#ef4943;fill-opacity:1;fill-rule:nonzero;stroke:none;stroke-width:0.93413198;stroke-linecap:round;stroke-linejoin:round;stroke-miterlimit:4;stroke-dasharray:none;stroke-dashoffset:0;stroke-opacity:1;color-rendering:auto;image-rendering:auto;shape-rendering:auto;text-rendering:auto;enable-background:accumulate"
     d="M 1.8758111,0.4002789 A 0.4671127,0.4671127 0 0 0 1.5554985,0.5409039 C 0.67227003,1.4241325 0.43781034,2.5069105 0.55549857,3.5487165 0.6731868,4.5905223 1.0959466,5.6239814 1.4949517,6.6307477 1.8939567,7.637514 2.2689254,8.6183938 2.3523735,9.4862165 2.4358219,10.354039 2.2738179,11.082357 1.5554985,11.80067 a 0.46749189,0.46749189 0 0 0 0.6601563,0.662109 C 3.1244405,11.554002 3.3838212,10.454632 3.2820611,9.3963727 3.1803007,8.3381135 2.764096,7.2943308 2.3640923,6.2850446 1.9640886,5.2757584 1.5798406,4.3003967 1.4832329,3.4452008 1.3866252,2.5900049 1.5299534,1.8867616 2.2156548,1.2010602 A 0.4671127,0.4671127 0 0 0 1.8758111,0.4002789 Z m 6.0644531,0 a 0.4671127,0.4671127 0 0 0 -0.3203125,0.140625 c -0.8832285,0.8832285 -1.1176874,1.9660066 -1,3.0078126 C 6.737639,4.5905223 7.1604004,5.6239813 7.5594048,6.6307477 7.9584092,7.6375141 8.333378,8.6183934 8.4168267,9.4862165 8.5002757,10.35404 8.3382687,11.082357 7.6199517,11.80067 a 0.46749185,0.46749185 0 1 0 0.6601562,0.662109 C 9.1888911,11.554002 9.4482749,10.454632 9.3465142,9.3963727 9.2447535,8.3381138 8.8265954,7.2943307 8.4265923,6.2850446 8.0265892,5.2757585 7.644293,4.3003967 7.5476861,3.4452008 7.451079,2.5900049 7.5944064,1.8867617 8.2801079,1.2010602 A 0.4671127,0.4671127 0 0 0 7.9402642,0.4002789 Z m 6.1054688,0 a 0.4671127,0.4671127 0 0 0 -0.322266,0.140625 c -0.883239,0.8832276 -1.117685,1.9660055 -1,3.0078126 0.117685,1.041807 0.542399,2.0752645 0.941406,3.0820312 0.399007,1.0067667 0.773971,1.9876458 0.857422,2.8554688 0.08345,0.8678235 -0.08051,1.5961415 -0.798828,2.3144535 a 0.46818176,0.46818176 0 1 0 0.662109,0.662109 C 15.29436,11.554001 15.553747,10.454632 15.451983,9.3963727 15.350218,8.3381137 14.932066,7.2943304 14.532061,6.2850446 14.132055,5.2757588 13.749759,4.3003956 13.653155,3.4452008 13.556548,2.590006 13.699865,1.8867627 14.385576,1.2010602 A 0.4671127,0.4671127 0 0 0 14.045733,0.4002789 Z"
     id="path4" />
</svg>