<?xml version="1.0" encoding="UTF-8" standalone="no"?>
<svg xmlns:svg="http://www.w3.org/2000/svg" xmlns="http://www.w3.org/2000/svg" width="26" height="22" viewBox="0 0 26 22" version="1.1">
  <path d="M 2,0 C 0.892,0 0,0.892 0,2 0,3.108 0.892,4 2,4 L 24,4 C 25.108,4 26,3.108 26,2 26,0.892 25.108,0 24,0 L 2,0 Z m 0,9 c -1.108,0 -2,0.892 -2,2 0,1.108 0.892,2 2,2 l 22,0 c 1.108,0 2,-0.892 2,-2 C 26,9.892 25.108,9 24,9 L 2,9 Z m 0,9 c -1.108,0 -2,0.892 -2,2 0,1.108 0.892,2 2,2 l 22,0 c 1.108,0 2,-0.892 2,-2 0,-1.108 -0.892,-2 -2,-2 L 2,18 Z" />
</svg>