<?xml version="1.0" encoding="UTF-8" standalone="no"?>
<svg xmlns:svg="http://www.w3.org/2000/svg" xmlns="http://www.w3.org/2000/svg" width="26" height="22" viewBox="0 0 26 22" version="1.1">
  <path d="M 6.2167969 0.5 C 3.0644717 0.5 0.5 3.0655447 0.5 6.2167969 C 0.5 7.9323412 1.2636917 9.4700734 2.4648438 10.519531 L 0.8203125 13.806641 A 0.50005 0.50005 0 0 0 0.8203125 13.808594 C 0.61107295 14.229532 0.5 14.692855 0.5 15.164062 C 0.5 16.833562 1.8647898 18.195312 3.5332031 18.195312 L 3.6816406 18.195312 C 3.9284981 19.957468 5.4335487 21.326172 7.2617188 21.326172 C 9.0898887 21.326172 10.593266 19.95747 10.839844 18.195312 L 15.160156 18.195312 C 15.407021 19.957468 16.912111 21.326172 18.740234 21.326172 C 20.571081 21.326172 22.075119 19.953357 22.318359 18.1875 C 22.881796 18.168475 23.397349 17.849313 23.650391 17.341797 L 24.666016 15.310547 L 24.664062 15.310547 C 25.21321 14.212239 25.5 13.000156 25.5 11.771484 C 25.5 10.749097 25.046107 9.7774774 24.259766 9.1230469 L 19.878906 5.4726562 C 19.259261 4.9566089 18.479701 4.6738281 17.673828 4.6738281 L 11.716797 4.6738281 C 11.040396 2.2705464 8.8335956 0.5 6.2167969 0.5 z M 6.2167969 1.5 C 8.8286917 1.5 10.935547 3.6059337 10.935547 6.2167969 C 10.935547 8.827671 8.8286882 10.935547 6.2167969 10.935547 C 3.6049056 10.935547 1.5 8.8276756 1.5 6.2167969 C 1.5 3.6059291 3.6049021 1.5 6.2167969 1.5 z M 8.8164062 4.1484375 A 0.50005 0.50005 0 0 0 8.4726562 4.2988281 L 5.1738281 7.5976562 L 3.9628906 6.3867188 A 0.50005 0.50005 0 1 0 3.2558594 7.09375 L 4.8203125 8.6582031 A 0.50005 0.50005 0 0 0 5.5273438 8.6582031 L 9.1796875 5.0058594 A 0.50005 0.50005 0 0 0 8.8164062 4.1484375 z M 11.908203 5.6738281 L 17.673828 5.6738281 C 18.245356 5.6738281 18.799879 5.8754549 19.240234 6.2421875 L 23.621094 9.890625 A 0.50005 0.50005 0 0 0 23.621094 9.8925781 C 24.178752 10.356691 24.5 11.045072 24.5 11.771484 C 24.5 12.844813 24.251184 13.903789 23.771484 14.863281 L 22.755859 16.894531 C 22.671698 17.06333 22.502744 17.163884 22.316406 17.181641 C 22.063951 15.426006 20.563739 14.064453 18.740234 14.064453 C 16.912111 14.064453 15.407021 15.433105 15.160156 17.195312 L 10.839844 17.195312 C 10.593266 15.433104 9.0898887 14.064453 7.2617188 14.064453 C 5.4335487 14.064453 3.9284981 15.433105 3.6816406 17.195312 L 3.5332031 17.195312 C 2.4050765 17.195312 1.5 16.293163 1.5 15.164062 C 1.5 14.849113 1.574045 14.53785 1.7148438 14.253906 L 1.7148438 14.251953 L 3.2832031 11.115234 C 4.1422635 11.632336 5.1433576 11.935547 6.2167969 11.935547 C 9.3691256 11.935547 11.935547 9.3680628 11.935547 6.2167969 C 11.935547 6.0336744 11.925147 5.8526063 11.908203 5.6738281 z M 17.683594 6.7617188 A 0.50005 0.50005 0 0 0 17.210938 7.1386719 L 16.167969 11.3125 A 0.50005 0.50005 0 0 0 16.652344 11.935547 L 22.914062 11.935547 A 0.50005 0.50005 0 0 0 23.226562 11.044922 L 18.007812 6.8710938 A 0.50005 0.50005 0 0 0 17.683594 6.7617188 z M 17.992188 8.1386719 L 21.490234 10.935547 L 17.292969 10.935547 L 17.992188 8.1386719 z M 7.2617188 15.064453 C 8.7038832 15.064453 9.8603074 16.210898 9.8867188 17.646484 A 0.50005 0.50005 0 0 0 9.8867188 17.742188 C 9.8613395 19.178593 8.7045471 20.326172 7.2617188 20.326172 C 5.8195542 20.326172 4.6612207 19.17962 4.6347656 17.744141 A 0.50005 0.50005 0 0 0 4.6347656 17.648438 C 4.6601869 16.211921 5.8188903 15.064453 7.2617188 15.064453 z M 18.740234 15.064453 C 20.199175 15.064453 21.369141 16.236373 21.369141 17.695312 C 21.369141 19.154138 20.199175 20.326172 18.740234 20.326172 C 17.298139 20.326172 16.139738 19.17962 16.113281 17.744141 A 0.50005 0.50005 0 0 0 16.113281 17.648438 C 16.138704 16.211921 17.297475 15.064453 18.740234 15.064453 z " />
</svg>