<?xml version="1.0" encoding="UTF-8" standalone="no"?>
<svg xmlns:svg="http://www.w3.org/2000/svg" xmlns="http://www.w3.org/2000/svg" width="26" height="22" viewBox="0 0 26 22" version="1.1">
  <path d="m 9.1796875,0.5 c -0.14031,0 -0.2744206,0.0585924 -0.3691406,0.16210938 l -1.7597657,1.92578122 -3.9628906,0 C 1.6587006,2.5878906 0.5,3.7446481 0.5,5.1738281 l 0,13.5644529 c 0,1.4292 1.1587006,2.587891 2.5878906,2.587891 l 19.8242184,0 c 1.4292,0 2.587891,-1.158691 2.587891,-2.587891 l 0,-13.5644529 c 0,-1.42918 -1.158691,-2.5859375 -2.587891,-2.5859375 l -3.96289,0 -1.759766,-1.92578122 C 17.094653,0.55859238 16.960613,0.5 16.820312,0.5 l -7.6406245,0 z m 0.2207031,1 7.1992184,0 1.761719,1.9238281 c 0.0947,0.10352 0.228841,0.1640625 0.369141,0.1640625 l 4.18164,0 c 0.8769,0 1.587891,0.7090375 1.587891,1.5859375 l 0,13.5644529 c 0,0.8769 -0.710991,1.587891 -1.587891,1.587891 l -19.8242184,0 C 2.2109906,20.326172 1.5,19.615181 1.5,18.738281 l 0,-13.5644529 c 0,-0.8769 0.7109906,-1.5859375 1.5878906,-1.5859375 l 4.1816406,0 c 0.14031,0 0.2744307,-0.060542 0.3691407,-0.1640625 L 9.4003906,1.5 Z M 13,5.7167969 c -3.43997,0 -6.2382813,2.8002843 -6.2382812,6.2402341 0,3.44 2.7983112,6.238282 6.2382812,6.238281 3.44,0 6.238281,-2.798281 6.238281,-6.238281 C 19.238281,8.5170813 16.44,5.7167969 13,5.7167969 Z m 0,1 c 2.8877,0 5.238281,2.3525743 5.238281,5.2402341 0,2.8877 -2.350581,5.238281 -5.238281,5.238281 -2.8877,0 -5.2382813,-2.350581 -5.2382812,-5.238281 C 7.7617188,9.0693712 10.1123,6.7167969 13,6.7167969 Z" />
</svg>