<?xml version="1.0" encoding="UTF-8" standalone="no"?>
<svg xmlns:svg="http://www.w3.org/2000/svg" xmlns="http://www.w3.org/2000/svg" width="19" height="26" viewBox="0 0 19 26" version="1.1">
  <path d="M 7.2539062,0.4921875 A 0.50005,0.50005 0 0 0 6.859375,0.6953125 L 0.68945312,6.8652344 A 0.50005,0.50005 0 0 0 0.5,7.34375 l 0,17.576172 a 0.50005,0.50005 0 0 0 0.11328125,0.404297 0.50005,0.50005 0 0 0 0.015625,0.01953 0.50005,0.50005 0 0 0 0.0175781,0.01758 0.50005,0.50005 0 0 0 0.003906,0.002 0.50005,0.50005 0 0 0 0.0332031,0.03125 0.50005,0.50005 0 0 0 0.003906,0.002 A 0.50005,0.50005 0 0 0 1.0820312,25.5 l 16.6132808,0 a 0.50005,0.50005 0 0 0 0.5,-0.5 l 0,-23.9199219 a 0.50005,0.50005 0 0 0 -0.05664,-0.32031248 0.50005,0.50005 0 0 0 -0.002,-0.005859 0.50005,0.50005 0 0 0 -0.02344,-0.0371094 0.50005,0.50005 0 0 0 -0.03125,-0.0410156 0.50005,0.50005 0 0 0 -0.002,-0.003906 0.50005,0.50005 0 0 0 -0.03125,-0.0332031 0.50005,0.50005 0 0 0 -0.0039,-0.001953 0.50005,0.50005 0 0 0 -0.0332,-0.03125 0.50005,0.50005 0 0 0 -0.0039,-0.001953 A 0.50005,0.50005 0 0 0 17.6875,0.4921875 0.50005,0.50005 0 0 0 17.613281,0.5 L 7.3535156,0.5 A 0.50005,0.50005 0 0 0 7.2539062,0.4921875 Z M 7.7617188,1.5 l 9.4335932,0 0,23 -15.695312,0 0,-16.7382812 5.7617188,0 a 0.50005,0.50005 0 0 0 0.5,-0.5 l 0,-5.7617188 z m -1,0.7070312 0,4.5546876 -4.5546876,0 4.5546876,-4.5546876 z m 5.9765622,0.3789063 c -1.566891,0 -2.847656,1.2827186 -2.847656,2.8496094 0,1.5668908 1.280765,2.8476562 2.847656,2.8476562 1.566891,0 2.847656,-1.2807654 2.847657,-2.8476562 0,-1.5668908 -1.280766,-2.8496094 -2.847657,-2.8496094 z m 0,1 c 1.026451,0 1.847657,0.8231587 1.847657,1.8496094 0,1.0264507 -0.821206,1.8476562 -1.847657,1.8476562 -1.02645,0 -1.847656,-0.8212055 -1.847656,-1.8476562 0,-1.0264507 0.821206,-1.8496094 1.847656,-1.8496094 z M 4.0800781,10.935547 a 0.50064427,0.50064427 0 1 0 0.050781,1 l 10.4335936,0 a 0.50005,0.50005 0 1 0 0,-1 l -10.4335936,0 a 0.50005,0.50005 0 0 0 -0.050781,0 z m 0.050781,3.128906 a 0.50005,0.50005 0 1 0 0,1 l 10.4335936,0 a 0.50005,0.50005 0 1 0 0,-1 l -10.4335936,0 z m 0,3.130859 a 0.50005,0.50005 0 1 0 0,1 l 10.4335936,0 a 0.50005,0.50005 0 1 0 0,-1 l -10.4335936,0 z m 0,3.13086 a 0.50005,0.50005 0 1 0 0,1 l 7.3046876,0 a 0.50005,0.50005 0 1 0 0,-1 l -7.3046876,0 z" />
</svg>