<?xml version="1.0" encoding="UTF-8" standalone="no"?>
<svg
   xmlns:dc="http://purl.org/dc/elements/1.1/"
   xmlns:cc="http://creativecommons.org/ns#"
   xmlns:rdf="http://www.w3.org/1999/02/22-rdf-syntax-ns#"
   xmlns:svg="http://www.w3.org/2000/svg"
   xmlns="http://www.w3.org/2000/svg"
   xmlns:sodipodi="http://sodipodi.sourceforge.net/DTD/sodipodi-0.dtd"
   xmlns:inkscape="http://www.inkscape.org/namespaces/inkscape"
   width="19"
   height="17"
   viewBox="0 0 19 17"
   fill="none"
   id="svg2"
   version="1.1"
   inkscape:version="0.91 r13725"
   sodipodi:docname="payment-invoice.svg">
  <metadata
     id="metadata20">
    <rdf:RDF>
      <cc:Work
         rdf:about="">
        <dc:format>image/svg+xml</dc:format>
        <dc:type
           rdf:resource="http://purl.org/dc/dcmitype/StillImage" />
      </cc:Work>
    </rdf:RDF>
  </metadata>
  <defs
     id="defs18" />
  <sodipodi:namedview
     pagecolor="#ffffff"
     bordercolor="#666666"
     borderopacity="1"
     objecttolerance="10"
     gridtolerance="10"
     guidetolerance="10"
     inkscape:pageopacity="0"
     inkscape:pageshadow="2"
     inkscape:window-width="1255"
     inkscape:window-height="717"
     id="namedview16"
     showgrid="false"
     inkscape:zoom="13.882353"
     inkscape:cx="9.5"
     inkscape:cy="8.5"
     inkscape:window-x="0"
     inkscape:window-y="0"
     inkscape:window-maximized="0"
     inkscape:current-layer="svg2" />
  <path
     style="color:#000000;font-style:normal;font-variant:normal;font-weight:normal;font-stretch:normal;font-size:medium;line-height:normal;font-family:sans-serif;text-indent:0;text-align:start;text-decoration:none;text-decoration-line:none;text-decoration-style:solid;text-decoration-color:#000000;letter-spacing:normal;word-spacing:normal;text-transform:none;direction:ltr;block-progression:tb;writing-mode:lr-tb;baseline-shift:baseline;text-anchor:start;white-space:normal;clip-rule:nonzero;display:inline;overflow:visible;visibility:visible;opacity:1;isolation:auto;mix-blend-mode:normal;color-interpolation:sRGB;color-interpolation-filters:linearRGB;solid-color:#000000;solid-opacity:1;fill:#000000;fill-opacity:1;fill-rule:nonzero;stroke:none;stroke-width:1;stroke-linecap:round;stroke-linejoin:round;stroke-miterlimit:4;stroke-dasharray:none;stroke-dashoffset:0;stroke-opacity:1;color-rendering:auto;image-rendering:auto;shape-rendering:auto;text-rendering:auto;enable-background:accumulate"
     d="M 2 0 C 0.90064862 0 0 0.90064862 0 2 L 0 15 C 0 16.099351 0.90064862 17 2 17 L 17 17 C 18.099351 17 19 16.099351 19 15 L 19 2 C 19 0.90064862 18.099351 0 17 0 L 2 0 z M 2 1 L 17 1 C 17.562649 1 18 1.4373514 18 2 L 18 15 C 18 15.562649 17.562649 16 17 16 L 2 16 C 1.4373514 16 1 15.562649 1 15 L 1 2 C 1 1.4373514 1.4373514 1 2 1 z M 3.25 4 A 0.50005 0.50005 0 1 0 3.25 5 L 10 5 A 0.50005 0.50005 0 1 0 10 4 L 3.25 4 z M 12.900391 4 A 0.50005 0.50005 0 1 0 12.900391 5 L 15.699219 5 A 0.50005 0.50005 0 1 0 15.699219 4 L 12.900391 4 z M 3.25 8 A 0.50005 0.50005 0 1 0 3.25 9 L 10 9 A 0.50005 0.50005 0 1 0 10 8 L 3.25 8 z M 12.900391 8 A 0.50005 0.50005 0 1 0 12.900391 9 L 15.699219 9 A 0.50005 0.50005 0 1 0 15.699219 8 L 12.900391 8 z M 11 12 A 0.50005 0.50005 0 1 0 11 13 L 15.75 13 A 0.50005 0.50005 0 1 0 15.75 12 L 11 12 z "
     id="rect4" />
</svg>
