<svg width="28" height="18" viewBox="0 0 28 18" fill="none" xmlns="http://www.w3.org/2000/svg">
<path d="M17.8634 2.40332H9.67188V15.7825H17.8634V2.40332Z" fill="#FF5F00"/>
<path d="M10.5158 9.09347C10.5148 7.80517 10.8069 6.53352 11.3699 5.37476C11.9329 4.216 12.7521 3.20048 13.7655 2.40506C12.5103 1.41863 11.003 0.805231 9.41568 0.634963C7.82839 0.464695 6.22521 0.74443 4.78938 1.4422C3.35355 2.13996 2.14299 3.22761 1.29606 4.58083C0.44913 5.93405 0 7.49825 0 9.09465C0 10.691 0.44913 12.2552 1.29606 13.6085C2.14299 14.9617 3.35355 16.0493 4.78938 16.7471C6.22521 17.4449 7.82839 17.7246 9.41568 17.5543C11.003 17.3841 12.5103 16.7707 13.7655 15.7842C12.7518 14.9886 11.9324 13.9727 11.3694 12.8135C10.8063 11.6543 10.5145 10.3822 10.5158 9.09347Z" fill="#EB001B"/>
<path d="M27.5329 9.09437C27.5328 10.6909 27.0836 12.2552 26.2365 13.6085C25.3895 14.9617 24.1787 16.0493 22.7427 16.747C21.3067 17.4447 19.7033 17.7242 18.116 17.5537C16.5286 17.3832 15.0212 16.7695 13.7661 15.7828C14.7791 14.9867 15.5981 13.9709 16.1613 12.812C16.7244 11.6532 17.017 10.3816 17.017 9.09319C17.017 7.80477 16.7244 6.53318 16.1613 5.37435C15.5981 4.21552 14.7791 3.19973 13.7661 2.4036C15.0212 1.41687 16.5286 0.803167 18.116 0.632654C19.7033 0.462141 21.3067 0.741697 22.7427 1.43936C24.1787 2.13703 25.3895 3.22466 26.2365 4.57793C27.0836 5.93119 27.5328 7.49549 27.5329 9.09201V9.09437Z" fill="#F79E1B"/>
</svg>
