<?xml version="1.0" encoding="UTF-8" standalone="no"?>
<svg xmlns:svg="http://www.w3.org/2000/svg" xmlns="http://www.w3.org/2000/svg" width="24" height="24" viewBox="0 0 24 24" version="1.1">
  <path d="M 1.3339844,0 C 0.60065438,0 0,0.60065337 0,1.3339844 0,13.853984 10.146016,24 22.666016,24 23.399316,24 24,23.399416 24,22.666016 l 0,-4.652344 c 0,-0.7333 -0.600684,-1.333984 -1.333984,-1.333984 -1.6534,-10e-7 -3.266466,-0.266466 -4.759766,-0.759766 -0.4667,-0.16 -0.999375,-0.03969 -1.359375,0.320312 l -3.212891,2.425782 c -3.7732996,-1.9333 -6.0799996,-4.2266 -7.9999996,-8 L 7.7597656,7.453125 C 8.1330956,7.079795 8.24042,6.56042 8.09375,6.09375 7.60042,4.60042 7.3339844,3.0006544 7.3339844,1.3339844 7.3339844,0.60065337 6.73333,0 6,0 L 1.3339844,0 Z" />
</svg>