<svg xmlns="http://www.w3.org/2000/svg" xmlns:xlink="http://www.w3.org/1999/xlink"><defs><clipPath id="clip0"><path fill="#fff" d="M0 0h40v40H0z"/></clipPath><clipPath id="clip0"><path fill="#fff" d="M0 0h40v40H0z"/></clipPath></defs><symbol id="account" viewBox="0 0 24 19"><path d="M22.154 0H1.846C.826 0 0 .85 0 1.9v15.2C0 18.15.826 19 1.846 19h20.308c1.02 0 1.846-.85 1.846-1.9V1.9C24 .85 23.174 0 22.154 0z" fill="#F8E1CF"/><path stroke="#303541" stroke-width="1.22" d="M4.5 4.64h15m-15 5.75H14m2.5 0h3m-15 3.75H14m2.5 0h3"/></symbol><symbol id="alert" viewBox="0 0 15 16"><path d="M7.292 15.133c3.876 0 7.075-3.2 7.075-7.069 0-3.869-3.206-7.068-7.082-7.068-3.869 0-7.061 3.2-7.061 7.068 0 3.87 3.199 7.069 7.068 7.069zm0-1.408a5.634 5.634 0 01-5.646-5.66 5.626 5.626 0 015.64-5.654 5.65 5.65 0 015.666 5.653 5.64 5.64 0 01-5.66 5.66zm-.007-4.526c.376 0 .595-.212.602-.608l.102-3.288c.014-.404-.287-.698-.71-.698-.425 0-.718.288-.705.69l.096 3.296c.014.39.232.608.615.608zm0 2.27c.444 0 .807-.321.807-.759 0-.43-.356-.752-.807-.752-.444 0-.806.321-.806.752 0 .43.369.759.806.759z" fill="#FF323D"/></symbol><symbol id="bouquet" viewBox="0 0 40 40"><g clip-path="url(#clip0)" stroke="#FCCD01" stroke-width="2" stroke-miterlimit="10" stroke-linecap="round" stroke-linejoin="round" fill="transparent"><path d="M1.6 1.6c3.6 0 7.04 1.44 7.92 2.8l.48.8-.8 3.2H5.44S4.32 4.56 1.6 1.6zm30.8 11.84c1.84-1.44 3.44-2.8 6.8-2.24-2.64 2.08-3.2 5.6-5.36 15.2-2.8 11.92-15.44 12.8-15.44 12.8m0 0c2.64-1.36 7.04-6.56 7.2-14.48M18.4 39.2c-.32-6.64-3.92-10.64-7.2-11.2m8.72 10.08s.88-10.16-2.48-14.16"/><path d="M15.44 8.16c-.4-.08-.8-.16-1.2-.16-1.36 0-2.56.56-3.44 1.12C9.92 8.56 8.64 8 7.36 8c-.96 0-1.84.32-2.56.88-2 1.52-2 4.08-1.6 5.76C1.44 16 .32 18.16 1.12 20.72c.72 2.16 2.48 3.44 4.96 3.6.72 1.84 2.24 3.76 4.8 3.76 2.56 0 4.08-1.92 4.8-3.76 1.28-.08 2.32-.4 3.2-.96"/><path d="M13.6 19.44c-.56.8-1.44 1.36-2.48 1.36-1.68 0-3.04-1.44-3.04-3.2 0-1.76 1.36-3.2 3.04-3.2.72 0 1.44.24 2 .72l.48 4.32zM25.2 5.68c0-1.52-.48-3.04-2-4.08-.8-.56-1.68-.8-2.64-.8-1.36 0-2.56.56-3.44 1.12-.8-.56-2.08-1.12-3.36-1.12-.96 0-1.84.32-2.56.88-2 1.52-2 4.08-1.6 5.76-.32.24-.56.48-.8.72"/><path d="M26.24 5.6c-1.36 0-2.56.56-3.44 1.12-.88-.56-2.16-1.12-3.44-1.12-.96 0-1.84.32-2.56.88-2 1.52-2 4.08-1.6 5.76-1.76 1.36-2.88 3.52-2.08 6.08.72 2.16 2.48 3.44 4.96 3.6.72 1.84 2.24 3.76 4.8 3.76 2.56 0 4.08-1.92 4.8-3.76 2.64-.08 4.48-1.52 5.04-3.68.64-2.56-.64-4.48-2.08-5.76.4-2.08.32-4.56-1.84-6.08-.8-.56-1.68-.8-2.56-.8z"/><path d="M23.04 12c-.806 0-1.58.337-2.15.937-.57.6-.89 1.414-.89 2.263s.32 1.663.89 2.263c.57.6 1.344.937 2.15.937.806 0 1.58-.337 2.15-.937.57-.6.89-1.414.89-2.263s-.32-1.663-.89-2.263A2.965 2.965 0 0023.04 12z"/></g></symbol><symbol id="bunch-green" viewBox="0 0 40 40"><g clip-path="url(#clip0)" stroke="#38C262" stroke-width="2" stroke-miterlimit="10" fill="transparent"><path d="M5.04 39.2s-1.36-.4-2.64-1.6C1.12 36.4.8 34.96.8 34.96l9.92-9.92 4.24 4.24-9.92 9.92z" stroke-linejoin="round"/><path d="M21.6 14.08c1.28-.4 3.12-1.28 3.44-3.04.4-2.32-2.64-4-3.36-4.32-.08-.08-.16-.08-.16-.08s.64-4.48-1.68-5.6c-2.32-1.12-5.28 2-5.28 2l-.48-.24c-1.04-.48-3.6-1.44-5.12.24-1.36 1.52-.72 3.92-.16 5.04" stroke-linecap="round"/><path d="M25.6 39.2c-6.56 0-4.88-4.64-10.64-9.92 2.08 2.16-2.08 6.64 1.36 9.92" stroke-linecap="round" stroke-linejoin="round"/><path d="M28.4 21.12c2.32-.16 3.68-3.92 3.68-3.92s4.16.32 5.2-2.16c.96-2.16-1.68-4.48-2.32-4.96-.08-.08-.16-.08-.16-.08s1.6-4-.48-5.6c-2-1.68-5.6.72-5.6.72s-.08-.16-.32-.32c-.96-.72-3.2-2.24-5.04-.96-1.12.72-1.44 1.92-1.44 3.04m.64 9.76c.96.16 1.76.16 1.76.16s.08.4.32.88M13.12 9.6c.08-1.28 1.2-2.32 2.48-2.32 1.36 0 2.48 1.12 2.48 2.48 0 .56-.16 1.12-.56 1.52" stroke-linecap="round"/><path d="M32 32.72c2.08-.72 2.64-4.64 2.64-4.64s4.08-.64 4.56-3.28c.4-2.32-2.72-4-3.44-4.32-.08-.08-.16-.08-.16-.08s.24-1.76-.24-3.36m-6.8 4.32c.32-.16.72-.24 1.12-.24 1.36 0 2.48 1.12 2.48 2.48 0 1.36-1.12 2.48-2.48 2.48-.32 0-.64-.08-.96-.16M28.4 9.2a2.48 2.48 0 100 4.959 2.48 2.48 0 000-4.959z" stroke-linecap="round"/><path d="M31.84 33.36s1.28-5.2-3.44-7.68c2.08-3.6-2.72-8.72-5.76-8.32-.24-5.28-5.76-6.88-8.32-6.08-1.84-3.76-7.68-3.12-7.68-3.12l4.08 16.88 4.24 4.24 16.88 4.08z" stroke-linejoin="round"/></g></symbol><symbol id="burger" viewBox="0 0 28 28"><path stroke="#25272E" stroke-width="1.5" stroke-linecap="round" d="M2.617 7.417h22.766M2.617 13.95h22.766M2.617 20.483h22.766"/></symbol><symbol id="car-delivery" viewBox="0 0 22 15"><path fill-rule="evenodd" clip-rule="evenodd" d="M5.716 14.5c1.705 0 3.092-1.348 3.092-3.016S7.421 8.468 5.716 8.468c-1.706 0-3.093 1.348-3.093 3.016S4.01 14.5 5.716 14.5zm0-5.1c1.192 0 2.153.935 2.153 2.083 0 1.148-.961 2.083-2.153 2.083-1.192 0-2.154-.935-2.154-2.083 0-1.148.962-2.083 2.154-2.083zm9.836 5.1c1.706 0 3.093-1.348 3.093-3.016s-1.387-3.016-3.093-3.016c-1.705 0-3.092 1.348-3.092 3.016s1.386 3.016 3.092 3.016zm0-5.1c1.192 0 2.154.935 2.154 2.083 0 1.148-.962 2.083-2.153 2.083-1.192 0-2.154-.935-2.154-2.083 0-1.148.962-2.083 2.154-2.083z" fill="currentColor"/><path d="M18.481 11.95c.173 0 .35 0 .38-.002.484-.03.917-.31 1.135-.738l.874-1.705c.477-.93.725-1.957.725-2.997 0-.875-.397-1.704-1.084-2.263L16.74 1.18A3.05 3.05 0 0014.817.5h-8.96A2.655 2.655 0 003.49 1.931L.28 8.194A2.55 2.55 0 000 9.357c0 1.434 1.188 2.593 2.65 2.593h.421c.26 0 .47-.209.47-.466a.468.468 0 00-.47-.467H2.65c-.946 0-1.71-.746-1.71-1.66 0-.257.061-.51.179-.74l3.209-6.262a1.716 1.716 0 011.531-.922h8.96c.486 0 .956.166 1.328.469l3.77 3.066c.47.382.74.946.74 1.54a5.64 5.64 0 01-.622 2.573l-.875 1.706a.428.428 0 01-.356.23h-.322a.469.469 0 00-.47.467c0 .257.211.466.47.466z" fill="currentColor"/><path d="M8.34 11.95h4.59a.468.468 0 00.469-.467.468.468 0 00-.47-.466H8.34c-.26 0-.47.209-.47.466 0 .258.21.467.47.467zm6.492-7.316l.876-3.485a.47.47 0 00-.911-.226l-.876 3.485-.465 1.864a.467.467 0 00.456.58h7.004c.26 0 .47-.21.47-.467a.468.468 0 00-.47-.467h-6.404l.32-1.284zM6.7 2.412H.47a.467.467 0 100 .933H6.7a.468.468 0 00.469-.466.468.468 0 00-.47-.467zm-1.64 2.55H.47c-.26 0-.47.21-.47.467 0 .258.21.467.47.467h4.59a.47.47 0 00.47-.467.468.468 0 00-.47-.467zM3.092 7.51H.47a.468.468 0 100 .935h2.622c.26 0 .47-.209.47-.467a.468.468 0 00-.47-.466z" fill="currentColor"/></symbol><symbol id="car" viewBox="0 0 22 15"><path fill-rule="evenodd" clip-rule="evenodd" d="M5.716 14.5c1.705 0 3.092-1.348 3.092-3.016S7.421 8.468 5.716 8.468c-1.706 0-3.093 1.348-3.093 3.016S4.01 14.5 5.716 14.5zm0-5.1c1.192 0 2.153.935 2.153 2.083 0 1.148-.961 2.083-2.153 2.083-1.192 0-2.154-.935-2.154-2.083 0-1.148.962-2.083 2.154-2.083zm9.836 5.1c1.706 0 3.093-1.348 3.093-3.016s-1.387-3.016-3.093-3.016c-1.705 0-3.092 1.348-3.092 3.016s1.386 3.016 3.092 3.016zm0-5.1c1.192 0 2.154.935 2.154 2.083 0 1.148-.962 2.083-2.153 2.083-1.192 0-2.154-.935-2.154-2.083 0-1.148.962-2.083 2.154-2.083z" fill="#918784"/><path d="M18.481 11.95c.173 0 .35 0 .38-.002.484-.03.917-.31 1.135-.738l.874-1.705c.477-.93.725-1.957.725-2.997 0-.875-.397-1.704-1.084-2.263L16.74 1.18A3.05 3.05 0 0014.817.5h-8.96A2.655 2.655 0 003.49 1.931L.28 8.194A2.55 2.55 0 000 9.357c0 1.434 1.188 2.593 2.65 2.593h.421c.26 0 .47-.209.47-.466a.468.468 0 00-.47-.467H2.65c-.946 0-1.71-.746-1.71-1.66 0-.257.061-.51.179-.74l3.209-6.262a1.716 1.716 0 011.531-.922h8.96c.486 0 .956.166 1.328.469l3.77 3.066c.47.382.74.946.74 1.54a5.64 5.64 0 01-.622 2.573l-.875 1.706a.428.428 0 01-.356.23h-.322a.469.469 0 00-.47.467c0 .257.211.466.47.466z" fill="#918784"/><path d="M8.34 11.95h4.59a.468.468 0 00.469-.467.468.468 0 00-.47-.466H8.34c-.26 0-.47.209-.47.466 0 .258.21.467.47.467zm6.492-7.316l.876-3.485a.47.47 0 00-.911-.226l-.876 3.485-.465 1.864a.467.467 0 00.456.58h7.004c.26 0 .47-.21.47-.467a.468.468 0 00-.47-.467h-6.404l.32-1.284zM6.7 2.412H.47a.467.467 0 100 .933H6.7a.468.468 0 00.469-.466.468.468 0 00-.47-.467zm-1.64 2.55H.47c-.26 0-.47.21-.47.467 0 .258.21.467.47.467h4.59a.47.47 0 00.47-.467.468.468 0 00-.47-.467zM3.092 7.51H.47a.468.468 0 100 .935h2.622c.26 0 .47-.209.47-.467a.468.468 0 00-.47-.466z" fill="#918784"/></symbol><symbol id="care-1" viewBox="0 0 21 22"><path d="M10.846 21.047c5.537 0 10.107-4.57 10.107-10.098 0-5.527-4.58-10.097-10.117-10.097C5.309.852.748 5.422.748 10.949c0 5.528 4.57 10.098 10.098 10.098zm0-2.012a8.048 8.048 0 01-8.067-8.086 8.038 8.038 0 018.057-8.076 8.07 8.07 0 018.096 8.076 8.059 8.059 0 01-8.086 8.086zm.537-3.642c.596 0 .957-.362.957-1.036V7.541c0-.645-.4-1.035-1.035-1.035-.43 0-.742.107-1.221.43l-1.68 1.132c-.263.186-.38.371-.38.674 0 .362.273.674.654.674.166 0 .283-.02.527-.186l1.162-.771h.078v5.898c0 .674.362 1.036.938 1.036z" fill="#25272E"/></symbol><symbol id="care-2" viewBox="0 0 21 22"><path d="M10.846 21.047c5.537 0 10.107-4.57 10.107-10.098 0-5.527-4.58-10.097-10.117-10.097C5.309.852.748 5.422.748 10.949c0 5.528 4.57 10.098 10.098 10.098zm0-2.012a8.048 8.048 0 01-8.067-8.086 8.038 8.038 0 018.057-8.076 8.07 8.07 0 018.096 8.076 8.059 8.059 0 01-8.086 8.086zm-2.217-3.701h4.951c.479 0 .8-.293.8-.762 0-.478-.321-.752-.8-.752h-3.174v-.078l2.051-2.139c.938-.937 1.523-1.708 1.523-2.744 0-1.513-1.24-2.52-3.105-2.52-1.445 0-2.695.821-3.037 1.934a1.305 1.305 0 00-.059.43c0 .45.313.733.772.733.41 0 .615-.235.79-.518.255-.537.714-1.094 1.554-1.094.81 0 1.337.469 1.337 1.182 0 .635-.517 1.181-1.113 1.787L8.16 13.859c-.254.235-.342.47-.342.733 0 .449.313.742.81.742z" fill="#25272E"/></symbol><symbol id="care-3" viewBox="0 0 21 22"><path d="M10.846 21.057c5.537 0 10.107-4.57 10.107-10.098 0-5.537-4.58-10.107-10.117-10.107C5.309.852.748 5.422.748 10.959c0 5.527 4.57 10.098 10.098 10.098zm0-2.022a8.04 8.04 0 01-8.067-8.076c0-4.482 3.584-8.086 8.057-8.086a8.08 8.08 0 018.096 8.086c.01 4.482-3.604 8.076-8.086 8.076zm-.05-3.467c2.16 0 3.487-1.084 3.487-2.636 0-1.133-.84-2.041-2.002-2.139v-.088C13.238 10.56 14 9.68 14 8.693c0-1.377-1.28-2.343-3.125-2.343-1.63 0-2.842.713-3.125 1.836a1.215 1.215 0 00-.059.42c0 .458.323.751.801.751.381 0 .615-.166.772-.517.224-.654.78-1.055 1.582-1.055.86 0 1.396.42 1.396 1.113 0 .713-.596 1.23-1.435 1.23h-.498c-.46 0-.762.284-.762.714 0 .42.312.713.762.713h.546c.987 0 1.65.517 1.65 1.289 0 .761-.673 1.27-1.67 1.27-.946 0-1.483-.45-1.728-1.055-.166-.352-.41-.518-.771-.518-.488 0-.81.313-.81.771 0 .157.019.254.058.4.312 1.104 1.611 1.856 3.213 1.856z" fill="#25272E"/></symbol><symbol id="care-4" viewBox="0 0 21 22"><path d="M10.846 21.047c5.537 0 10.107-4.57 10.107-10.098 0-5.527-4.58-10.097-10.117-10.097C5.309.852.748 5.422.748 10.949c0 5.528 4.57 10.098 10.098 10.098zm0-2.012a8.048 8.048 0 01-8.067-8.086 8.038 8.038 0 018.057-8.076 8.07 8.07 0 018.096 8.076 8.059 8.059 0 01-8.086 8.086zm1.27-3.642c.527 0 .84-.323.84-.918v-.81h.624c.469 0 .781-.294.781-.743 0-.45-.302-.752-.78-.752h-.626V7.55c0-.712-.566-1.21-1.377-1.21-.82 0-1.299.283-1.748 1.006-.918 1.406-2.012 3.047-2.725 4.248-.205.37-.283.664-.283.976 0 .664.46 1.094 1.172 1.094h3.3v.81c0 .586.313.919.821.919zm-.821-3.223H8.502v-.059c.664-1.181 1.797-2.91 2.715-4.345h.078v4.404z" fill="#25272E"/></symbol><symbol id="close-modal" viewBox="0 0 12 12"><path d="M.224.224a.766.766 0 000 1.083L4.917 6 .224 10.693a.766.766 0 101.083 1.083L6 7.083l4.693 4.693a.766.766 0 101.083-1.083L7.083 6l4.693-4.693A.766.766 0 1010.693.224L6 4.917 1.307.224a.766.766 0 00-1.083 0z" fill="currentColor"/></symbol><symbol id="close" viewBox="0 0 19 19"><path stroke="#000" stroke-width="1.5" d="M.941 17.498L16.97 1.47m.589 16.028L1.529 1.47"/></symbol><symbol id="cross" viewBox="0 0 14 15"><path d="M7.035 14.004c.407 0 .747-.323.747-.722v-5.52h5.363c.398 0 .738-.34.738-.747a.746.746 0 00-.738-.739H7.782V.748c0-.398-.34-.722-.747-.722a.732.732 0 00-.739.722v5.528H.926a.746.746 0 00-.739.74c0 .406.34.746.739.746h5.37v5.52c0 .399.332.722.74.722z" fill="#70747D"/></symbol><symbol id="delivery-time" viewBox="0 0 24 16"><path fill-rule="evenodd" clip-rule="evenodd" d="M6.352 15.56c1.896 0 3.437-1.499 3.437-3.353S8.248 8.855 6.352 8.855s-3.437 1.498-3.437 3.352c0 1.854 1.541 3.352 3.437 3.352zm0-5.668c1.325 0 2.394 1.039 2.394 2.315s-1.069 2.315-2.393 2.315c-1.325 0-2.394-1.04-2.394-2.315 0-1.276 1.07-2.315 2.394-2.315zm10.932 5.668c1.896 0 3.437-1.499 3.437-3.353s-1.541-3.352-3.437-3.352-3.437 1.498-3.437 3.352c0 1.854 1.541 3.352 3.437 3.352zm.001-5.668c1.325 0 2.393 1.039 2.393 2.315s-1.069 2.315-2.393 2.315c-1.325 0-2.393-1.04-2.393-2.315 0-1.276 1.068-2.315 2.393-2.315z" fill="#25272E"/><path d="M20.54 12.726c.192 0 .388-.001.422-.004a1.52 1.52 0 001.26-.819l.973-1.896A7.3 7.3 0 0024 6.677c0-.972-.442-1.893-1.205-2.515L18.605.755A3.389 3.389 0 0016.468 0H6.51a2.95 2.95 0 00-2.632 1.59L.312 8.55A2.848 2.848 0 000 9.844c0 1.594 1.32 2.883 2.944 2.883h.47a.52.52 0 00.521-.52.52.52 0 00-.522-.518h-.469c-1.051 0-1.9-.829-1.9-1.845 0-.285.068-.567.198-.822l3.566-6.96A1.909 1.909 0 016.51 1.038h9.958c.54 0 1.062.185 1.476.521l4.19 3.407c.522.425.822 1.052.822 1.712 0 .993-.236 1.972-.691 2.86l-.972 1.896a.476.476 0 01-.396.254l-.358.001a.52.52 0 00-.521.519.52.52 0 00.521.518z" fill="#25272E"/><path d="M9.268 12.725h5.102a.52.52 0 00.522-.518.52.52 0 00-.522-.519H9.268a.52.52 0 00-.521.519.52.52 0 00.521.518zm7.215-8.13l.973-3.873a.522.522 0 00-1.012-.251l-.973 3.873-.517 2.072a.52.52 0 00.506.643h7.785a.52.52 0 00.521-.518.52.52 0 00-.521-.52h-7.118l.356-1.426zm-9.038-2.47H.522a.52.52 0 00-.522.52.52.52 0 00.522.518h6.923a.52.52 0 00.522-.519.52.52 0 00-.522-.519zM5.623 4.96H.522A.52.52 0 000 5.479a.52.52 0 00.522.518h5.101a.52.52 0 00.522-.518.52.52 0 00-.522-.519zM3.437 7.792H.522A.52.52 0 000 8.31a.52.52 0 00.522.519h2.915a.52.52 0 00.522-.519.52.52 0 00-.522-.519z" fill="#25272E"/></symbol><symbol id="delivery" viewBox="0 0 34 28"><path fill-rule="evenodd" clip-rule="evenodd" d="M13.522 23.262a4.174 4.174 0 11-8.348 0 4.174 4.174 0 018.348 0zm15.304 0a4.174 4.174 0 11-8.347 0 4.174 4.174 0 018.347 0z" stroke="#25272E" stroke-linecap="round" stroke-linejoin="round" fill="transparent"/><path d="M3.783 13.523l-2.427 4.852a3.377 3.377 0 003.02 4.888h.798m24.184-.003c.527 0 1.01-.298 1.245-.77l1.354-2.708A9.885 9.885 0 0033 15.362a3.929 3.929 0 00-1.413-3.02l-5.841-4.866a3.933 3.933 0 00-2.516-.912h-8.317m-1.391 16.695h6.956" stroke="#25272E" stroke-linecap="round" stroke-linejoin="round" fill="transparent"/><path fill-rule="evenodd" clip-rule="evenodd" d="M23.26 9.347l-1.39 5.565h8.348L23.26 9.347zM1 7.957a6.956 6.956 0 1113.913 0A6.956 6.956 0 011 7.956z" stroke="#25272E" stroke-linecap="round" stroke-linejoin="round" fill="transparent"/><path d="M4.478 8.653l2.087 2.087 4.87-4.87" stroke="#25272E" stroke-linecap="round" stroke-linejoin="round" fill="transparent"/></symbol><symbol id="discount-black" viewBox="0 0 30 30"><path d="M28.718 16.918l-2.207 2.145.252 3.09c.063.442-.252.82-.63.946l-2.965.82-1.198 2.838c-.19.379-.568.631-1.01.505l-3.027-.63-2.397 1.954a.716.716 0 01-.505.19c-.189 0-.378-.064-.567-.19l-2.397-1.955-3.027.63a.973.973 0 01-1.01-.504L6.833 23.92l-2.964-.82c-.379-.126-.694-.505-.63-.946l.251-3.09-2.207-2.145c-.316-.315-.379-.757-.126-1.135l1.64-2.586-1.01-2.901c-.126-.379.063-.82.379-1.073L4.94 7.71l.505-3.027c.063-.441.441-.694.82-.757l3.09-.063 1.83-2.46c.251-.378.693-.441 1.071-.315l2.775 1.324 2.776-1.324c.378-.19.82-.063 1.072.315l1.829 2.46 3.09.126c.442 0 .757.316.82.757l.505 3.028 2.65 1.513c.378.19.504.631.378 1.072l-.947 2.902 1.64 2.586c.253.315.19.82-.126 1.072z" stroke="#000" stroke-miterlimit="10" stroke-linecap="round" fill="transparent"/><path d="M11.209 21.834l7.685-13.873" stroke="#000" fill="transparent"/><rect x="10" y="8.6" width="3.1" height="5.7" rx="1.55" stroke="#000" fill="transparent"/><rect x="16.95" y="15.55" width="3.1" height="5.7" rx="1.55" stroke="#000" fill="transparent"/></symbol><symbol id="discount" viewBox="0 0 40 40"><path d="M37.36 22.56l-2.8 2.72.32 3.92c.08.56-.32 1.04-.8 1.2l-3.76 1.04-1.52 3.6c-.24.48-.72.8-1.28.64l-3.84-.8-3.04 2.48c-.16.16-.4.24-.64.24s-.48-.08-.72-.24l-3.04-2.48-3.84.8c-.48.08-1.04-.16-1.28-.64l-1.52-3.6-3.76-1.04c-.48-.16-.88-.64-.8-1.2l.32-3.92-2.8-2.72c-.4-.4-.48-.96-.16-1.44l2.08-3.28-1.28-3.68c-.16-.48.08-1.04.48-1.36l3.52-1.92.64-3.84c.08-.56.56-.88 1.04-.96L12.8 6l2.32-3.12c.32-.48.88-.56 1.36-.4L20 4.16l3.52-1.68c.48-.24 1.04-.08 1.36.4L27.2 6l3.92.16c.56 0 .96.4 1.04.96l.64 3.84 3.36 1.92c.48.24.64.8.48 1.36l-1.2 3.68 2.08 3.28c.32.4.24 1.04-.16 1.36z" stroke="#FF323D" stroke-width="2" stroke-miterlimit="10" stroke-linecap="round" fill="transparent"/><path d="M18.24 13.12c-.4-1.12-1.36-1.92-2.64-1.92s-2.24.72-2.64 1.92c-.16.48-.16.72-.16 2.48s.08 2.08.16 2.48c.4 1.12 1.36 1.92 2.64 1.92s2.24-.72 2.64-1.92c.16-.48.16-.72.16-2.48s-.08-2.08-.16-2.48zm-1.52 4.48c-.16.56-.56.8-1.12.8s-.96-.32-1.12-.8c-.08-.24-.08-.48-.08-1.92 0-1.52.08-1.76.08-2 .16-.56.56-.8 1.12-.8s.96.32 1.12.8c.08.24.08.48.08 2 0 1.44-.08 1.68-.08 1.92zm10.32 4.32C26.64 20.8 25.68 20 24.4 20s-2.24.72-2.64 1.92c-.16.48-.16.72-.16 2.48s.08 2.08.16 2.48c.4 1.12 1.36 1.92 2.64 1.92s2.24-.72 2.64-1.92c.16-.48.16-.72.16-2.48s-.08-2.08-.16-2.48zm-1.52 4.48c-.16.56-.56.8-1.12.8s-.96-.32-1.12-.8c-.08-.24-.08-.48-.08-1.92 0-1.52.08-1.76.08-2 .16-.56.56-.8 1.12-.8s.96.32 1.12.8c.08.24.08.48.08 2 0 1.44-.08 1.68-.08 1.92zm-1.6-14.96c.08-.16.16-.24.4-.24h1.12c.16 0 .16.16.16.24l-9.52 17.12c-.08.16-.16.24-.32.24h-1.12c-.16 0-.24-.16-.16-.24l9.44-17.12z" fill="#FF323D"/></symbol><symbol id="fav" viewBox="0 0 20 18"><path d="M9.491 16.878l-.054-.04-.007-.006c-1.358-1.066-3.45-2.767-5.2-4.807-1.767-2.06-3.08-4.347-3.08-6.589A4.486 4.486 0 015.636.95c1.156 0 2.085.5 2.748 1.034a5.784 5.784 0 01.942.963l.042.058.009.012h0s0 0 0 0v.001h0l.623.934.623-.934s0 0 0 0h0s0 0 0 0h0l.009-.013a4.572 4.572 0 01.23-.292c.17-.197.424-.463.754-.729.663-.533 1.593-1.034 2.748-1.034a4.486 4.486 0 014.486 4.486c0 2.247-1.32 4.54-3.094 6.605-1.756 2.044-3.854 3.745-5.208 4.808l-.022.017v.001l-.016.011a.85.85 0 01-.51.172.85.85 0 01-.509-.172z" stroke="currentColor" fill="transparent" stroke-width="1.5"/></symbol><symbol id="loading" viewBox="0 0 18 18"><path d="M9 .2C4.149.2.2 4.147.2 9a.733.733 0 101.467 0A7.322 7.322 0 019 1.665a7.322 7.322 0 017.333 7.333.732.732 0 001.017.687A.733.733 0 0017.8 9C17.8 4.148 13.851.2 9 .2zM1.468 11.132l-.588.295-.116.646.449.48.255.046.587-.295.116-.646-.448-.48-.255-.046zm14.198 1.648l-.587.293-.116.648.448.48.255.045.587-.295.116-.646-.448-.48-.255-.046zm-12.684.843l-.588.295-.116.646.45.48.254.046.587-.295.116-.646-.449-.48-.254-.046zm10.642 1.233l-.588.295-.116.646.448.48.255.046.588-.295.116-.646-.45-.48-.254-.046zm-8.344.562l-.588.295-.115.646.448.48.255.045.588-.293.116-.648-.45-.48-.254-.045zm5.698.664l-.587.295-.116.648.448.48.255.044.587-.294.116-.647-.448-.48-.255-.046zm-2.91.19l-.588.296-.116.647.45.48.254.044.587-.293.116-.648-.448-.48-.255-.045z" fill="#25272E"/></symbol><symbol id="mastercard" viewBox="0 0 28 18"><path d="M17.863 1.82H9.672v13.378h8.191V1.82z" fill="#FF5F00"/><path d="M10.516 8.51a8.494 8.494 0 013.25-6.689 8.508 8.508 0 100 13.38 8.493 8.493 0 01-3.25-6.692z" fill="#EB001B"/><path d="M27.533 8.51a8.509 8.509 0 01-13.767 6.69 8.508 8.508 0 000-13.38 8.508 8.508 0 0113.767 6.689v.002z" fill="#F79E1B"/></symbol><symbol id="parcel" viewBox="0 0 29 27"><path d="M12.046 5.91H1V1.613c0-.34.275-.614.614-.614h25.772c.34 0 .614.275.614.614v4.295H16.954" stroke="#000" stroke-miterlimit="10" stroke-linecap="round" fill="transparent"/><path d="M16.954 1v10.432h-4.909V1" stroke="#000" stroke-miterlimit="10" stroke-linecap="round" fill="transparent"/><path d="M2.227 5.91v19.022c0 .339.275.614.614.614h23.318a.614.614 0 00.614-.614V5.909" stroke="#000" stroke-miterlimit="10" stroke-linecap="round" fill="transparent"/></symbol><symbol id="plus" viewBox="0 0 24 24"><rect width="24" height="24" rx="12" fill="#1F2533"/><path d="M11.993 17.936c.5 0 .91-.423.91-.888V12.98h3.985c.478 0 .895-.41.895-.91 0-.492-.417-.909-.895-.909h-3.986V7.095a.91.91 0 00-.909-.889.908.908 0 00-.902.889v4.067H7.105c-.464 0-.895.417-.895.91 0 .498.43.909.895.909h3.986v4.067c0 .465.41.889.902.889z" fill="#fff"/></symbol><symbol id="round-tick" viewBox="0 0 20 20"><rect x=".5" y=".5" width="19" height="19" rx="9.5" stroke="#1F2533" fill="transparent"/><path d="M8.99 14.83a.685.685 0 00.6-.317l4.59-7.149a.793.793 0 00.146-.43c0-.346-.244-.585-.596-.585-.239 0-.385.088-.532.317L8.965 13.38l-2.173-2.788c-.146-.19-.298-.269-.513-.269-.351 0-.605.25-.605.591a.69.69 0 00.18.45l2.53 3.154c.17.214.351.312.605.312z" fill="#1F2533"/></symbol><symbol id="shopping-cart" viewBox="0 0 28 28"><path d="M7 2.333L3.5 7v16.333a2.333 2.333 0 002.333 2.334h16.334a2.333 2.333 0 002.333-2.334V7L21 2.333H7zM3.5 7h21m-5.833 4.667a4.667 4.667 0 01-9.334 0" stroke="#25272E" stroke-width="2" stroke-linecap="round" stroke-linejoin="round" fill="transparent"/></symbol><symbol id="slider-arrow-next-white" viewBox="0 0 9 16"><path d="M8.613 8.007c0 .207-.074.39-.232.548l-6.583 6.433a.714.714 0 01-.54.224.744.744 0 01-.763-.755.78.78 0 01.224-.54l6.043-5.91L.72 2.097a.796.796 0 01-.224-.54c0-.432.332-.755.764-.755.216 0 .398.074.54.216l6.58 6.441c.158.15.232.34.232.548z" fill="#1F2533"/></symbol><symbol id="slider-arrow-next" viewBox="0 0 11 18"><path d="M1.613 17.436a.877.877 0 00.635-.264l7.744-7.568a.911.911 0 00.283-.655.864.864 0 00-.283-.654L2.258.736a.886.886 0 00-.645-.273.876.876 0 00-.888.898c0 .235.097.47.254.635L8.088 8.95l-7.11 6.953a.928.928 0 00-.253.635c0 .508.38.899.888.899z" fill="#fff"/></symbol><symbol id="slider-arrow-prev" viewBox="0 0 9 16"><path d="M7.264 14.988a.745.745 0 00.54.224.738.738 0 00.755-.755.788.788 0 00-.216-.54L2.3 8.007l6.043-5.91a.804.804 0 00.216-.54.744.744 0 00-.755-.764.745.745 0 00-.54.225L.69 7.45a.73.73 0 00-.25.556c0 .207.084.398.242.556l6.582 6.425z" fill="#fff"/></symbol><symbol id="trash-2" viewBox="0 0 16 16"><path d="M2 4h12" stroke="#1F2532" stroke-width="1.5" stroke-linecap="round" stroke-linejoin="round"/><path d="M5.333 4.003V2.669a1.333 1.333 0 011.334-1.333h2.666a1.334 1.334 0 011.334 1.333v1.334m2 0v9.333a1.333 1.333 0 01-1.334 1.333H4.667a1.333 1.333 0 01-1.334-1.333V4.003h9.334z" fill="transparent" stroke="#1F2532" stroke-width="1.5" stroke-linecap="round" stroke-linejoin="round"/></symbol><symbol id="watch-closed" viewBox="0 0 80 80"><path d="M40 70.833c17.029 0 30.833-13.804 30.833-30.833C70.833 22.97 57.03 9.166 40 9.166 22.97 9.166 9.166 22.971 9.166 40S22.971 70.833 40 70.833z" fill="transparent" stroke="#000" stroke-width="2" stroke-miterlimit="10"/><path d="M23.334 30.834l16.666 10 15-6.667" stroke="#000" stroke-width="2" stroke-miterlimit="10" fill="transparent" stroke-linecap="round" stroke-linejoin="round"/><path d="M40 10.241v19c0 1.895-2.077 3.055-3.69 2.062L18 20s7-9.759 22-9.759z" fill="#000"/></symbol></svg>