<svg xmlns="http://www.w3.org/2000/svg" xmlns:xlink="http://www.w3.org/1999/xlink"><defs><clipPath id="clip0"><path fill="#fff" d="M0 0h40v40H0z"/></clipPath><clipPath id="clip0"><path fill="#fff" d="M0 0h40v40H0z"/></clipPath></defs><symbol id="bouquet" viewBox="0 0 40 40"><g clip-path="url(#clip0)" stroke="#FCCD01" stroke-width="2" stroke-miterlimit="10" stroke-linecap="round" stroke-linejoin="round" fill="transparent"><path d="M1.6 1.6c3.6 0 7.04 1.44 7.92 2.8l.48.8-.8 3.2H5.44S4.32 4.56 1.6 1.6zm30.8 11.84c1.84-1.44 3.44-2.8 6.8-2.24-2.64 2.08-3.2 5.6-5.36 15.2-2.8 11.92-15.44 12.8-15.44 12.8m0 0c2.64-1.36 7.04-6.56 7.2-14.48M18.4 39.2c-.32-6.64-3.92-10.64-7.2-11.2m8.72 10.08s.88-10.16-2.48-14.16"/><path d="M15.44 8.16c-.4-.08-.8-.16-1.2-.16-1.36 0-2.56.56-3.44 1.12C9.92 8.56 8.64 8 7.36 8c-.96 0-1.84.32-2.56.88-2 1.52-2 4.08-1.6 5.76C1.44 16 .32 18.16 1.12 20.72c.72 2.16 2.48 3.44 4.96 3.6.72 1.84 2.24 3.76 4.8 3.76 2.56 0 4.08-1.92 4.8-3.76 1.28-.08 2.32-.4 3.2-.96"/><path d="M13.6 19.44c-.56.8-1.44 1.36-2.48 1.36-1.68 0-3.04-1.44-3.04-3.2 0-1.76 1.36-3.2 3.04-3.2.72 0 1.44.24 2 .72l.48 4.32zM25.2 5.68c0-1.52-.48-3.04-2-4.08-.8-.56-1.68-.8-2.64-.8-1.36 0-2.56.56-3.44 1.12-.8-.56-2.08-1.12-3.36-1.12-.96 0-1.84.32-2.56.88-2 1.52-2 4.08-1.6 5.76-.32.24-.56.48-.8.72"/><path d="M26.24 5.6c-1.36 0-2.56.56-3.44 1.12-.88-.56-2.16-1.12-3.44-1.12-.96 0-1.84.32-2.56.88-2 1.52-2 4.08-1.6 5.76-1.76 1.36-2.88 3.52-2.08 6.08.72 2.16 2.48 3.44 4.96 3.6.72 1.84 2.24 3.76 4.8 3.76 2.56 0 4.08-1.92 4.8-3.76 2.64-.08 4.48-1.52 5.04-3.68.64-2.56-.64-4.48-2.08-5.76.4-2.08.32-4.56-1.84-6.08-.8-.56-1.68-.8-2.56-.8z"/><path d="M23.04 12c-.806 0-1.58.337-2.15.937-.57.6-.89 1.414-.89 2.263s.32 1.663.89 2.263c.57.6 1.344.937 2.15.937.806 0 1.58-.337 2.15-.937.57-.6.89-1.414.89-2.263s-.32-1.663-.89-2.263A2.965 2.965 0 0023.04 12z"/></g></symbol><symbol id="bunch-green" viewBox="0 0 40 40"><g clip-path="url(#clip0)" stroke="#38C262" stroke-width="2" stroke-miterlimit="10" fill="transparent"><path d="M5.04 39.2s-1.36-.4-2.64-1.6C1.12 36.4.8 34.96.8 34.96l9.92-9.92 4.24 4.24-9.92 9.92z" stroke-linejoin="round"/><path d="M21.6 14.08c1.28-.4 3.12-1.28 3.44-3.04.4-2.32-2.64-4-3.36-4.32-.08-.08-.16-.08-.16-.08s.64-4.48-1.68-5.6c-2.32-1.12-5.28 2-5.28 2l-.48-.24c-1.04-.48-3.6-1.44-5.12.24-1.36 1.52-.72 3.92-.16 5.04" stroke-linecap="round"/><path d="M25.6 39.2c-6.56 0-4.88-4.64-10.64-9.92 2.08 2.16-2.08 6.64 1.36 9.92" stroke-linecap="round" stroke-linejoin="round"/><path d="M28.4 21.12c2.32-.16 3.68-3.92 3.68-3.92s4.16.32 5.2-2.16c.96-2.16-1.68-4.48-2.32-4.96-.08-.08-.16-.08-.16-.08s1.6-4-.48-5.6c-2-1.68-5.6.72-5.6.72s-.08-.16-.32-.32c-.96-.72-3.2-2.24-5.04-.96-1.12.72-1.44 1.92-1.44 3.04m.64 9.76c.96.16 1.76.16 1.76.16s.08.4.32.88M13.12 9.6c.08-1.28 1.2-2.32 2.48-2.32 1.36 0 2.48 1.12 2.48 2.48 0 .56-.16 1.12-.56 1.52" stroke-linecap="round"/><path d="M32 32.72c2.08-.72 2.64-4.64 2.64-4.64s4.08-.64 4.56-3.28c.4-2.32-2.72-4-3.44-4.32-.08-.08-.16-.08-.16-.08s.24-1.76-.24-3.36m-6.8 4.32c.32-.16.72-.24 1.12-.24 1.36 0 2.48 1.12 2.48 2.48 0 1.36-1.12 2.48-2.48 2.48-.32 0-.64-.08-.96-.16M28.4 9.2a2.48 2.48 0 100 4.959 2.48 2.48 0 000-4.959z" stroke-linecap="round"/><path d="M31.84 33.36s1.28-5.2-3.44-7.68c2.08-3.6-2.72-8.72-5.76-8.32-.24-5.28-5.76-6.88-8.32-6.08-1.84-3.76-7.68-3.12-7.68-3.12l4.08 16.88 4.24 4.24 16.88 4.08z" stroke-linejoin="round"/></g></symbol><symbol id="close" viewBox="0 0 19 19"><path stroke="#000" stroke-width="1.5" d="M.941 17.498L16.97 1.47m.589 16.028L1.529 1.47"/></symbol><symbol id="cross" viewBox="0 0 14 15"><path d="M7.035 14.004c.407 0 .747-.323.747-.722v-5.52h5.363c.398 0 .738-.34.738-.747a.746.746 0 00-.738-.739H7.782V.748c0-.398-.34-.722-.747-.722a.732.732 0 00-.739.722v5.528H.926a.746.746 0 00-.739.74c0 .406.34.746.739.746h5.37v5.52c0 .399.332.722.74.722z" fill="#70747D"/></symbol><symbol id="delivery" viewBox="0 0 34 28"><path fill-rule="evenodd" clip-rule="evenodd" d="M13.522 23.262a4.174 4.174 0 11-8.348 0 4.174 4.174 0 018.348 0zm15.304 0a4.174 4.174 0 11-8.347 0 4.174 4.174 0 018.347 0z" stroke="#25272E" stroke-linecap="round" stroke-linejoin="round" fill="transparent"/><path d="M3.783 13.523l-2.427 4.852a3.377 3.377 0 003.02 4.888h.798m24.184-.003c.527 0 1.01-.298 1.245-.77l1.354-2.708A9.885 9.885 0 0033 15.362a3.929 3.929 0 00-1.413-3.02l-5.841-4.866a3.933 3.933 0 00-2.516-.912h-8.317m-1.391 16.695h6.956" stroke="#25272E" stroke-linecap="round" stroke-linejoin="round" fill="transparent"/><path fill-rule="evenodd" clip-rule="evenodd" d="M23.26 9.347l-1.39 5.565h8.348L23.26 9.347zM1 7.957a6.956 6.956 0 1113.913 0A6.956 6.956 0 011 7.956z" stroke="#25272E" stroke-linecap="round" stroke-linejoin="round" fill="transparent"/><path d="M4.478 8.653l2.087 2.087 4.87-4.87" stroke="#25272E" stroke-linecap="round" stroke-linejoin="round" fill="transparent"/></symbol><symbol id="discount-black" viewBox="0 0 30 30"><path d="M28.718 16.918l-2.207 2.145.252 3.09c.063.442-.252.82-.63.946l-2.965.82-1.198 2.838c-.19.379-.568.631-1.01.505l-3.027-.63-2.397 1.954a.716.716 0 01-.505.19c-.189 0-.378-.064-.567-.19l-2.397-1.955-3.027.63a.973.973 0 01-1.01-.504L6.833 23.92l-2.964-.82c-.379-.126-.694-.505-.63-.946l.251-3.09-2.207-2.145c-.316-.315-.379-.757-.126-1.135l1.64-2.586-1.01-2.901c-.126-.379.063-.82.379-1.073L4.94 7.71l.505-3.027c.063-.441.441-.694.82-.757l3.09-.063 1.83-2.46c.251-.378.693-.441 1.071-.315l2.775 1.324 2.776-1.324c.378-.19.82-.063 1.072.315l1.829 2.46 3.09.126c.442 0 .757.316.82.757l.505 3.028 2.65 1.513c.378.19.504.631.378 1.072l-.947 2.902 1.64 2.586c.253.315.19.82-.126 1.072z" stroke="#000" stroke-miterlimit="10" stroke-linecap="round" fill="transparent"/><path d="M11.209 21.834l7.685-13.873" stroke="#000" fill="transparent"/><rect x="10" y="8.6" width="3.1" height="5.7" rx="1.55" stroke="#000" fill="transparent"/><rect x="16.95" y="15.55" width="3.1" height="5.7" rx="1.55" stroke="#000" fill="transparent"/></symbol><symbol id="discount" viewBox="0 0 40 40"><path d="M37.36 22.56l-2.8 2.72.32 3.92c.08.56-.32 1.04-.8 1.2l-3.76 1.04-1.52 3.6c-.24.48-.72.8-1.28.64l-3.84-.8-3.04 2.48c-.16.16-.4.24-.64.24s-.48-.08-.72-.24l-3.04-2.48-3.84.8c-.48.08-1.04-.16-1.28-.64l-1.52-3.6-3.76-1.04c-.48-.16-.88-.64-.8-1.2l.32-3.92-2.8-2.72c-.4-.4-.48-.96-.16-1.44l2.08-3.28-1.28-3.68c-.16-.48.08-1.04.48-1.36l3.52-1.92.64-3.84c.08-.56.56-.88 1.04-.96L12.8 6l2.32-3.12c.32-.48.88-.56 1.36-.4L20 4.16l3.52-1.68c.48-.24 1.04-.08 1.36.4L27.2 6l3.92.16c.56 0 .96.4 1.04.96l.64 3.84 3.36 1.92c.48.24.64.8.48 1.36l-1.2 3.68 2.08 3.28c.32.4.24 1.04-.16 1.36z" stroke="#FF323D" stroke-width="2" stroke-miterlimit="10" stroke-linecap="round" fill="transparent"/><path d="M18.24 13.12c-.4-1.12-1.36-1.92-2.64-1.92s-2.24.72-2.64 1.92c-.16.48-.16.72-.16 2.48s.08 2.08.16 2.48c.4 1.12 1.36 1.92 2.64 1.92s2.24-.72 2.64-1.92c.16-.48.16-.72.16-2.48s-.08-2.08-.16-2.48zm-1.52 4.48c-.16.56-.56.8-1.12.8s-.96-.32-1.12-.8c-.08-.24-.08-.48-.08-1.92 0-1.52.08-1.76.08-2 .16-.56.56-.8 1.12-.8s.96.32 1.12.8c.08.24.08.48.08 2 0 1.44-.08 1.68-.08 1.92zm10.32 4.32C26.64 20.8 25.68 20 24.4 20s-2.24.72-2.64 1.92c-.16.48-.16.72-.16 2.48s.08 2.08.16 2.48c.4 1.12 1.36 1.92 2.64 1.92s2.24-.72 2.64-1.92c.16-.48.16-.72.16-2.48s-.08-2.08-.16-2.48zm-1.52 4.48c-.16.56-.56.8-1.12.8s-.96-.32-1.12-.8c-.08-.24-.08-.48-.08-1.92 0-1.52.08-1.76.08-2 .16-.56.56-.8 1.12-.8s.96.32 1.12.8c.08.24.08.48.08 2 0 1.44-.08 1.68-.08 1.92zm-1.6-14.96c.08-.16.16-.24.4-.24h1.12c.16 0 .16.16.16.24l-9.52 17.12c-.08.16-.16.24-.32.24h-1.12c-.16 0-.24-.16-.16-.24l9.44-17.12z" fill="#FF323D"/></symbol><symbol id="parcel" viewBox="0 0 29 27"><path d="M12.046 5.91H1V1.613c0-.34.275-.614.614-.614h25.772c.34 0 .614.275.614.614v4.295H16.954" stroke="#000" stroke-miterlimit="10" stroke-linecap="round" fill="transparent"/><path d="M16.954 1v10.432h-4.909V1" stroke="#000" stroke-miterlimit="10" stroke-linecap="round" fill="transparent"/><path d="M2.227 5.91v19.022c0 .339.275.614.614.614h23.318a.614.614 0 00.614-.614V5.909" stroke="#000" stroke-miterlimit="10" stroke-linecap="round" fill="transparent"/></symbol><symbol id="slider-arrow-next" viewBox="0 0 11 18"><path d="M1.613 17.436a.877.877 0 00.635-.264l7.744-7.568a.911.911 0 00.283-.655.864.864 0 00-.283-.654L2.258.736a.886.886 0 00-.645-.273.876.876 0 00-.888.898c0 .235.097.47.254.635L8.088 8.95l-7.11 6.953a.928.928 0 00-.253.635c0 .508.38.899.888.899z" fill="#fff"/></symbol><symbol id="slider-arrow-prev" viewBox="0 0 9 16"><path d="M7.264 14.988a.745.745 0 00.54.224.738.738 0 00.755-.755.788.788 0 00-.216-.54L2.3 8.007l6.043-5.91a.804.804 0 00.216-.54.744.744 0 00-.755-.764.745.745 0 00-.54.225L.69 7.45a.73.73 0 00-.25.556c0 .207.084.398.242.556l6.582 6.425z" fill="#fff"/></symbol><symbol id="watch-closed" viewBox="0 0 80 80"><path d="M40 70.833c17.029 0 30.833-13.804 30.833-30.833C70.833 22.97 57.03 9.166 40 9.166 22.97 9.166 9.166 22.971 9.166 40S22.971 70.833 40 70.833z" fill="transparent" stroke="#000" stroke-width="2" stroke-miterlimit="10"/><path d="M23.334 30.834l16.666 10 15-6.667" stroke="#000" stroke-width="2" stroke-miterlimit="10" fill="transparent" stroke-linecap="round" stroke-linejoin="round"/><path d="M40 10.241v19c0 1.895-2.077 3.055-3.69 2.062L18 20s7-9.759 22-9.759z" fill="#000"/></symbol></svg>