<svg width="202" height="121" viewBox="0 0 202 121" fill="none" xmlns="http://www.w3.org/2000/svg">
<path d="M200.501 91.1015C188.501 80.8931 169.392 70.8271 157.609 78.4203C154.357 80.5161 151.356 83.8664 149.831 87.4244C149.253 88.7729 148.728 92.19 151.434 91.1014C156.808 88.9393 157.767 83.1127 154.356 79.0332C144.944 67.7749 132.87 66.6266 119 66.3992" stroke="#506036" stroke-opacity="0.88" stroke-width="1.2" stroke-linecap="round" stroke-linejoin="round"/>
<path d="M16.614 3.554C16.6487 3.658 16.7007 3.788 16.77 3.944C16.8567 4.08267 16.874 4.16067 16.822 4.178C16.666 4.386 16.484 4.49 16.276 4.49C16.172 4.49 16.068 4.464 15.964 4.412C15.8427 4.37733 15.0713 4.412 13.65 4.516C12.246 4.62 11.0673 4.73267 10.114 4.854C9.958 4.94067 9.81933 5.062 9.698 5.218C9.594 5.35667 9.47267 5.54733 9.334 5.79C9.23 5.98067 8.96133 6.544 8.528 7.48C8.112 8.39867 7.826 9.03133 7.67 9.378C7.618 9.44733 7.592 9.508 7.592 9.56C7.592 9.69867 7.84333 9.768 8.346 9.768C8.43267 9.768 8.57133 9.80267 8.762 9.872C8.95267 9.924 9.1 9.94133 9.204 9.924C9.37733 9.88933 9.81933 9.98467 10.53 10.21C11.2407 10.4353 11.7 10.6173 11.908 10.756C12.376 11.0507 12.74 11.3193 13 11.562C13.26 11.7873 13.4767 12.056 13.65 12.368C13.858 12.8187 14.014 13.2087 14.118 13.538C14.222 13.8673 14.2567 14.214 14.222 14.578C14.222 14.7513 14.17 15.0807 14.066 15.566C13.962 16.034 13.858 16.3633 13.754 16.554C13.4073 17.1607 12.974 17.75 12.454 18.322C12.194 18.634 11.8907 18.9113 11.544 19.154C11.2147 19.3793 10.8073 19.6047 10.322 19.83C9.81933 20.0727 9.49 20.2287 9.334 20.298C9.178 20.35 8.92667 20.4107 8.58 20.48L7.462 20.766C7.27133 20.8873 7.06333 20.9653 6.838 21C6.63 21.0173 6.36133 21.026 6.032 21.026H5.148C4.94 21.026 4.68 20.974 4.368 20.87C4.07333 20.766 3.86533 20.6533 3.744 20.532C3.57067 20.3067 3.42333 20.0033 3.302 19.622C3.18067 19.2233 3.12867 18.9807 3.146 18.894L3.458 16.736C3.51 16.632 3.55333 16.4673 3.588 16.242C3.62267 16.0167 3.666 15.852 3.718 15.748C3.70067 15.54 3.926 14.7687 4.394 13.434L4.602 12.81C4.654 12.55 4.784 12.2033 4.992 11.77L5.226 11.25C5.36467 10.782 5.47733 10.418 5.564 10.158C5.668 9.898 5.772 9.67267 5.876 9.482C5.99733 9.29133 6.14467 8.988 6.318 8.572L7.852 5.088C7.67867 5.00133 7.52267 4.83667 7.384 4.594C7.24533 4.334 7.176 4.1 7.176 3.892V3.84C7.176 3.77067 7.202 3.71 7.254 3.658C7.32333 3.606 7.40133 3.56267 7.488 3.528L8.294 3.502C8.48467 3.502 8.62333 3.51067 8.71 3.528H8.788C8.85733 3.528 8.93533 3.51067 9.022 3.476C9.10867 3.44133 9.21267 3.44133 9.334 3.476C9.47267 3.51067 9.58533 3.528 9.672 3.528C9.88 3.528 10.0707 3.48467 10.244 3.398L11.7 3.32C12.272 3.268 12.6707 3.242 12.896 3.242C12.9653 3.242 13.4073 3.20733 14.222 3.138C15.0367 3.06867 15.4787 3.02533 15.548 3.008C15.6173 2.99067 15.7127 2.982 15.834 2.982C16.042 2.982 16.198 3.034 16.302 3.138C16.406 3.22467 16.51 3.36333 16.614 3.554ZM9.36 11.12C9.18667 11.0853 8.83133 11.0333 8.294 10.964C7.75667 10.8773 7.36667 10.834 7.124 10.834C6.62133 12.03 6.24867 12.9747 6.006 13.668C5.55533 15.02 5.24333 16.0427 5.07 16.736C4.98333 17.0133 4.914 17.3513 4.862 17.75C4.81 18.1487 4.784 18.504 4.784 18.816C4.784 19.2667 4.84467 19.544 4.966 19.648C5.10467 19.648 5.33867 19.648 5.668 19.648C6.01467 19.6307 6.32667 19.5873 6.604 19.518C7.78267 19.206 8.684 18.9113 9.308 18.634C9.94933 18.3567 10.5473 17.906 11.102 17.282C11.5353 16.7967 11.856 16.3373 12.064 15.904C12.2893 15.4707 12.4627 14.968 12.584 14.396C12.6187 14.2227 12.636 14.1013 12.636 14.032C12.636 13.876 12.6013 13.642 12.532 13.33C12.4627 13.1393 12.4193 12.9573 12.402 12.784C12.246 12.42 12.09 12.1773 11.934 12.056C11.7953 11.9173 11.648 11.822 11.492 11.77C11.336 11.718 11.2147 11.6747 11.128 11.64C10.868 11.432 10.2787 11.2587 9.36 11.12ZM9.308 11.12H9.36H9.308ZM20.4045 20.09C19.9712 20.4713 19.4512 20.662 18.8445 20.662C18.4112 20.662 17.9952 20.558 17.5965 20.35C17.2152 20.142 16.8945 19.856 16.6345 19.492C16.4092 19.2147 16.2445 18.9027 16.1405 18.556C16.0365 18.2093 15.9845 17.7847 15.9845 17.282C15.9845 17.1087 16.0018 16.762 16.0365 16.242C16.0885 15.6007 16.2965 14.9333 16.6605 14.24C17.0418 13.5467 17.5098 12.9313 18.0645 12.394C18.6192 11.8393 19.1652 11.458 19.7025 11.25C19.9798 11.0767 20.2312 10.99 20.4565 10.99C20.5778 10.99 20.6992 10.9987 20.8205 11.016C20.9418 11.0333 21.0718 11.0507 21.2105 11.068C21.5918 11.12 21.8778 11.198 22.0685 11.302C22.2765 11.3887 22.4498 11.5273 22.5885 11.718C23.0218 12.1513 23.2385 12.654 23.2385 13.226C23.1692 13.642 22.9005 14.1187 22.4325 14.656C21.9645 15.1933 21.4012 15.6267 20.7425 15.956C20.4305 16.06 20.0752 16.112 19.6765 16.112C19.1392 16.112 18.7058 15.9993 18.3765 15.774C18.2205 15.722 18.0992 15.696 18.0125 15.696C17.8565 15.696 17.7352 15.8 17.6485 16.008C17.5792 16.216 17.5098 16.5973 17.4405 17.152C17.4232 17.2733 17.4145 17.4467 17.4145 17.672C17.4145 18.556 17.7092 19.0413 18.2985 19.128C18.6972 19.2147 18.9832 19.258 19.1565 19.258C19.3645 19.258 19.5985 19.1887 19.8585 19.05L20.3525 18.764C20.4565 18.712 20.5518 18.6427 20.6385 18.556C20.7252 18.4693 20.8032 18.3913 20.8725 18.322C20.9072 18.2873 20.9592 18.2353 21.0285 18.166C21.0978 18.0793 21.1585 18.0273 21.2105 18.01C21.2798 17.9753 21.3405 17.958 21.3925 17.958C21.4618 17.958 21.5398 18.0013 21.6265 18.088C21.7132 18.1573 21.7825 18.2093 21.8345 18.244C21.9905 18.244 22.0252 18.3567 21.9385 18.582C21.8518 18.79 21.6612 19.0413 21.3665 19.336C21.0892 19.6133 20.7685 19.8647 20.4045 20.09ZM20.3785 14.578C20.6732 14.4567 20.9678 14.24 21.2625 13.928C21.5745 13.616 21.7305 13.356 21.7305 13.148C21.7305 12.94 21.6525 12.7667 21.4965 12.628C21.3405 12.4893 21.1238 12.42 20.8465 12.42C20.6385 12.42 20.4825 12.4373 20.3785 12.472C20.1358 12.5413 19.8498 12.732 19.5205 13.044C19.1912 13.3387 18.9052 13.642 18.6625 13.954C18.4198 14.266 18.3245 14.448 18.3765 14.5C18.4632 14.656 18.8012 14.734 19.3905 14.734C19.7892 14.734 20.1185 14.682 20.3785 14.578ZM27.1176 20.714C26.8749 20.7487 26.6929 20.766 26.5716 20.766C25.9303 20.766 25.4016 20.5667 24.9856 20.168C24.5696 19.7693 24.3616 19.2147 24.3616 18.504C24.2923 17.7413 24.4569 16.7967 24.8556 15.67C25.2716 14.5433 25.7916 13.5987 26.4156 12.836C26.8489 12.3333 27.2216 11.926 27.5336 11.614C27.8456 11.302 28.1316 11.094 28.3916 10.99C28.7556 10.834 29.1629 10.756 29.6136 10.756C29.9256 10.8253 30.2289 10.9553 30.5236 11.146C30.8356 11.3367 30.9916 11.5273 30.9916 11.718L31.1216 11.848C31.2256 11.848 31.3209 11.978 31.4076 12.238C31.4943 12.4807 31.5376 12.7493 31.5376 13.044C31.5376 13.2867 31.4943 13.4947 31.4076 13.668C31.3383 13.9973 31.2169 14.2833 31.0436 14.526C30.8876 14.7687 30.7316 14.89 30.5756 14.89C30.3849 14.89 30.2896 14.942 30.2896 15.046C30.2896 15.1153 30.2549 15.15 30.1856 15.15C30.0989 15.15 29.9949 15.098 29.8736 14.994C29.7523 14.89 29.6656 14.7687 29.6136 14.63C29.6136 14.578 29.6483 14.4307 29.7176 14.188C29.7869 13.9453 29.8563 13.6767 29.9256 13.382C29.9776 13.174 30.0036 12.992 30.0036 12.836C30.0036 12.4893 29.8736 12.316 29.6136 12.316C29.4749 12.316 29.3363 12.3507 29.1976 12.42C28.5043 12.8013 27.8889 13.408 27.3516 14.24C26.8143 15.072 26.3636 16.216 25.9996 17.672C25.9129 18.0533 25.8696 18.3567 25.8696 18.582C25.8696 18.7553 25.8783 18.894 25.8956 18.998C25.9303 19.102 25.9649 19.1627 25.9996 19.18C26.0863 19.2147 26.2683 19.232 26.5456 19.232C27.1869 19.232 27.6376 19.154 27.8976 18.998C28.4523 18.7033 29.0676 18.3047 29.7436 17.802C29.8129 17.75 29.9169 17.6633 30.0556 17.542C30.1943 17.4033 30.3243 17.308 30.4456 17.256C30.5669 17.0653 30.6796 16.9527 30.7836 16.918C30.8876 16.866 31.0523 16.84 31.2776 16.84C31.5029 16.9093 31.6849 17.0047 31.8236 17.126C31.9623 17.23 31.9623 17.3167 31.8236 17.386C31.7716 17.386 31.7369 17.4033 31.7196 17.438C31.7023 17.4727 31.6936 17.4987 31.6936 17.516C31.7283 17.6027 31.5896 17.8193 31.2776 18.166C30.9656 18.5127 30.6189 18.842 30.2376 19.154C29.8563 19.4487 29.5963 19.596 29.4576 19.596C29.3883 19.596 29.3276 19.6047 29.2756 19.622C29.2236 19.6393 29.1976 19.6827 29.1976 19.752C29.1976 19.8213 28.9289 19.986 28.3916 20.246C27.8716 20.4887 27.4469 20.6447 27.1176 20.714ZM40.1818 20.038C39.8871 19.986 39.6444 19.8473 39.4538 19.622C39.2631 19.3793 39.1678 19.1193 39.1678 18.842C39.1678 18.7553 39.1851 18.6427 39.2198 18.504C39.4278 17.828 39.5664 17.256 39.6358 16.788C39.6704 16.58 39.7484 16.3287 39.8698 16.034C40.0258 15.566 40.1471 15.1847 40.2338 14.89C40.3204 14.5953 40.3638 14.3093 40.3638 14.032C40.3638 13.616 40.2338 13.3213 39.9738 13.148C39.7484 13.0093 39.5231 12.914 39.2978 12.862C39.0724 12.7927 38.7951 12.732 38.4658 12.68C38.2231 12.6453 38.0411 12.6107 37.9198 12.576C37.8678 12.5587 37.7811 12.5587 37.6598 12.576C37.5558 12.5933 37.4431 12.602 37.3218 12.602C37.2004 12.602 37.1138 12.5933 37.0618 12.576C36.9058 13.148 36.8104 13.5293 36.7758 13.72C36.4984 14.6213 36.3424 15.1327 36.3078 15.254C36.1864 15.774 36.0738 16.2073 35.9698 16.554C35.8831 16.8833 35.7618 17.2993 35.6058 17.802C35.5711 17.906 35.5278 18.062 35.4758 18.27C35.4411 18.4607 35.3804 18.6253 35.2938 18.764C35.2591 18.8507 35.2418 18.9287 35.2418 18.998C35.2418 19.05 35.2418 19.0933 35.2418 19.128C35.2418 19.3533 35.1378 19.544 34.9298 19.7C34.8431 19.752 34.7478 19.7953 34.6438 19.83C34.5571 19.8647 34.4704 19.908 34.3838 19.96C34.2278 19.8387 34.0978 19.7 33.9938 19.544C33.8898 19.388 33.7944 19.2493 33.7078 19.128C34.0891 17.412 34.3404 16.476 34.4618 16.32C34.4964 16.268 34.5484 16.0773 34.6178 15.748C34.7044 15.3147 34.7824 15.02 34.8518 14.864C34.8344 14.6733 34.8691 14.474 34.9558 14.266C35.0598 14.0407 35.1204 13.8933 35.1378 13.824C35.2244 13.5813 35.3024 13.2 35.3718 12.68C35.3891 12.4547 35.4324 12.1773 35.5018 11.848C35.6924 11.7267 35.8311 11.6573 35.9178 11.64C36.0044 11.6053 36.1778 11.5707 36.4378 11.536L36.5418 11.198C36.8018 11.0073 37.1831 10.912 37.6858 10.912C38.0671 10.912 38.4224 10.9727 38.7518 11.094C38.8211 11.1113 38.8731 11.1287 38.9078 11.146C38.9424 11.146 38.9858 11.146 39.0378 11.146C39.2804 11.1633 39.5924 11.276 39.9738 11.484C40.3724 11.6747 40.6758 11.8653 40.8838 12.056C41.5078 12.628 41.8198 13.3907 41.8198 14.344C41.8198 15.0373 41.6291 15.9387 41.2478 17.048C41.2131 17.1347 41.1524 17.334 41.0658 17.646C40.9964 17.958 40.9618 18.1487 40.9618 18.218C40.9618 18.374 40.9878 18.5213 41.0398 18.66C41.1091 18.7987 41.2131 18.9547 41.3518 19.128C41.3171 19.2493 41.2391 19.388 41.1178 19.544C41.0138 19.6827 40.9011 19.752 40.7798 19.752C40.6758 19.752 40.5631 19.7953 40.4418 19.882C40.3378 19.9687 40.2511 20.0207 40.1818 20.038ZM44.1348 20.194C44.0481 20.2633 43.9268 20.298 43.7708 20.298C43.5281 20.298 43.2421 20.2373 42.9128 20.116L42.7308 19.648C42.6961 19.4053 42.6615 19.2407 42.6268 19.154C42.8175 18.9633 42.9128 18.868 42.9128 18.868H43.4848C43.5368 18.8507 43.6061 18.7987 43.6928 18.712C43.7795 18.6253 43.8661 18.582 43.9528 18.582C44.5595 18.2007 45.1575 17.49 45.7468 16.45C46.3535 15.3927 46.9775 14.162 47.6188 12.758L47.8528 12.264L47.8268 12.134C47.7228 12.1687 47.5841 12.2033 47.4108 12.238C47.2548 12.2727 47.1248 12.3073 47.0208 12.342L46.8648 12.446C46.7435 12.55 46.5788 12.602 46.3708 12.602C46.1801 12.602 45.9981 12.5587 45.8248 12.472C45.6688 12.3853 45.5561 12.2727 45.4868 12.134C45.3655 11.9433 45.2875 11.822 45.2528 11.77C45.3221 11.614 45.4348 11.4667 45.5908 11.328C45.7468 11.172 45.9028 11.0767 46.0588 11.042C46.9255 10.834 47.6881 10.73 48.3468 10.73C48.9881 10.73 49.6121 10.8427 50.2188 11.068C50.2708 11.0853 50.3401 11.1027 50.4268 11.12C50.5135 11.1373 50.5915 11.172 50.6608 11.224C50.9381 11.432 51.1375 11.5967 51.2588 11.718C51.4841 11.926 51.6228 12.1773 51.6748 12.472C51.7268 12.68 51.7528 12.8967 51.7528 13.122C51.7528 13.226 51.7355 13.382 51.7008 13.59C51.6315 13.8847 51.3975 14.7253 50.9988 16.112L50.8168 16.684C50.4875 17.776 50.1581 18.894 49.8288 20.038C49.6901 20.0727 49.5861 20.09 49.5168 20.09C49.1875 20.09 48.8928 19.934 48.6328 19.622C48.5635 19.414 48.5288 19.206 48.5288 18.998C48.5288 18.7553 48.5895 18.5127 48.7108 18.27C48.7628 18.166 48.8061 18.0273 48.8408 17.854C48.8928 17.6807 48.9275 17.5593 48.9448 17.49C49.0488 16.9527 49.1701 16.5973 49.3088 16.424C49.3435 16.3547 49.3608 16.294 49.3608 16.242C49.3608 16.0687 49.5168 15.4447 49.8288 14.37C50.0715 13.5207 50.2101 13.0093 50.2448 12.836C50.2621 12.8013 50.2708 12.7493 50.2708 12.68C50.2708 12.6107 50.2621 12.55 50.2448 12.498C50.2275 12.4287 50.2188 12.3507 50.2188 12.264C50.0108 12.16 49.7941 12.108 49.5688 12.108C49.3435 12.108 49.1961 12.1947 49.1268 12.368L49.0488 12.602C48.9621 12.8967 48.8148 13.2347 48.6068 13.616C48.2428 14.3787 47.9915 15.0027 47.8528 15.488C47.8355 15.592 47.7921 15.7047 47.7228 15.826C47.6708 15.93 47.6361 16.008 47.6188 16.06C47.5148 16.216 47.4368 16.3807 47.3848 16.554C47.3848 16.5887 47.3761 16.6233 47.3588 16.658C47.3415 16.6753 47.3241 16.6927 47.3068 16.71C47.2548 16.7967 47.0468 17.126 46.6828 17.698C46.2148 18.4433 45.3655 19.2753 44.1348 20.194ZM54.9057 20.246C54.7324 20.2807 54.5764 20.298 54.4377 20.298C54.2124 20.298 54.0044 20.2807 53.8137 20.246C53.623 20.194 53.5277 20.1333 53.5277 20.064C53.5277 20.012 53.519 19.9773 53.5017 19.96C53.4844 19.9427 53.4497 19.934 53.3977 19.934C53.3804 19.9167 53.3284 19.8733 53.2417 19.804C53.155 19.7347 53.051 19.674 52.9297 19.622C52.7737 19.3793 52.6957 19.1193 52.6957 18.842C52.6957 18.5473 52.7737 18.088 52.9297 17.464C52.9817 16.9093 53.2417 16.216 53.7097 15.384C54.1777 14.552 54.7237 13.7633 55.3477 13.018C55.989 12.2727 56.561 11.7527 57.0637 11.458C57.3237 11.198 57.653 11.068 58.0517 11.068C58.3637 11.068 58.6584 11.146 58.9357 11.302C59.1784 11.4407 59.4297 11.6747 59.6897 12.004C59.967 12.3333 60.1837 12.6713 60.3397 13.018C60.409 13.278 60.4437 13.5293 60.4437 13.772C60.4437 14.032 60.409 14.4393 60.3397 14.994C60.253 15.306 60.175 15.6873 60.1057 16.138C60.0537 16.5887 60.0277 16.9787 60.0277 17.308C59.993 17.5507 60.0104 17.75 60.0797 17.906C60.149 18.0447 60.2444 18.114 60.3657 18.114C60.4524 18.114 60.5477 18.088 60.6517 18.036C60.825 17.9493 61.0157 17.906 61.2237 17.906C61.4144 17.906 61.5704 17.958 61.6917 18.062C61.813 18.166 61.8737 18.322 61.8737 18.53C61.8737 18.842 61.657 19.154 61.2237 19.466C60.8077 19.778 60.409 19.934 60.0277 19.934C59.7677 19.934 59.525 19.7347 59.2997 19.336C59.0917 18.92 58.8837 18.3913 58.6757 17.75L58.5197 17.152L57.4017 18.218L56.8037 18.816C56.5264 19.0933 56.3704 19.258 56.3357 19.31C56.145 19.6393 55.6684 19.9513 54.9057 20.246ZM54.9837 18.712C55.3997 18.4693 55.911 18.0447 56.5177 17.438C57.1244 16.8313 57.627 16.2507 58.0257 15.696C58.563 14.9853 58.901 14.2833 59.0397 13.59C58.9704 13.382 58.8577 13.174 58.7017 12.966C58.5457 12.758 58.407 12.6453 58.2857 12.628C57.939 12.628 57.575 12.8273 57.1937 13.226C56.8124 13.6247 56.3617 14.1793 55.8417 14.89L54.9837 16.164C54.8797 16.3027 54.6977 16.6753 54.4377 17.282C54.1777 17.8713 54.0477 18.2267 54.0477 18.348C54.0477 18.7293 54.1604 18.92 54.3857 18.92C54.559 18.92 54.7584 18.8507 54.9837 18.712ZM75.0653 18.738C75.1346 18.79 75.1693 18.868 75.1693 18.972C75.1693 19.0933 75.1259 19.2147 75.0393 19.336C74.9699 19.44 74.9006 19.492 74.8313 19.492C74.5019 19.492 74.1813 19.4053 73.8693 19.232C73.5746 19.0413 73.4273 18.7467 73.4273 18.348V16.736C73.4273 15.9213 73.3666 15.462 73.2453 15.358C72.9853 15.2193 72.5346 15.5053 71.8933 16.216C71.2693 16.9267 70.6626 17.7673 70.0733 18.738C69.8826 19.05 69.7266 19.2927 69.6053 19.466C69.4839 19.6393 69.3886 19.726 69.3193 19.726C69.2673 19.726 69.1806 19.6827 69.0593 19.596C68.5219 19.44 68.2533 19.1367 68.2533 18.686C68.2533 18.634 68.2706 18.5213 68.3053 18.348C68.4786 17.776 68.6519 17.1433 68.8253 16.45C68.9986 15.7393 69.1373 15.1413 69.2413 14.656C69.1893 14.552 69.1026 14.5 68.9813 14.5C68.8079 14.5 68.6086 14.5867 68.3833 14.76C67.9499 15.0547 67.3953 15.7567 66.7193 16.866C65.8699 18.166 65.2806 18.9547 64.9513 19.232C64.8299 19.44 64.7173 19.6047 64.6133 19.726C64.5266 19.83 64.4399 19.882 64.3532 19.882C64.2839 19.882 64.1539 19.83 63.9632 19.726C63.4606 19.4313 63.2093 19.0153 63.2093 18.478C63.2093 18.218 63.2873 17.698 63.4433 16.918C63.5993 16.138 63.7726 15.41 63.9632 14.734C64.1193 14.4393 64.2579 14.136 64.3793 13.824C64.5179 13.4947 64.5873 13.2953 64.5873 13.226C64.6566 12.862 64.7433 12.472 64.8473 12.056C64.9513 11.64 65.0293 11.406 65.0813 11.354C65.2026 11.2327 65.3413 11.172 65.4973 11.172C65.7573 11.172 65.9479 11.3107 66.0693 11.588C66.2599 11.7787 66.3553 12.0213 66.3553 12.316C66.3553 12.6453 66.2599 13.07 66.0693 13.59C65.7746 14.2313 65.4539 15.1673 65.1073 16.398C65.4713 15.9993 65.7313 15.6873 65.8873 15.462C66.3033 14.8727 66.8406 14.214 67.4993 13.486C68.0366 12.8967 68.6433 12.602 69.3193 12.602C70.1166 12.7407 70.5759 13.408 70.6973 14.604C70.6973 14.812 70.6799 15.072 70.6453 15.384C70.6106 15.6787 70.5846 15.8693 70.5673 15.956C70.6366 15.852 70.8099 15.6267 71.0873 15.28C71.3819 14.9333 71.7373 14.578 72.1533 14.214C72.5346 13.9193 72.8899 13.772 73.2193 13.772C73.4966 13.772 73.7393 13.8847 73.9473 14.11C74.3113 14.318 74.5713 14.6127 74.7273 14.994C74.8833 15.358 74.9613 15.826 74.9613 16.398C74.9613 16.6927 74.9526 16.9267 74.9353 17.1C74.9006 17.4467 74.8833 17.6633 74.8833 17.75C74.8833 18.0793 74.9439 18.4087 75.0653 18.738ZM82.7038 20.714C82.5651 20.6793 82.4178 20.6447 82.2618 20.61C82.1058 20.558 81.9411 20.506 81.7678 20.454C81.6291 20.2633 81.5598 20.012 81.5598 19.7C81.5598 19.44 81.6118 19.1367 81.7158 18.79C81.8198 18.426 81.9324 18.0707 82.0538 17.724C82.0884 17.62 82.1491 17.4207 82.2358 17.126C82.3398 16.8313 82.4004 16.5887 82.4178 16.398C82.4004 16.346 82.3744 16.3287 82.3398 16.346C82.3051 16.3633 82.2878 16.3893 82.2878 16.424C82.1144 16.6147 81.7331 16.7533 81.1438 16.84C80.3984 16.9613 79.7484 17.1 79.1938 17.256L78.8558 16.996C78.7171 16.996 78.5958 17.152 78.4918 17.464C78.3878 17.776 78.2838 18.192 78.1798 18.712C78.0758 19.232 77.9978 19.5527 77.9458 19.674L77.5038 19.726C77.3478 19.726 77.0964 19.6653 76.7498 19.544C76.5938 19.3013 76.5158 19.0847 76.5158 18.894C76.5158 18.7553 76.5418 18.5993 76.5938 18.426C76.6284 18.3047 76.6804 18.062 76.7498 17.698C76.8364 17.334 76.9664 16.944 77.1398 16.528C77.1744 16.4413 77.2438 16.2853 77.3478 16.06C77.4518 15.8173 77.5038 15.5833 77.5038 15.358C77.6251 15.202 77.7204 15.0027 77.7898 14.76C77.8591 14.5 77.9198 14.3007 77.9718 14.162L78.4918 12.888C78.6651 12.4373 78.8038 12.056 78.9078 11.744C79.0291 11.432 79.0984 11.172 79.1158 10.964C79.1331 10.7213 79.2631 10.6 79.5058 10.6C79.7484 10.6 79.9911 10.704 80.2338 10.912C80.4938 11.12 80.6238 11.354 80.6238 11.614C80.6238 11.6833 80.6064 11.77 80.5718 11.874C80.5024 12.03 80.4331 12.212 80.3638 12.42C80.2944 12.628 80.2078 12.8533 80.1038 13.096C79.7051 14.2227 79.4451 14.916 79.3238 15.176C79.3064 15.228 79.2718 15.2887 79.2198 15.358C79.1678 15.41 79.1418 15.4707 79.1418 15.54C79.2111 15.6093 79.3584 15.644 79.5838 15.644C79.8958 15.644 80.1558 15.592 80.3638 15.488H81.8978C82.1578 15.644 82.3571 15.878 82.4958 16.19L82.8858 15.15C83.5098 13.538 83.8564 12.498 83.9258 12.03C83.9778 11.7527 84.1598 11.5187 84.4718 11.328C84.5758 11.38 84.7231 11.4407 84.9138 11.51C85.1218 11.5793 85.2864 11.6747 85.4078 11.796C85.5291 11.9 85.6071 12.0473 85.6418 12.238C85.6244 12.4113 85.5811 12.5933 85.5118 12.784C85.4424 12.9573 85.3991 13.07 85.3818 13.122C85.3298 13.278 85.1391 13.7633 84.8098 14.578C84.7578 14.7167 84.6191 15.0633 84.3938 15.618C84.1858 16.1553 84.0038 16.658 83.8478 17.126C83.7091 17.5767 83.6138 17.9753 83.5618 18.322C83.5098 18.5473 83.4231 18.868 83.3018 19.284C83.1978 19.6827 83.1198 19.9687 83.0678 20.142C83.0678 20.3673 82.9464 20.558 82.7038 20.714ZM88.4073 20.142C88.0953 20.2113 87.7573 20.116 87.3933 19.856C87.0293 19.596 86.8126 19.31 86.7433 18.998C86.726 18.9287 86.7173 18.816 86.7173 18.66C86.7173 18.0187 86.96 17.1953 87.4453 16.19C87.948 15.1673 88.5546 14.2313 89.2653 13.382C89.976 12.5153 90.626 11.9693 91.2153 11.744C91.5793 11.5533 91.8133 11.458 91.9173 11.458C92.0213 11.458 92.2553 11.5533 92.6193 11.744C92.862 11.8133 93.044 11.8913 93.1653 11.978C93.2866 12.0647 93.4426 12.238 93.6333 12.498C93.8586 12.9487 94.0233 13.5033 94.1273 14.162C94.2313 14.526 94.2833 14.786 94.2833 14.942C94.2833 15.0807 94.2313 15.202 94.1273 15.306C94.11 15.3233 94.0753 15.358 94.0233 15.41C93.9886 15.462 93.9713 15.5053 93.9713 15.54C93.9713 15.5573 93.9886 15.566 94.0233 15.566C94.0233 15.5833 94.0146 15.6267 93.9973 15.696C93.98 15.748 93.9453 15.826 93.8933 15.93C93.6853 16.5887 93.5813 17.152 93.5813 17.62C93.5813 17.776 93.5986 17.9407 93.6333 18.114C93.8066 18.5647 94.1013 18.79 94.5173 18.79C94.864 18.79 95.1933 18.634 95.5053 18.322C95.7826 18.1313 95.982 18.0013 96.1033 17.932C96.242 17.8453 96.3113 17.8627 96.3113 17.984C96.3286 18.0013 96.3633 18.0273 96.4153 18.062C96.4673 18.0967 96.5193 18.114 96.5713 18.114C96.6926 18.114 96.7533 18.192 96.7533 18.348C96.7533 18.504 96.6926 18.6773 96.5713 18.868C96.45 18.9893 96.3546 19.0933 96.2853 19.18C96.216 19.2667 96.1813 19.336 96.1813 19.388L95.7913 19.752C95.462 19.9427 95.072 20.038 94.6213 20.038C94.1533 20.038 93.7806 19.9427 93.5033 19.752C93.2606 19.5787 93.0266 19.3273 92.8013 18.998C92.576 18.6687 92.4286 18.374 92.3593 18.114L92.2293 17.854L91.4753 18.348C91.302 18.5213 91.1026 18.7033 90.8773 18.894C90.652 19.0673 90.5046 19.1887 90.4353 19.258C90.2966 19.4313 90.1753 19.518 90.0713 19.518H89.8113C89.8113 19.6393 89.638 19.778 89.2913 19.934C88.962 20.0727 88.6673 20.142 88.4073 20.142ZM88.1473 18.738C88.338 18.738 88.8233 18.4693 89.6033 17.932C90.3833 17.3773 90.8773 16.97 91.0853 16.71L91.8393 15.93C92.1166 15.618 92.3333 15.2627 92.4893 14.864C92.6626 14.4653 92.7493 14.1013 92.7493 13.772C92.7493 13.4773 92.706 13.2693 92.6193 13.148C92.55 12.94 92.446 12.836 92.3073 12.836C92.238 12.836 92.0386 12.8967 91.7093 13.018C91.38 13.226 90.912 13.7027 90.3053 14.448C89.716 15.1933 89.1873 15.9647 88.7193 16.762C88.2513 17.542 88.0173 18.114 88.0173 18.478C88.0173 18.53 88.0346 18.582 88.0693 18.634C88.104 18.686 88.13 18.7207 88.1473 18.738ZM97.8754 20.87C97.4767 20.87 97.182 20.7573 96.9914 20.532C96.8354 20.2893 96.7054 20.0207 96.6014 19.726C96.636 19.6047 96.6967 19.492 96.7834 19.388C96.87 19.2667 96.974 19.206 97.0954 19.206C97.1647 19.206 97.2427 19.232 97.3294 19.284C97.364 19.284 97.3987 19.3013 97.4334 19.336C97.468 19.3707 97.5114 19.4053 97.5634 19.44C98.1354 19.18 98.612 18.842 98.9934 18.426C99.392 18.01 99.834 17.4293 100.319 16.684C100.025 16.5973 99.73 16.4587 99.4354 16.268C99.158 16.0773 98.9587 15.878 98.8374 15.67C98.6814 15.41 98.5687 15.0893 98.4994 14.708C98.43 14.3267 98.3867 14.11 98.3694 14.058C98.4387 13.902 98.5427 13.5813 98.6814 13.096C98.7507 12.8187 98.8287 12.576 98.9154 12.368C99.002 12.16 99.1494 11.9173 99.3574 11.64C99.6174 11.2933 99.9814 10.9727 100.449 10.678C100.917 10.366 101.247 10.21 101.437 10.21C101.576 10.262 101.758 10.262 101.983 10.21C102.226 10.1407 102.399 10.1233 102.503 10.158C102.573 10.1753 102.633 10.184 102.685 10.184C102.737 10.1667 102.789 10.1667 102.841 10.184C103.361 10.288 103.769 10.4267 104.063 10.6C104.358 10.756 104.549 11.0247 104.635 11.406C104.601 11.5273 104.549 11.744 104.479 12.056C104.41 12.3507 104.332 12.6193 104.245 12.862C104.159 13.1047 104.055 13.33 103.933 13.538L103.621 14.188C103.309 14.812 103.041 15.2713 102.815 15.566L102.867 15.722C103.093 15.774 103.318 15.8173 103.543 15.852C103.786 15.8693 103.951 15.8867 104.037 15.904C104.245 15.956 104.445 16.06 104.635 16.216C104.826 16.372 104.956 16.476 105.025 16.528V16.632C105.025 16.736 104.991 16.8487 104.921 16.97C104.713 17.386 104.549 17.698 104.427 17.906C104.341 18.062 104.237 18.2613 104.115 18.504C103.994 18.7293 103.864 18.998 103.725 19.31C103.673 19.414 103.613 19.622 103.543 19.934C103.422 20.3153 103.353 20.532 103.335 20.584C103.145 20.7747 103.023 20.87 102.971 20.87C102.954 20.87 102.919 20.8613 102.867 20.844C102.815 20.8093 102.737 20.792 102.633 20.792C102.391 20.74 102.226 20.61 102.139 20.402C102.122 20.3327 102.079 20.246 102.009 20.142C101.957 20.0207 101.931 19.9167 101.931 19.83C101.931 19.6393 102.018 19.4053 102.191 19.128C102.278 18.9547 102.391 18.6947 102.529 18.348C102.599 18.1573 102.72 17.8713 102.893 17.49C102.928 17.4553 102.954 17.412 102.971 17.36C102.989 17.308 102.997 17.256 102.997 17.204H102.815L102.035 17.074C101.983 17.1087 101.888 17.178 101.749 17.282C101.611 17.3687 101.507 17.5073 101.437 17.698C101.368 17.7673 101.203 17.9753 100.943 18.322C100.77 18.5993 100.562 18.8593 100.319 19.102C99.7474 19.7087 99.288 20.1593 98.9414 20.454C98.56 20.7313 98.2047 20.87 97.8754 20.87ZM100.995 15.462C101.151 15.4273 101.446 15.1067 101.879 14.5C102.313 13.8933 102.555 13.512 102.607 13.356C102.677 13.2 102.798 12.888 102.971 12.42C103.145 11.952 103.275 11.5967 103.361 11.354C103.136 11.198 102.937 11.12 102.763 11.12C102.711 11.12 102.564 11.1547 102.321 11.224C101.021 11.6053 100.189 12.42 99.8254 13.668C99.7734 13.8933 99.7474 14.11 99.7474 14.318C99.7474 14.6647 99.8254 14.9593 99.9814 15.202C100.137 15.4273 100.354 15.54 100.631 15.54C100.753 15.54 100.874 15.514 100.995 15.462ZM5.122 44.844C5.03533 44.8787 4.81 44.8093 4.446 44.636C4.082 44.4453 3.81333 44.2547 3.64 44.064C3.46667 43.856 3.328 43.6653 3.224 43.492C3.13733 43.3187 3.094 43.1193 3.094 42.894C2.99 42.6513 2.92067 42.4087 2.886 42.166C2.86867 41.906 2.86 41.5767 2.86 41.178C2.86 40.814 2.92933 40.4587 3.068 40.112C3.20667 39.7653 3.39733 39.3493 3.64 38.864C3.796 38.4307 4.14267 37.902 4.68 37.278C5.23467 36.6367 5.81533 36.1687 6.422 35.874C6.90733 35.614 7.32333 35.484 7.67 35.484C7.878 35.484 8.07733 35.5187 8.268 35.588C8.476 35.64 8.632 35.7267 8.736 35.848C8.84 35.952 8.918 36.0213 8.97 36.056C9.10867 35.9173 9.23 35.6053 9.334 35.12C9.45533 34.6173 9.516 34.08 9.516 33.508C9.516 32.4333 9.334 31.6533 8.97 31.168C8.398 30.3533 7.73067 29.946 6.968 29.946C6.67333 29.946 6.30933 30.0327 5.876 30.206C5.65067 30.102 5.46 29.9287 5.304 29.686C5.148 29.4433 5.10467 29.2093 5.174 28.984C5.57267 28.6547 5.954 28.4553 6.318 28.386C6.66467 28.3167 6.916 28.282 7.072 28.282C7.36667 28.282 7.62667 28.3513 7.852 28.49C8.71867 28.7673 9.386 29.166 9.854 29.686C10.322 30.206 10.6427 30.8213 10.816 31.532C11.0067 32.2427 11.1193 33.1353 11.154 34.21C11.1713 34.366 11.18 34.574 11.18 34.834C11.18 35.0593 11.154 35.458 11.102 36.03C10.998 36.1687 10.9373 36.342 10.92 36.55C10.9027 36.758 10.894 36.8793 10.894 36.914C10.894 37.2607 10.8593 37.512 10.79 37.668C10.7727 37.8933 10.7033 38.136 10.582 38.396C10.4607 38.656 10.4 38.838 10.4 38.942C9.89733 40.3633 9.16933 41.6373 8.216 42.764C7.26267 43.8907 6.23133 44.584 5.122 44.844ZM4.966 43.154C5.20867 43.258 5.62467 43.0673 6.214 42.582C6.82067 42.0793 7.32333 41.542 7.722 40.97C7.826 40.814 7.99067 40.5193 8.216 40.086C8.44133 39.6353 8.606 39.2973 8.71 39.072C8.90067 38.552 8.996 38.084 8.996 37.668C8.996 37.3733 8.944 37.174 8.84 37.07C8.70133 36.9313 8.51933 36.862 8.294 36.862C7.86067 36.862 7.332 37.0787 6.708 37.512C6.5 37.668 6.292 37.8847 6.084 38.162C5.89333 38.422 5.772 38.5867 5.72 38.656C5.54667 38.9333 5.408 39.1327 5.304 39.254V39.306C5.304 39.4273 5.252 39.5313 5.148 39.618C5.06133 39.7047 5.00067 39.774 4.966 39.826C4.77533 40.19 4.63667 40.5627 4.55 40.944C4.46333 41.308 4.42 41.568 4.42 41.724C4.42 42.036 4.46333 42.3307 4.55 42.608C4.654 42.8853 4.79267 43.0673 4.966 43.154ZM13.56 44.61C13.352 44.61 13.1873 44.5753 13.066 44.506C12.9447 44.4367 12.7713 44.3067 12.546 44.116C11.974 43.5093 11.688 42.9547 11.688 42.452C11.688 42.3307 11.6967 42.244 11.714 42.192C11.766 42.0707 11.7833 41.9493 11.766 41.828C11.766 41.7067 11.766 41.6287 11.766 41.594C11.6967 41.5247 11.662 41.4813 11.662 41.464C11.662 41.4293 11.6793 41.4033 11.714 41.386C11.7487 41.3513 11.7747 41.3167 11.792 41.282C11.896 41.282 11.9307 41.1867 11.896 40.996C11.8613 40.8573 11.9307 40.554 12.104 40.086C12.2773 39.6007 12.494 39.1587 12.754 38.76C12.9447 38.448 13.222 38.058 13.586 37.59C13.9673 37.122 14.3053 36.7667 14.6 36.524C15.016 36.16 15.3887 35.8913 15.718 35.718C16.0473 35.5447 16.4113 35.4147 16.81 35.328C17.1567 35.2413 17.3907 35.198 17.512 35.198C17.6333 35.198 17.7373 35.2327 17.824 35.302C17.928 35.354 18.058 35.458 18.214 35.614C18.682 35.822 19.0027 36.0907 19.176 36.42C19.3667 36.732 19.462 37.226 19.462 37.902C19.462 39.0287 19.0027 40.2507 18.084 41.568C17.6853 42.14 17.3127 42.582 16.966 42.894C16.6193 43.1887 16.16 43.5093 15.588 43.856C15.224 44.116 14.886 44.3067 14.574 44.428C14.2793 44.532 13.9413 44.5927 13.56 44.61ZM16.056 41.854C16.472 41.386 16.8013 40.944 17.044 40.528C17.304 40.112 17.5467 39.5833 17.772 38.942C17.8587 38.6473 17.902 38.292 17.902 37.876C17.902 37.356 17.8327 37.0613 17.694 36.992C17.5207 36.9053 17.3473 36.862 17.174 36.862C16.7927 36.862 16.394 37.0353 15.978 37.382C15.4753 37.8153 15.0247 38.3527 14.626 38.994C14.2273 39.618 13.82 40.398 13.404 41.334C13.2307 41.698 13.144 42.0533 13.144 42.4C13.144 42.66 13.2047 42.868 13.326 43.024C13.4647 43.18 13.6467 43.258 13.872 43.258C14.444 43.258 15.172 42.79 16.056 41.854ZM23.662 44.402C23.1247 44.402 22.7694 44.376 22.596 44.324C22.4227 44.2547 22.2234 44.116 21.998 43.908C21.8247 43.5613 21.6514 43.3013 21.478 43.128C21.4087 42.9373 21.374 42.6513 21.374 42.27C21.374 41.8367 21.426 41.3687 21.53 40.866C21.634 40.346 21.7727 39.8607 21.946 39.41C22.0154 39.2713 22.0674 39.1413 22.102 39.02C22.154 38.8987 22.1887 38.8207 22.206 38.786C22.206 38.6647 22.4227 38.292 22.856 37.668C23.3067 37.0267 23.662 36.5847 23.922 36.342C24.0434 36.2033 24.2254 36.056 24.468 35.9C24.728 35.744 24.9534 35.6313 25.144 35.562C25.6294 35.3887 26.054 35.302 26.418 35.302C26.9207 35.302 27.3454 35.536 27.692 36.004C28.0734 36.3853 28.264 36.81 28.264 37.278C28.264 37.4513 28.238 37.642 28.186 37.85C28.0127 38.5433 27.7614 38.89 27.432 38.89C27.2067 38.89 26.99 38.76 26.782 38.5C26.7127 38.3267 26.678 38.214 26.678 38.162C26.678 38.11 26.7127 37.9627 26.782 37.72C26.8167 37.5467 26.834 37.4253 26.834 37.356C26.834 37.148 26.7994 36.966 26.73 36.81C26.6607 36.654 26.5654 36.576 26.444 36.576C26.0454 36.576 25.5254 36.9227 24.884 37.616C24.6587 37.8587 24.364 38.24 24 38.76C23.6534 39.28 23.3934 39.748 23.22 40.164C23.0467 40.684 22.908 41.1087 22.804 41.438C22.7 41.7673 22.6307 41.9753 22.596 42.062C22.596 42.0967 22.6134 42.1573 22.648 42.244C22.7 42.3307 22.726 42.4 22.726 42.452C22.726 42.5733 22.752 42.6687 22.804 42.738C22.856 42.8073 22.9514 42.8767 23.09 42.946C23.2807 43.0847 23.506 43.154 23.766 43.154C24.0434 43.154 24.364 43.0673 24.728 42.894C24.9534 42.79 25.274 42.5647 25.69 42.218L26.314 41.75C26.4354 41.6633 26.5394 41.594 26.626 41.542C26.73 41.4727 26.808 41.4293 26.86 41.412C26.912 41.3773 26.938 41.3773 26.938 41.412C26.938 41.4813 26.964 41.516 27.016 41.516C27.068 41.516 27.1287 41.4813 27.198 41.412C27.354 41.204 27.5534 41.1 27.796 41.1C27.9347 41.1 28.004 41.126 28.004 41.178L27.978 41.308C27.978 41.3947 28.0214 41.4813 28.108 41.568C28.108 41.6373 28.082 41.7327 28.03 41.854C27.9954 41.958 27.9434 42.0447 27.874 42.114C27.77 42.27 27.588 42.4607 27.328 42.686C27.0854 42.894 26.9207 43.0327 26.834 43.102H26.808C26.7214 43.102 26.6 43.18 26.444 43.336C26.184 43.5787 25.9587 43.7 25.768 43.7C25.6987 43.7347 25.6207 43.778 25.534 43.83C25.4474 43.8647 25.404 43.908 25.404 43.96C25.2307 44.1333 25.0227 44.2547 24.78 44.324C24.5374 44.376 24.1647 44.402 23.662 44.402ZM42.3713 42.738C42.4406 42.79 42.4753 42.868 42.4753 42.972C42.4753 43.0933 42.4319 43.2147 42.3453 43.336C42.2759 43.44 42.2066 43.492 42.1373 43.492C41.8079 43.492 41.4873 43.4053 41.1753 43.232C40.8806 43.0413 40.7333 42.7467 40.7333 42.348V40.736C40.7333 39.9213 40.6726 39.462 40.5513 39.358C40.2913 39.2193 39.8406 39.5053 39.1993 40.216C38.5753 40.9267 37.9686 41.7673 37.3793 42.738C37.1886 43.05 37.0326 43.2927 36.9113 43.466C36.7899 43.6393 36.6946 43.726 36.6253 43.726C36.5733 43.726 36.4866 43.6827 36.3653 43.596C35.8279 43.44 35.5593 43.1367 35.5593 42.686C35.5593 42.634 35.5766 42.5213 35.6113 42.348C35.7846 41.776 35.9579 41.1433 36.1313 40.45C36.3046 39.7393 36.4433 39.1413 36.5473 38.656C36.4953 38.552 36.4086 38.5 36.2873 38.5C36.1139 38.5 35.9146 38.5867 35.6893 38.76C35.2559 39.0547 34.7013 39.7567 34.0253 40.866C33.1759 42.166 32.5866 42.9547 32.2573 43.232C32.1359 43.44 32.0233 43.6047 31.9193 43.726C31.8326 43.83 31.7459 43.882 31.6593 43.882C31.5899 43.882 31.4599 43.83 31.2693 43.726C30.7666 43.4313 30.5153 43.0153 30.5153 42.478C30.5153 42.218 30.5933 41.698 30.7493 40.918C30.9053 40.138 31.0786 39.41 31.2693 38.734C31.4253 38.4393 31.5639 38.136 31.6853 37.824C31.8239 37.4947 31.8933 37.2953 31.8933 37.226C31.9626 36.862 32.0493 36.472 32.1533 36.056C32.2573 35.64 32.3353 35.406 32.3873 35.354C32.5086 35.2327 32.6473 35.172 32.8033 35.172C33.0633 35.172 33.2539 35.3107 33.3753 35.588C33.5659 35.7787 33.6613 36.0213 33.6613 36.316C33.6613 36.6453 33.5659 37.07 33.3753 37.59C33.0806 38.2313 32.7599 39.1673 32.4133 40.398C32.7773 39.9993 33.0373 39.6873 33.1933 39.462C33.6093 38.8727 34.1466 38.214 34.8053 37.486C35.3426 36.8967 35.9493 36.602 36.6253 36.602C37.4226 36.7407 37.8819 37.408 38.0033 38.604C38.0033 38.812 37.9859 39.072 37.9513 39.384C37.9166 39.6787 37.8906 39.8693 37.8733 39.956C37.9426 39.852 38.1159 39.6267 38.3933 39.28C38.6879 38.9333 39.0433 38.578 39.4593 38.214C39.8406 37.9193 40.1959 37.772 40.5253 37.772C40.8026 37.772 41.0453 37.8847 41.2533 38.11C41.6173 38.318 41.8773 38.6127 42.0333 38.994C42.1893 39.358 42.2673 39.826 42.2673 40.398C42.2673 40.6927 42.2586 40.9267 42.2413 41.1C42.2066 41.4467 42.1893 41.6633 42.1893 41.75C42.1893 42.0793 42.2499 42.4087 42.3713 42.738ZM46.8061 44.246C46.6328 44.2807 46.4768 44.298 46.3381 44.298C46.1128 44.298 45.9048 44.2807 45.7141 44.246C45.5234 44.194 45.4281 44.1333 45.4281 44.064C45.4281 44.012 45.4194 43.9773 45.4021 43.96C45.3848 43.9427 45.3501 43.934 45.2981 43.934C45.2808 43.9167 45.2288 43.8733 45.1421 43.804C45.0554 43.7347 44.9514 43.674 44.8301 43.622C44.6741 43.3793 44.5961 43.1193 44.5961 42.842C44.5961 42.5473 44.6741 42.088 44.8301 41.464C44.8821 40.9093 45.1421 40.216 45.6101 39.384C46.0781 38.552 46.6241 37.7633 47.2481 37.018C47.8894 36.2727 48.4614 35.7527 48.9641 35.458C49.2241 35.198 49.5534 35.068 49.9521 35.068C50.2641 35.068 50.5588 35.146 50.8361 35.302C51.0788 35.4407 51.3301 35.6747 51.5901 36.004C51.8674 36.3333 52.0841 36.6713 52.2401 37.018C52.3094 37.278 52.3441 37.5293 52.3441 37.772C52.3441 38.032 52.3094 38.4393 52.2401 38.994C52.1534 39.306 52.0754 39.6873 52.0061 40.138C51.9541 40.5887 51.9281 40.9787 51.9281 41.308C51.8934 41.5507 51.9108 41.75 51.9801 41.906C52.0494 42.0447 52.1448 42.114 52.2661 42.114C52.3528 42.114 52.4481 42.088 52.5521 42.036C52.7254 41.9493 52.9161 41.906 53.1241 41.906C53.3148 41.906 53.4708 41.958 53.5921 42.062C53.7134 42.166 53.7741 42.322 53.7741 42.53C53.7741 42.842 53.5574 43.154 53.1241 43.466C52.7081 43.778 52.3094 43.934 51.9281 43.934C51.6681 43.934 51.4254 43.7347 51.2001 43.336C50.9921 42.92 50.7841 42.3913 50.5761 41.75L50.4201 41.152L49.3021 42.218L48.7041 42.816C48.4268 43.0933 48.2708 43.258 48.2361 43.31C48.0454 43.6393 47.5688 43.9513 46.8061 44.246ZM46.8841 42.712C47.3001 42.4693 47.8114 42.0447 48.4181 41.438C49.0248 40.8313 49.5274 40.2507 49.9261 39.696C50.4634 38.9853 50.8014 38.2833 50.9401 37.59C50.8708 37.382 50.7581 37.174 50.6021 36.966C50.4461 36.758 50.3074 36.6453 50.1861 36.628C49.8394 36.628 49.4754 36.8273 49.0941 37.226C48.7128 37.6247 48.2621 38.1793 47.7421 38.89L46.8841 40.164C46.7801 40.3027 46.5981 40.6753 46.3381 41.282C46.0781 41.8713 45.9481 42.2267 45.9481 42.348C45.9481 42.7293 46.0608 42.92 46.2861 42.92C46.4594 42.92 46.6588 42.8507 46.8841 42.712ZM57.2936 44.922C57.2416 44.922 57.0683 44.9307 56.7736 44.948C56.4963 44.948 56.2276 44.8873 55.9676 44.766C55.7076 44.6273 55.491 44.4193 55.3176 44.142C55.1963 43.9167 55.0923 43.6567 55.0056 43.362C54.919 43.0673 54.8756 42.816 54.8756 42.608C54.8756 42.5213 54.893 42.426 54.9276 42.322C55.257 40.4153 55.5256 39.2107 55.7336 38.708L56.1496 37.694C56.2363 37.4167 56.2623 37.1047 56.2276 36.758V36.654C56.2276 36.4287 56.3143 36.238 56.4876 36.082C56.7823 35.8567 57.0163 35.562 57.1896 35.198C57.311 34.9033 57.5016 34.5047 57.7616 34.002C58.0216 33.4993 58.2123 33.17 58.3336 33.014C58.5243 32.754 58.6976 32.5027 58.8536 32.26C58.8883 32.208 59.0096 32.026 59.2176 31.714C59.443 31.3847 59.6943 31.1073 59.9716 30.882C60.301 30.3273 60.951 29.66 61.9216 28.88C62.3376 28.5333 62.5976 28.308 62.7016 28.204C62.7536 28.152 62.9096 28.1 63.1696 28.048C63.4296 27.9787 63.5943 27.9353 63.6636 27.918C63.8023 27.8833 64.0363 27.8227 64.3656 27.736C64.4696 27.684 64.6603 27.7273 64.9376 27.866C65.2323 27.9873 65.449 28.126 65.5876 28.282C65.865 28.7673 66.0036 29.1487 66.0036 29.426C66.0036 29.6513 65.9516 29.9027 65.8476 30.18C65.7436 30.4573 65.5443 30.908 65.2496 31.532C64.6256 32.78 63.4903 33.9673 61.8436 35.094C61.2196 35.6487 60.5176 36.134 59.7376 36.55C59.1656 36.8447 58.6976 37.0527 58.3336 37.174C58.0563 37.2607 57.857 37.46 57.7356 37.772C57.6663 37.928 57.6056 38.1187 57.5536 38.344C57.519 38.5693 57.467 38.7167 57.3976 38.786C57.2936 38.89 57.1203 39.4707 56.8776 40.528C56.635 41.5853 56.5136 42.3047 56.5136 42.686C56.5136 42.8247 56.531 42.946 56.5656 43.05C56.6003 43.154 56.6783 43.232 56.7996 43.284C57.0423 43.232 57.233 43.154 57.3716 43.05C57.5276 42.9287 57.7183 42.738 57.9436 42.478C58.429 41.8713 58.7756 41.2907 58.9836 40.736C59.0356 40.58 59.0876 40.3807 59.1396 40.138C59.1916 39.878 59.2523 39.6787 59.3216 39.54C59.3216 38.9333 59.313 38.5433 59.2956 38.37C59.2783 38.1793 59.2176 37.954 59.1136 37.694C59.2003 37.642 59.2696 37.59 59.3216 37.538C59.391 37.4687 59.4776 37.4427 59.5816 37.46C59.9803 37.5467 60.3876 37.7893 60.8036 38.188C60.925 38.3093 60.9596 38.4567 60.9076 38.63C60.8383 39.1847 60.8036 39.5833 60.8036 39.826C60.7516 39.9473 60.665 40.216 60.5436 40.632C60.5263 40.8573 60.4743 41.074 60.3876 41.282C60.0756 41.9233 59.8503 42.3567 59.7116 42.582C59.3303 43.2927 58.8103 43.8993 58.1516 44.402L57.2936 44.922ZM58.4896 35.328C58.5763 35.3453 58.6803 35.354 58.8016 35.354C58.975 35.354 59.1223 35.2673 59.2436 35.094C60.509 34.262 61.575 33.456 62.4416 32.676C63.3256 31.8787 63.8716 31.2027 64.0796 30.648C64.149 30.5093 64.2443 30.336 64.3656 30.128C64.487 29.9027 64.565 29.6947 64.5996 29.504L64.4956 28.776C63.993 29.0013 63.5943 29.218 63.2996 29.426C63.0223 29.6167 62.667 29.9287 62.2336 30.362C61.8003 30.7953 61.1416 31.5753 60.2576 32.702C59.391 33.8287 58.8016 34.704 58.4896 35.328ZM63.1893 44.87C62.9813 44.8007 62.7647 44.6013 62.5393 44.272C62.314 43.9253 62.2013 43.6133 62.2013 43.336L62.5653 42.244L63.0593 40.684C63.2153 40.4587 63.3367 40.19 63.4233 39.878C63.5273 39.5487 63.588 39.358 63.6053 39.306C63.7787 38.9767 64.1253 38.1793 64.6453 36.914L65.1393 35.718L65.3473 35.224C65.4513 34.964 65.5207 34.756 65.5553 34.6C65.5553 34.4613 65.59 34.3487 65.6593 34.262C65.7287 34.158 65.798 34.106 65.8673 34.106C65.954 34.0193 66.1187 33.976 66.3613 33.976C66.552 33.976 66.7167 34.0973 66.8553 34.34C66.994 34.5827 67.0633 34.8167 67.0633 35.042C67.0633 35.2327 66.9767 35.536 66.8033 35.952C66.6473 36.368 66.474 36.784 66.2833 37.2C66.1273 37.5293 65.9887 37.8413 65.8673 38.136C65.7633 38.4133 65.7373 38.578 65.7893 38.63C65.8587 38.5953 66.006 38.526 66.2313 38.422C66.4567 38.3007 66.6907 38.1533 66.9333 37.98C67.0893 37.8933 67.2367 37.8067 67.3753 37.72C67.514 37.616 67.6353 37.5293 67.7393 37.46C68.2767 37.096 68.606 36.8967 68.7273 36.862C68.8313 36.7927 69.0307 36.6713 69.3253 36.498C69.6373 36.29 69.802 36.1773 69.8193 36.16C70.0273 36.056 70.2007 36.004 70.3393 36.004C70.4433 36.004 70.5387 36.0387 70.6253 36.108C70.712 36.1773 70.816 36.2813 70.9373 36.42C71.0413 36.5413 71.0933 36.6627 71.0933 36.784C71.0933 36.9053 71.024 37.0353 70.8853 37.174C70.7467 37.2953 70.5127 37.46 70.1833 37.668C69.958 37.824 69.724 37.9713 69.4813 38.11C69.2387 38.2487 69.0047 38.3873 68.7793 38.526C67.5313 39.2887 66.89 39.696 66.8553 39.748C66.89 39.8173 66.968 39.9733 67.0893 40.216C67.228 40.4587 67.358 40.6667 67.4793 40.84L67.8693 41.516C68.0773 41.8107 68.1813 42.0013 68.1813 42.088C68.3373 42.5213 68.5453 42.8593 68.8053 43.102C69.0827 43.3447 69.3773 43.466 69.6893 43.466C69.8453 43.466 70.0273 43.4227 70.2353 43.336C70.4953 43.232 70.7033 43.18 70.8593 43.18C71.102 43.18 71.2667 43.3187 71.3533 43.596C71.4053 43.7 71.4313 43.778 71.4313 43.83C71.4313 43.8993 71.31 44.0553 71.0673 44.298C70.6167 44.7487 70.1573 44.974 69.6893 44.974C69.5333 44.974 69.3513 44.9307 69.1433 44.844C68.8833 44.8613 68.554 44.688 68.1553 44.324C67.774 43.96 67.2367 43.3273 66.5433 42.426C66.5433 42.3567 66.448 42.1313 66.2573 41.75C66.188 41.594 66.11 41.4553 66.0233 41.334C65.9367 41.1953 65.876 41.1 65.8413 41.048C65.8413 40.9787 65.798 40.892 65.7113 40.788C65.642 40.6667 65.59 40.5713 65.5553 40.502C65.3647 40.45 65.2087 40.4673 65.0873 40.554C64.9833 40.6407 64.8793 40.762 64.7753 40.918C64.6887 41.074 64.6193 41.1867 64.5673 41.256C64.394 41.7067 64.2207 42.2613 64.0473 42.92C63.874 43.5613 63.8133 43.9773 63.8653 44.168C63.8653 44.4453 63.822 44.636 63.7353 44.74C63.6487 44.8267 63.4667 44.87 63.1893 44.87ZM73.9854 44.142C73.6734 44.2113 73.3354 44.116 72.9714 43.856C72.6074 43.596 72.3908 43.31 72.3214 42.998C72.3041 42.9287 72.2954 42.816 72.2954 42.66C72.2954 42.0187 72.5381 41.1953 73.0234 40.19C73.5261 39.1673 74.1328 38.2313 74.8434 37.382C75.5541 36.5153 76.2041 35.9693 76.7934 35.744C77.1574 35.5533 77.3914 35.458 77.4954 35.458C77.5994 35.458 77.8334 35.5533 78.1974 35.744C78.4401 35.8133 78.6221 35.8913 78.7434 35.978C78.8648 36.0647 79.0208 36.238 79.2114 36.498C79.4368 36.9487 79.6014 37.5033 79.7054 38.162C79.8094 38.526 79.8614 38.786 79.8614 38.942C79.8614 39.0807 79.8094 39.202 79.7054 39.306C79.6881 39.3233 79.6534 39.358 79.6014 39.41C79.5668 39.462 79.5494 39.5053 79.5494 39.54C79.5494 39.5573 79.5668 39.566 79.6014 39.566C79.6014 39.5833 79.5928 39.6267 79.5754 39.696C79.5581 39.748 79.5234 39.826 79.4714 39.93C79.2634 40.5887 79.1594 41.152 79.1594 41.62C79.1594 41.776 79.1768 41.9407 79.2114 42.114C79.3848 42.5647 79.6794 42.79 80.0954 42.79C80.4421 42.79 80.7714 42.634 81.0834 42.322C81.3608 42.1313 81.5601 42.0013 81.6814 41.932C81.8201 41.8453 81.8894 41.8627 81.8894 41.984C81.9068 42.0013 81.9414 42.0273 81.9934 42.062C82.0454 42.0967 82.0974 42.114 82.1494 42.114C82.2708 42.114 82.3314 42.192 82.3314 42.348C82.3314 42.504 82.2708 42.6773 82.1494 42.868C82.0281 42.9893 81.9328 43.0933 81.8634 43.18C81.7941 43.2667 81.7594 43.336 81.7594 43.388L81.3694 43.752C81.0401 43.9427 80.6501 44.038 80.1994 44.038C79.7314 44.038 79.3588 43.9427 79.0814 43.752C78.8388 43.5787 78.6048 43.3273 78.3794 42.998C78.1541 42.6687 78.0068 42.374 77.9374 42.114L77.8074 41.854L77.0534 42.348C76.8801 42.5213 76.6808 42.7033 76.4554 42.894C76.2301 43.0673 76.0828 43.1887 76.0134 43.258C75.8748 43.4313 75.7534 43.518 75.6494 43.518H75.3894C75.3894 43.6393 75.2161 43.778 74.8694 43.934C74.5401 44.0727 74.2454 44.142 73.9854 44.142ZM73.7254 42.738C73.9161 42.738 74.4014 42.4693 75.1814 41.932C75.9614 41.3773 76.4554 40.97 76.6634 40.71L77.4174 39.93C77.6948 39.618 77.9114 39.2627 78.0674 38.864C78.2408 38.4653 78.3274 38.1013 78.3274 37.772C78.3274 37.4773 78.2841 37.2693 78.1974 37.148C78.1281 36.94 78.0241 36.836 77.8854 36.836C77.8161 36.836 77.6168 36.8967 77.2874 37.018C76.9581 37.226 76.4901 37.7027 75.8834 38.448C75.2941 39.1933 74.7654 39.9647 74.2974 40.762C73.8294 41.542 73.5954 42.114 73.5954 42.478C73.5954 42.53 73.6128 42.582 73.6474 42.634C73.6821 42.686 73.7081 42.7207 73.7254 42.738ZM8.814 68.948C8.398 68.5493 8.086 67.96 7.878 67.18C7.84333 67.076 7.826 66.894 7.826 66.634C7.826 66.374 7.826 66.192 7.826 66.088C7.722 66.348 7.53133 66.582 7.254 66.79C6.85533 67.1887 6.45667 67.4833 6.058 67.674C5.45133 68.0727 4.95733 68.272 4.576 68.272C4.22933 68.272 3.9 68.0813 3.588 67.7C3.36267 67.5093 3.18933 67.3187 3.068 67.128C2.964 66.9373 2.912 66.7033 2.912 66.426C2.912 66.2353 2.938 66.0273 2.99 65.802C3.02467 65.1607 3.11133 64.5453 3.25 63.956C3.406 63.3667 3.692 62.6127 4.108 61.694C4.66267 60.602 5.06133 59.874 5.304 59.51C5.39067 59.4753 5.50333 59.458 5.642 59.458C5.81533 59.458 5.954 59.51 6.058 59.614C6.17933 59.718 6.24867 59.8567 6.266 60.03C6.318 60.0993 6.344 60.1947 6.344 60.316C6.344 60.7493 6.084 61.46 5.564 62.448C4.888 64.0773 4.55 65.204 4.55 65.828C4.55 66.192 4.654 66.4087 4.862 66.478C4.94867 66.53 5.044 66.556 5.148 66.556C5.58133 66.556 6.10133 66.2613 6.708 65.672C7.31467 65.0827 7.89533 64.138 8.45 62.838C8.69267 62.2487 8.84 61.642 8.892 61.018C8.87467 60.966 8.866 60.888 8.866 60.784C8.866 60.472 9.022 60.2207 9.334 60.03C9.40333 59.926 9.49867 59.848 9.62 59.796C9.74133 59.7267 9.81933 59.7267 9.854 59.796L10.27 59.77C10.322 59.7527 10.374 59.8047 10.426 59.926C10.478 60.03 10.53 60.0993 10.582 60.134C10.7033 60.238 10.764 60.4287 10.764 60.706C10.764 61.278 10.5127 62.1533 10.01 63.332C9.68067 64.0253 9.45533 64.5627 9.334 64.944C9.23 65.308 9.16933 65.6633 9.152 66.01C9.152 66.6687 9.40333 67.2147 9.906 67.648C10.0793 67.7693 10.1833 67.8993 10.218 68.038C10.2527 68.1767 10.2613 68.3673 10.244 68.61C10.2093 68.766 10.1053 68.896 9.932 69C9.776 69.0867 9.60267 69.13 9.412 69.13C9.18667 69.13 8.98733 69.0693 8.814 68.948ZM25.9819 59.354C26.1206 59.6313 26.1899 59.9347 26.1899 60.264C26.1899 60.784 26.0513 61.252 25.7739 61.668C25.6006 61.9107 25.4446 62.2747 25.3059 62.76C25.1846 63.2453 25.0633 63.8953 24.9419 64.71C24.7859 65.3687 24.5953 66.3827 24.3699 67.752C24.0926 68.48 23.9193 69.026 23.8499 69.39C23.8326 69.494 23.7459 69.7107 23.5899 70.04C23.4513 70.3693 23.3386 70.6293 23.2519 70.82C22.5759 72.224 21.8046 73.2987 20.9379 74.044C20.0713 74.7893 19.1266 75.1967 18.1039 75.266C17.8266 75.3007 17.6619 75.318 17.6099 75.318C17.4539 75.318 17.3066 75.292 17.1679 75.24C17.0466 75.188 16.9079 75.1187 16.7519 75.032C16.6826 74.9973 16.5873 74.9367 16.4659 74.85C16.3446 74.7633 16.2579 74.694 16.2059 74.642C16.1713 74.6073 16.1539 74.564 16.1539 74.512C16.1539 74.4253 16.2059 74.3387 16.3099 74.252C16.4139 74.1653 16.5786 74.122 16.8039 74.122C16.9253 74.1913 17.1333 74.226 17.4279 74.226C17.7226 74.226 17.8959 74.1913 17.9479 74.122C17.9826 74.0873 18.0866 74.0267 18.2599 73.94C18.4333 73.8707 18.6326 73.81 18.8579 73.758C19.3953 73.498 19.8719 73.16 20.2879 72.744C20.7213 72.3453 21.1199 71.834 21.4839 71.21C21.9173 70.5513 22.2033 69.9533 22.3419 69.416C22.4979 69.052 22.6713 68.532 22.8619 67.856C23.0699 67.1627 23.2346 66.5387 23.3559 65.984L23.0179 66.296C22.9313 66.4 22.7146 66.556 22.3679 66.764C22.0213 66.9547 21.8133 67.05 21.7439 67.05C21.7266 67.05 21.7006 67.0587 21.6659 67.076C21.6313 67.0933 21.6139 67.128 21.6139 67.18C21.6139 67.2493 21.3886 67.362 20.9379 67.518C20.4873 67.6567 20.2013 67.726 20.0799 67.726C19.9066 67.726 19.7159 67.6393 19.5079 67.466C19.3173 67.2753 19.1786 67.0933 19.0919 66.92C19.0399 66.7987 18.9706 66.66 18.8839 66.504C18.7973 66.348 18.7279 66.2007 18.6759 66.062C18.6239 65.906 18.5979 65.7327 18.5979 65.542C18.5979 65.3167 18.6153 65.1433 18.6499 65.022C18.8579 64.242 19.2046 63.1413 19.6899 61.72C20.1926 60.2987 20.5739 59.3887 20.8339 58.99C20.9726 58.7993 21.1373 58.704 21.3279 58.704C21.5879 58.704 21.7959 58.8427 21.9519 59.12C22.1079 59.328 22.1859 59.5013 22.1859 59.64C22.1859 59.744 22.1426 59.8913 22.0559 60.082C21.9693 60.2727 21.8566 60.498 21.7179 60.758C21.6486 60.9487 21.5619 61.1567 21.4579 61.382C21.3539 61.6073 21.3019 61.746 21.3019 61.798C21.2846 61.8673 21.2326 62.084 21.1459 62.448C21.0593 62.7947 20.9813 62.968 20.9119 62.968C20.7906 63.072 20.6606 63.4707 20.5219 64.164C20.3833 64.8573 20.3139 65.3947 20.3139 65.776C20.3139 65.9667 20.3399 66.062 20.3919 66.062C21.4146 66.062 22.5239 65.2993 23.7199 63.774C23.8759 63.0113 24.0146 62.37 24.1359 61.85C24.3613 60.966 24.5346 60.1773 24.6559 59.484C24.7599 59.2413 24.8379 59.1027 24.8899 59.068C24.9419 59.016 25.0546 58.99 25.2279 58.99C25.4359 58.99 25.5833 59.0073 25.6699 59.042C25.7566 59.0767 25.8606 59.1807 25.9819 59.354ZM30.2153 68.714C29.9726 68.7487 29.7906 68.766 29.6693 68.766C29.0279 68.766 28.4993 68.5667 28.0833 68.168C27.6673 67.7693 27.4593 67.2147 27.4593 66.504C27.3899 65.7413 27.5546 64.7967 27.9533 63.67C28.3693 62.5433 28.8893 61.5987 29.5133 60.836C29.9466 60.3333 30.3193 59.926 30.6313 59.614C30.9433 59.302 31.2293 59.094 31.4893 58.99C31.8533 58.834 32.2606 58.756 32.7113 58.756C33.0233 58.8253 33.3266 58.9553 33.6213 59.146C33.9333 59.3367 34.0893 59.5273 34.0893 59.718L34.2193 59.848C34.3233 59.848 34.4186 59.978 34.5053 60.238C34.5919 60.4807 34.6353 60.7493 34.6353 61.044C34.6353 61.2867 34.5919 61.4947 34.5053 61.668C34.4359 61.9973 34.3146 62.2833 34.1413 62.526C33.9853 62.7687 33.8293 62.89 33.6733 62.89C33.4826 62.89 33.3873 62.942 33.3873 63.046C33.3873 63.1153 33.3526 63.15 33.2833 63.15C33.1966 63.15 33.0926 63.098 32.9713 62.994C32.8499 62.89 32.7633 62.7687 32.7113 62.63C32.7113 62.578 32.7459 62.4307 32.8153 62.188C32.8846 61.9453 32.9539 61.6767 33.0233 61.382C33.0753 61.174 33.1013 60.992 33.1013 60.836C33.1013 60.4893 32.9713 60.316 32.7113 60.316C32.5726 60.316 32.4339 60.3507 32.2953 60.42C31.6019 60.8013 30.9866 61.408 30.4493 62.24C29.9119 63.072 29.4613 64.216 29.0973 65.672C29.0106 66.0533 28.9673 66.3567 28.9673 66.582C28.9673 66.7553 28.9759 66.894 28.9933 66.998C29.0279 67.102 29.0626 67.1627 29.0973 67.18C29.1839 67.2147 29.3659 67.232 29.6433 67.232C30.2846 67.232 30.7353 67.154 30.9953 66.998C31.5499 66.7033 32.1653 66.3047 32.8413 65.802C32.9106 65.75 33.0146 65.6633 33.1533 65.542C33.2919 65.4033 33.4219 65.308 33.5433 65.256C33.6646 65.0653 33.7773 64.9527 33.8813 64.918C33.9853 64.866 34.1499 64.84 34.3753 64.84C34.6006 64.9093 34.7826 65.0047 34.9213 65.126C35.0599 65.23 35.0599 65.3167 34.9213 65.386C34.8693 65.386 34.8346 65.4033 34.8173 65.438C34.7999 65.4727 34.7913 65.4987 34.7913 65.516C34.8259 65.6027 34.6873 65.8193 34.3753 66.166C34.0633 66.5127 33.7166 66.842 33.3353 67.154C32.9539 67.4487 32.6939 67.596 32.5553 67.596C32.4859 67.596 32.4253 67.6047 32.3733 67.622C32.3213 67.6393 32.2953 67.6827 32.2953 67.752C32.2953 67.8213 32.0266 67.986 31.4893 68.246C30.9693 68.4887 30.5446 68.6447 30.2153 68.714ZM37.3514 68.038C37.2128 67.8647 37.1434 67.6913 37.1434 67.518C37.1434 67.3793 37.1001 67.31 37.0134 67.31C36.9094 67.206 37.1088 66.6167 37.6114 65.542C38.1141 64.45 38.5474 63.618 38.9114 63.046C38.9808 62.994 39.0328 62.9247 39.0674 62.838C39.1021 62.734 39.1021 62.682 39.0674 62.682C39.1021 62.63 39.1541 62.5433 39.2234 62.422C39.2928 62.3007 39.3621 62.1967 39.4314 62.11C39.7261 61.538 39.8474 61.0787 39.7954 60.732C39.7261 60.6627 39.6481 60.6367 39.5614 60.654C39.4921 60.6713 39.4488 60.6887 39.4314 60.706C39.3968 60.7233 39.3014 60.758 39.1454 60.81C39.0068 60.8447 38.8854 60.8967 38.7814 60.966C38.3828 61.226 38.1314 61.356 38.0274 61.356C37.9234 61.356 37.8281 61.304 37.7414 61.2C37.6721 61.096 37.5941 60.9227 37.5074 60.68C37.4554 60.524 37.4294 60.4113 37.4294 60.342C37.4294 60.2207 37.4988 60.0993 37.6374 59.978C37.7414 59.874 37.8628 59.796 38.0014 59.744C38.1574 59.6747 38.2614 59.6227 38.3134 59.588C38.6774 59.38 38.9374 59.2587 39.0934 59.224C39.4054 59.1373 39.6568 59.094 39.8474 59.094C40.3674 59.094 40.7314 59.3367 40.9394 59.822C41.1821 60.1167 41.3034 60.4547 41.3034 60.836C41.3034 61.1653 41.1821 61.59 40.9394 62.11L40.6794 62.5C40.6274 62.604 40.6014 62.6733 40.6014 62.708C40.6014 62.7427 40.6101 62.76 40.6274 62.76C40.6968 62.76 40.7748 62.6993 40.8614 62.578C40.9481 62.4913 41.0608 62.3873 41.1994 62.266C41.3381 62.1273 41.4334 62.058 41.4854 62.058C41.5028 62.058 41.5288 62.0493 41.5634 62.032C41.5981 61.9973 41.6154 61.928 41.6154 61.824L41.8754 61.59C41.9448 61.59 42.1528 61.4427 42.4994 61.148L42.9934 60.758C43.1841 60.6193 43.3574 60.55 43.5134 60.55C43.5654 60.5327 43.6434 60.524 43.7474 60.524C44.0768 60.524 44.3454 60.706 44.5534 61.07C44.7614 61.4167 44.8654 61.8673 44.8654 62.422L44.3194 63.826L45.2554 62.682C45.4114 62.4913 45.6194 62.2833 45.8794 62.058C45.9141 61.954 45.9574 61.8933 46.0094 61.876C46.0788 61.8413 46.1221 61.824 46.1394 61.824C46.1568 61.824 46.1741 61.8153 46.1914 61.798C46.2261 61.7807 46.2434 61.7547 46.2434 61.72C46.3128 61.668 46.3994 61.6073 46.5034 61.538C46.6248 61.4513 46.7028 61.382 46.7374 61.33C46.8934 61.2607 47.0668 61.226 47.2574 61.226C47.6214 61.226 47.9248 61.46 48.1674 61.928C48.2714 62.1187 48.3321 62.292 48.3494 62.448C48.3841 62.5867 48.4014 62.8293 48.4014 63.176C48.3321 63.5573 48.2714 63.956 48.2194 64.372C48.2194 64.4413 48.2021 64.6147 48.1674 64.892C48.0808 65.0827 48.0374 65.3773 48.0374 65.776C48.0374 66.0187 48.0461 66.1747 48.0634 66.244C48.0981 66.3133 48.1674 66.348 48.2714 66.348C48.5314 66.296 48.8694 66.1747 49.2854 65.984C49.7188 65.776 50.0308 65.5767 50.2214 65.386C50.4814 65.126 50.7154 64.996 50.9234 64.996C51.1141 64.996 51.2354 65.1 51.2874 65.308C51.3394 65.412 51.2008 65.6893 50.8714 66.14C50.5594 66.5907 50.3428 66.816 50.2214 66.816C50.1868 66.816 50.1174 66.868 50.0134 66.972C49.9268 67.076 49.8574 67.1453 49.8054 67.18C49.5108 67.5093 49.2681 67.674 49.0774 67.674C49.0081 67.674 48.9128 67.7 48.7914 67.752C48.6874 67.7867 48.5921 67.804 48.5054 67.804C48.4708 67.8213 48.3841 67.83 48.2454 67.83C47.9854 67.83 47.7341 67.7607 47.4914 67.622C47.2488 67.4833 47.0928 67.2753 47.0234 66.998C46.8848 66.6513 46.8154 66.166 46.8154 65.542C46.8154 65.386 46.8328 65.1347 46.8674 64.788L46.9974 63.982C47.0321 63.6527 47.0668 63.4533 47.1014 63.384V63.15C47.1014 62.8553 47.0754 62.708 47.0234 62.708C46.8848 62.708 46.4254 63.1587 45.6454 64.06C44.8654 64.944 44.2674 65.7067 43.8514 66.348C43.7301 66.504 43.5914 66.738 43.4354 67.05C43.2968 67.3447 43.2101 67.5007 43.1754 67.518C43.1061 67.5873 43.0281 67.622 42.9414 67.622C42.8374 67.622 42.7248 67.57 42.6034 67.466C42.4821 67.362 42.3781 67.232 42.2914 67.076C42.2221 66.9027 42.1874 66.7727 42.1874 66.686C42.1874 66.5647 42.2394 66.3307 42.3434 65.984C42.4474 65.62 42.5948 65.1433 42.7854 64.554C42.9761 63.982 43.1321 63.488 43.2534 63.072C43.3921 62.656 43.4788 62.3787 43.5134 62.24C43.5134 62.1187 43.0801 62.4307 42.2134 63.176C42.0401 63.384 41.8408 63.6007 41.6154 63.826C41.2168 64.242 40.7661 64.7273 40.2634 65.282C39.7781 65.8367 39.3534 66.3653 38.9894 66.868C38.6081 67.388 38.3221 67.752 38.1314 67.96C37.9581 68.168 37.8108 68.272 37.6894 68.272C37.6028 68.272 37.4901 68.194 37.3514 68.038ZM54.1554 68.142C53.8434 68.2113 53.5054 68.116 53.1414 67.856C52.7774 67.596 52.5607 67.31 52.4914 66.998C52.474 66.9287 52.4654 66.816 52.4654 66.66C52.4654 66.0187 52.708 65.1953 53.1934 64.19C53.696 63.1673 54.3027 62.2313 55.0134 61.382C55.724 60.5153 56.374 59.9693 56.9634 59.744C57.3274 59.5533 57.5614 59.458 57.6654 59.458C57.7694 59.458 58.0034 59.5533 58.3674 59.744C58.61 59.8133 58.792 59.8913 58.9134 59.978C59.0347 60.0647 59.1907 60.238 59.3814 60.498C59.6067 60.9487 59.7714 61.5033 59.8754 62.162C59.9794 62.526 60.0314 62.786 60.0314 62.942C60.0314 63.0807 59.9794 63.202 59.8754 63.306C59.858 63.3233 59.8234 63.358 59.7714 63.41C59.7367 63.462 59.7194 63.5053 59.7194 63.54C59.7194 63.5573 59.7367 63.566 59.7714 63.566C59.7714 63.5833 59.7627 63.6267 59.7454 63.696C59.728 63.748 59.6934 63.826 59.6414 63.93C59.4334 64.5887 59.3294 65.152 59.3294 65.62C59.3294 65.776 59.3467 65.9407 59.3814 66.114C59.5547 66.5647 59.8494 66.79 60.2654 66.79C60.612 66.79 60.9414 66.634 61.2534 66.322C61.5307 66.1313 61.73 66.0013 61.8514 65.932C61.99 65.8453 62.0594 65.8627 62.0594 65.984C62.0767 66.0013 62.1114 66.0273 62.1634 66.062C62.2154 66.0967 62.2674 66.114 62.3194 66.114C62.4407 66.114 62.5014 66.192 62.5014 66.348C62.5014 66.504 62.4407 66.6773 62.3194 66.868C62.198 66.9893 62.1027 67.0933 62.0334 67.18C61.964 67.2667 61.9294 67.336 61.9294 67.388L61.5394 67.752C61.21 67.9427 60.82 68.038 60.3694 68.038C59.9014 68.038 59.5287 67.9427 59.2514 67.752C59.0087 67.5787 58.7747 67.3273 58.5494 66.998C58.324 66.6687 58.1767 66.374 58.1074 66.114L57.9774 65.854L57.2234 66.348C57.05 66.5213 56.8507 66.7033 56.6254 66.894C56.4 67.0673 56.2527 67.1887 56.1834 67.258C56.0447 67.4313 55.9234 67.518 55.8194 67.518H55.5594C55.5594 67.6393 55.386 67.778 55.0394 67.934C54.71 68.0727 54.4154 68.142 54.1554 68.142ZM53.8954 66.738C54.086 66.738 54.5714 66.4693 55.3514 65.932C56.1314 65.3773 56.6254 64.97 56.8334 64.71L57.5874 63.93C57.8647 63.618 58.0814 63.2627 58.2374 62.864C58.4107 62.4653 58.4974 62.1013 58.4974 61.772C58.4974 61.4773 58.454 61.2693 58.3674 61.148C58.298 60.94 58.194 60.836 58.0554 60.836C57.986 60.836 57.7867 60.8967 57.4574 61.018C57.128 61.226 56.66 61.7027 56.0534 62.448C55.464 63.1933 54.9354 63.9647 54.4674 64.762C53.9994 65.542 53.7654 66.114 53.7654 66.478C53.7654 66.53 53.7827 66.582 53.8174 66.634C53.852 66.686 53.878 66.7207 53.8954 66.738ZM64.5594 68.402C64.5074 68.3847 64.3601 68.3587 64.1174 68.324C63.8748 68.272 63.6668 68.2027 63.4934 68.116C63.3374 68.012 63.2594 67.882 63.2594 67.726C63.2594 67.414 63.3374 67.1887 63.4934 67.05L63.5454 66.92C63.5454 66.8507 63.5281 66.7727 63.4934 66.686C63.4588 66.5993 63.4588 66.5127 63.4934 66.426C63.5108 66.374 63.5541 66.2613 63.6234 66.088C63.6928 65.8973 63.7274 65.6807 63.7274 65.438C63.7274 65.334 63.7361 65.256 63.7534 65.204C63.8228 65.0133 63.9094 64.71 64.0134 64.294C64.2041 63.6353 64.3601 63.1673 64.4814 62.89C65.1574 61.4687 65.7034 60.1947 66.1194 59.068C66.2408 58.7733 66.4054 58.626 66.6134 58.626C66.8041 58.626 67.0121 58.73 67.2374 58.938C67.4801 59.1287 67.6621 59.328 67.7834 59.536C66.7954 61.356 66.2321 62.5 66.0934 62.968C66.3188 62.9853 66.5874 62.9853 66.8994 62.968C67.0208 62.9507 67.2114 62.942 67.4714 62.942C67.6968 62.942 67.8614 62.9507 67.9654 62.968C68.0868 62.9853 68.2601 62.994 68.4854 62.994C68.7454 62.994 69.2394 62.942 69.9674 62.838L70.2274 62.032C70.4354 61.3213 70.6348 60.7493 70.8254 60.316C71.0161 59.8653 71.2848 59.5273 71.6314 59.302C71.6834 59.2847 71.7528 59.276 71.8394 59.276C71.9608 59.276 72.0908 59.3367 72.2294 59.458C72.2988 59.51 72.3941 59.588 72.5154 59.692C72.6368 59.7787 72.7234 59.8567 72.7754 59.926C72.8274 59.978 72.8534 60.0387 72.8534 60.108C72.8534 60.2293 72.7408 60.4547 72.5154 60.784C72.4114 60.94 72.3248 61.1567 72.2554 61.434C72.1514 61.746 72.0561 61.9627 71.9694 62.084C71.9001 62.1707 71.6401 62.864 71.1894 64.164C70.7388 65.464 70.5048 66.1833 70.4874 66.322L70.4094 66.842C70.3401 67.2233 70.3054 67.518 70.3054 67.726C70.3054 67.986 70.1668 68.116 69.8894 68.116C69.5774 68.116 69.2308 67.9947 68.8494 67.752C68.7108 67.6653 68.6241 67.4747 68.5894 67.18C68.6934 66.764 68.8581 66.244 69.0834 65.62L69.3694 64.736C69.4388 64.5627 69.4388 64.424 69.3694 64.32C69.0054 64.268 68.6501 64.242 68.3034 64.242C67.9221 64.242 67.3674 64.2767 66.6394 64.346L65.8854 64.398C65.7468 64.5367 65.5301 65.152 65.2354 66.244C65.1661 66.4347 65.1141 66.608 65.0794 66.764C65.0968 66.9547 65.0448 67.2493 64.9234 67.648C64.8021 68.0293 64.6808 68.2807 64.5594 68.402ZM75.767 68.61C75.559 68.61 75.3944 68.5753 75.273 68.506C75.1517 68.4367 74.9784 68.3067 74.753 68.116C74.181 67.5093 73.895 66.9547 73.895 66.452C73.895 66.3307 73.9037 66.244 73.921 66.192C73.973 66.0707 73.9904 65.9493 73.973 65.828C73.973 65.7067 73.973 65.6287 73.973 65.594C73.9037 65.5247 73.869 65.4813 73.869 65.464C73.869 65.4293 73.8864 65.4033 73.921 65.386C73.9557 65.3513 73.9817 65.3167 73.999 65.282C74.103 65.282 74.1377 65.1867 74.103 64.996C74.0684 64.8573 74.1377 64.554 74.311 64.086C74.4844 63.6007 74.701 63.1587 74.961 62.76C75.1517 62.448 75.429 62.058 75.793 61.59C76.1744 61.122 76.5124 60.7667 76.807 60.524C77.223 60.16 77.5957 59.8913 77.925 59.718C78.2544 59.5447 78.6184 59.4147 79.017 59.328C79.3637 59.2413 79.5977 59.198 79.719 59.198C79.8404 59.198 79.9444 59.2327 80.031 59.302C80.135 59.354 80.265 59.458 80.421 59.614C80.889 59.822 81.2097 60.0907 81.383 60.42C81.5737 60.732 81.669 61.226 81.669 61.902C81.669 63.0287 81.2097 64.2507 80.291 65.568C79.8924 66.14 79.5197 66.582 79.173 66.894C78.8264 67.1887 78.367 67.5093 77.795 67.856C77.431 68.116 77.093 68.3067 76.781 68.428C76.4864 68.532 76.1484 68.5927 75.767 68.61ZM78.263 65.854C78.679 65.386 79.0084 64.944 79.251 64.528C79.511 64.112 79.7537 63.5833 79.979 62.942C80.0657 62.6473 80.109 62.292 80.109 61.876C80.109 61.356 80.0397 61.0613 79.901 60.992C79.7277 60.9053 79.5544 60.862 79.381 60.862C78.9997 60.862 78.601 61.0353 78.185 61.382C77.6824 61.8153 77.2317 62.3527 76.833 62.994C76.4344 63.618 76.027 64.398 75.611 65.334C75.4377 65.698 75.351 66.0533 75.351 66.4C75.351 66.66 75.4117 66.868 75.533 67.024C75.6717 67.18 75.8537 67.258 76.079 67.258C76.651 67.258 77.379 66.79 78.263 65.854ZM85.4011 68.922C85.3491 68.922 85.1757 68.9307 84.8811 68.948C84.6037 68.948 84.3351 68.8873 84.0751 68.766C83.8151 68.6273 83.5984 68.4193 83.4251 68.142C83.3037 67.9167 83.1997 67.6567 83.1131 67.362C83.0264 67.0673 82.9831 66.816 82.9831 66.608C82.9831 66.5213 83.0004 66.426 83.0351 66.322C83.3644 64.4153 83.6331 63.2107 83.8411 62.708L84.2571 61.694C84.3437 61.4167 84.3697 61.1047 84.3351 60.758V60.654C84.3351 60.4287 84.4217 60.238 84.5951 60.082C84.8897 59.8567 85.1237 59.562 85.2971 59.198C85.4184 58.9033 85.6091 58.5047 85.8691 58.002C86.1291 57.4993 86.3197 57.17 86.4411 57.014C86.6317 56.754 86.8051 56.5027 86.9611 56.26C86.9957 56.208 87.1171 56.026 87.3251 55.714C87.5504 55.3847 87.8017 55.1073 88.0791 54.882C88.4084 54.3273 89.0584 53.66 90.0291 52.88C90.4451 52.5333 90.7051 52.308 90.8091 52.204C90.8611 52.152 91.0171 52.1 91.2771 52.048C91.5371 51.9787 91.7017 51.9353 91.7711 51.918C91.9097 51.8833 92.1437 51.8227 92.4731 51.736C92.5771 51.684 92.7677 51.7273 93.0451 51.866C93.3397 51.9873 93.5564 52.126 93.6951 52.282C93.9724 52.7673 94.1111 53.1487 94.1111 53.426C94.1111 53.6513 94.0591 53.9027 93.9551 54.18C93.8511 54.4573 93.6517 54.908 93.3571 55.532C92.7331 56.78 91.5977 57.9673 89.9511 59.094C89.3271 59.6487 88.6251 60.134 87.8451 60.55C87.2731 60.8447 86.8051 61.0527 86.4411 61.174C86.1637 61.2607 85.9644 61.46 85.8431 61.772C85.7737 61.928 85.7131 62.1187 85.6611 62.344C85.6264 62.5693 85.5744 62.7167 85.5051 62.786C85.4011 62.89 85.2277 63.4707 84.9851 64.528C84.7424 65.5853 84.6211 66.3047 84.6211 66.686C84.6211 66.8247 84.6384 66.946 84.6731 67.05C84.7077 67.154 84.7857 67.232 84.9071 67.284C85.1497 67.232 85.3404 67.154 85.4791 67.05C85.6351 66.9287 85.8257 66.738 86.0511 66.478C86.5364 65.8713 86.8831 65.2907 87.0911 64.736C87.1431 64.58 87.1951 64.3807 87.2471 64.138C87.2991 63.878 87.3597 63.6787 87.4291 63.54C87.4291 62.9333 87.4204 62.5433 87.4031 62.37C87.3857 62.1793 87.3251 61.954 87.2211 61.694C87.3077 61.642 87.3771 61.59 87.4291 61.538C87.4984 61.4687 87.5851 61.4427 87.6891 61.46C88.0877 61.5467 88.4951 61.7893 88.9111 62.188C89.0324 62.3093 89.0671 62.4567 89.0151 62.63C88.9457 63.1847 88.9111 63.5833 88.9111 63.826C88.8591 63.9473 88.7724 64.216 88.6511 64.632C88.6337 64.8573 88.5817 65.074 88.4951 65.282C88.1831 65.9233 87.9577 66.3567 87.8191 66.582C87.4377 67.2927 86.9177 67.8993 86.2591 68.402L85.4011 68.922ZM86.5971 59.328C86.6837 59.3453 86.7877 59.354 86.9091 59.354C87.0824 59.354 87.2297 59.2673 87.3511 59.094C88.6164 58.262 89.6824 57.456 90.5491 56.676C91.4331 55.8787 91.9791 55.2027 92.1871 54.648C92.2564 54.5093 92.3517 54.336 92.4731 54.128C92.5944 53.9027 92.6724 53.6947 92.7071 53.504L92.6031 52.776C92.1004 53.0013 91.7017 53.218 91.4071 53.426C91.1297 53.6167 90.7744 53.9287 90.3411 54.362C89.9077 54.7953 89.2491 55.5753 88.3651 56.702C87.4984 57.8287 86.9091 58.704 86.5971 59.328ZM91.2968 68.87C91.0888 68.8007 90.8721 68.6013 90.6468 68.272C90.4214 67.9253 90.3088 67.6133 90.3088 67.336L90.6728 66.244L91.1668 64.684C91.3228 64.4587 91.4441 64.19 91.5308 63.878C91.6348 63.5487 91.6954 63.358 91.7128 63.306C91.8861 62.9767 92.2328 62.1793 92.7528 60.914L93.2468 59.718L93.4548 59.224C93.5588 58.964 93.6281 58.756 93.6628 58.6C93.6628 58.4613 93.6974 58.3487 93.7668 58.262C93.8361 58.158 93.9054 58.106 93.9748 58.106C94.0614 58.0193 94.2261 57.976 94.4688 57.976C94.6594 57.976 94.8241 58.0973 94.9628 58.34C95.1014 58.5827 95.1708 58.8167 95.1708 59.042C95.1708 59.2327 95.0841 59.536 94.9108 59.952C94.7548 60.368 94.5814 60.784 94.3908 61.2C94.2348 61.5293 94.0961 61.8413 93.9748 62.136C93.8708 62.4133 93.8448 62.578 93.8968 62.63C93.9661 62.5953 94.1134 62.526 94.3388 62.422C94.5641 62.3007 94.7981 62.1533 95.0408 61.98C95.1968 61.8933 95.3441 61.8067 95.4828 61.72C95.6214 61.616 95.7428 61.5293 95.8468 61.46C96.3841 61.096 96.7134 60.8967 96.8348 60.862C96.9388 60.7927 97.1381 60.6713 97.4328 60.498C97.7448 60.29 97.9094 60.1773 97.9268 60.16C98.1348 60.056 98.3081 60.004 98.4468 60.004C98.5508 60.004 98.6461 60.0387 98.7328 60.108C98.8194 60.1773 98.9234 60.2813 99.0448 60.42C99.1488 60.5413 99.2008 60.6627 99.2008 60.784C99.2008 60.9053 99.1314 61.0353 98.9928 61.174C98.8541 61.2953 98.6201 61.46 98.2908 61.668C98.0654 61.824 97.8314 61.9713 97.5888 62.11C97.3461 62.2487 97.1121 62.3873 96.8868 62.526C95.6388 63.2887 94.9974 63.696 94.9628 63.748C94.9974 63.8173 95.0754 63.9733 95.1968 64.216C95.3354 64.4587 95.4654 64.6667 95.5868 64.84L95.9768 65.516C96.1848 65.8107 96.2888 66.0013 96.2888 66.088C96.4448 66.5213 96.6528 66.8593 96.9128 67.102C97.1901 67.3447 97.4848 67.466 97.7968 67.466C97.9528 67.466 98.1348 67.4227 98.3428 67.336C98.6028 67.232 98.8108 67.18 98.9668 67.18C99.2094 67.18 99.3741 67.3187 99.4608 67.596C99.5128 67.7 99.5388 67.778 99.5388 67.83C99.5388 67.8993 99.4174 68.0553 99.1748 68.298C98.7241 68.7487 98.2648 68.974 97.7968 68.974C97.6408 68.974 97.4588 68.9307 97.2508 68.844C96.9908 68.8613 96.6614 68.688 96.2628 68.324C95.8814 67.96 95.3441 67.3273 94.6508 66.426C94.6508 66.3567 94.5554 66.1313 94.3648 65.75C94.2954 65.594 94.2174 65.4553 94.1308 65.334C94.0441 65.1953 93.9834 65.1 93.9488 65.048C93.9488 64.9787 93.9054 64.892 93.8188 64.788C93.7494 64.6667 93.6974 64.5713 93.6628 64.502C93.4721 64.45 93.3161 64.4673 93.1948 64.554C93.0908 64.6407 92.9868 64.762 92.8828 64.918C92.7961 65.074 92.7268 65.1867 92.6748 65.256C92.5014 65.7067 92.3281 66.2613 92.1548 66.92C91.9814 67.5613 91.9208 67.9773 91.9728 68.168C91.9728 68.4453 91.9294 68.636 91.8428 68.74C91.7561 68.8267 91.5741 68.87 91.2968 68.87ZM102.691 68.246C102.518 68.2807 102.362 68.298 102.223 68.298C101.998 68.298 101.79 68.2807 101.599 68.246C101.408 68.194 101.313 68.1333 101.313 68.064C101.313 68.012 101.304 67.9773 101.287 67.96C101.27 67.9427 101.235 67.934 101.183 67.934C101.166 67.9167 101.114 67.8733 101.027 67.804C100.94 67.7347 100.836 67.674 100.715 67.622C100.559 67.3793 100.481 67.1193 100.481 66.842C100.481 66.5473 100.559 66.088 100.715 65.464C100.767 64.9093 101.027 64.216 101.495 63.384C101.963 62.552 102.509 61.7633 103.133 61.018C103.774 60.2727 104.346 59.7527 104.849 59.458C105.109 59.198 105.438 59.068 105.837 59.068C106.149 59.068 106.444 59.146 106.721 59.302C106.964 59.4407 107.215 59.6747 107.475 60.004C107.752 60.3333 107.969 60.6713 108.125 61.018C108.194 61.278 108.229 61.5293 108.229 61.772C108.229 62.032 108.194 62.4393 108.125 62.994C108.038 63.306 107.96 63.6873 107.891 64.138C107.839 64.5887 107.813 64.9787 107.813 65.308C107.778 65.5507 107.796 65.75 107.865 65.906C107.934 66.0447 108.03 66.114 108.151 66.114C108.238 66.114 108.333 66.088 108.437 66.036C108.61 65.9493 108.801 65.906 109.009 65.906C109.2 65.906 109.356 65.958 109.477 66.062C109.598 66.166 109.659 66.322 109.659 66.53C109.659 66.842 109.442 67.154 109.009 67.466C108.593 67.778 108.194 67.934 107.813 67.934C107.553 67.934 107.31 67.7347 107.085 67.336C106.877 66.92 106.669 66.3913 106.461 65.75L106.305 65.152L105.187 66.218L104.589 66.816C104.312 67.0933 104.156 67.258 104.121 67.31C103.93 67.6393 103.454 67.9513 102.691 68.246ZM102.769 66.712C103.185 66.4693 103.696 66.0447 104.303 65.438C104.91 64.8313 105.412 64.2507 105.811 63.696C106.348 62.9853 106.686 62.2833 106.825 61.59C106.756 61.382 106.643 61.174 106.487 60.966C106.331 60.758 106.192 60.6453 106.071 60.628C105.724 60.628 105.36 60.8273 104.979 61.226C104.598 61.6247 104.147 62.1793 103.627 62.89L102.769 64.164C102.665 64.3027 102.483 64.6753 102.223 65.282C101.963 65.8713 101.833 66.2267 101.833 66.348C101.833 66.7293 101.946 66.92 102.171 66.92C102.344 66.92 102.544 66.8507 102.769 66.712Z" fill="#506036"/>
</svg>
