<svg width="81" height="92" viewBox="0 0 81 92" fill="none" xmlns="http://www.w3.org/2000/svg">
<path d="M12.141 2.251C12.1663 2.327 12.2043 2.422 12.255 2.536C12.3183 2.63733 12.331 2.69433 12.293 2.707C12.179 2.859 12.046 2.935 11.894 2.935C11.818 2.935 11.742 2.916 11.666 2.878C11.5773 2.85267 11.0137 2.878 9.975 2.954C8.949 3.03 8.08767 3.11233 7.391 3.201C7.277 3.26433 7.17567 3.353 7.087 3.467C7.011 3.56833 6.92233 3.70767 6.821 3.885C6.745 4.02433 6.54867 4.436 6.232 5.12C5.928 5.79133 5.719 6.25367 5.605 6.507C5.567 6.55767 5.548 6.602 5.548 6.64C5.548 6.74133 5.73167 6.792 6.099 6.792C6.16233 6.792 6.26367 6.81733 6.403 6.868C6.54233 6.906 6.65 6.91867 6.726 6.906C6.85267 6.88067 7.17567 6.95033 7.695 7.115C8.21433 7.27967 8.55 7.41267 8.702 7.514C9.044 7.72933 9.31 7.92567 9.5 8.103C9.69 8.26767 9.84833 8.464 9.975 8.692C10.127 9.02133 10.241 9.30633 10.317 9.547C10.393 9.78767 10.4183 10.041 10.393 10.307C10.393 10.4337 10.355 10.6743 10.279 11.029C10.203 11.371 10.127 11.6117 10.051 11.751C9.79767 12.1943 9.481 12.625 9.101 13.043C8.911 13.271 8.68933 13.4737 8.436 13.651C8.19533 13.8157 7.89767 13.9803 7.543 14.145C7.17567 14.3223 6.935 14.4363 6.821 14.487C6.707 14.525 6.52333 14.5693 6.27 14.62L5.453 14.829C5.31367 14.9177 5.16167 14.9747 4.997 15C4.845 15.0127 4.64867 15.019 4.408 15.019H3.762C3.61 15.019 3.42 14.981 3.192 14.905C2.97667 14.829 2.82467 14.7467 2.736 14.658C2.60933 14.4933 2.50167 14.2717 2.413 13.993C2.32433 13.7017 2.28633 13.5243 2.299 13.461L2.527 11.884C2.565 11.808 2.59667 11.6877 2.622 11.523C2.64733 11.3583 2.679 11.238 2.717 11.162C2.70433 11.01 2.869 10.4463 3.211 9.471L3.363 9.015C3.401 8.825 3.496 8.57167 3.648 8.255L3.819 7.875C3.92033 7.533 4.00267 7.267 4.066 7.077C4.142 6.887 4.218 6.72233 4.294 6.583C4.38267 6.44367 4.49033 6.222 4.617 5.918L5.738 3.372C5.61133 3.30867 5.49733 3.18833 5.396 3.011C5.29467 2.821 5.244 2.65 5.244 2.498V2.46C5.244 2.40933 5.263 2.365 5.301 2.327C5.35167 2.289 5.40867 2.25733 5.472 2.232L6.061 2.213C6.20033 2.213 6.30167 2.21933 6.365 2.232H6.422C6.47267 2.232 6.52967 2.21933 6.593 2.194C6.65633 2.16867 6.73233 2.16867 6.821 2.194C6.92233 2.21933 7.00467 2.232 7.068 2.232C7.22 2.232 7.35933 2.20033 7.486 2.137L8.55 2.08C8.968 2.042 9.25933 2.023 9.424 2.023C9.47467 2.023 9.79767 1.99767 10.393 1.947C10.9883 1.89633 11.3113 1.86467 11.362 1.852C11.4127 1.83933 11.4823 1.833 11.571 1.833C11.723 1.833 11.837 1.871 11.913 1.947C11.989 2.01033 12.065 2.11167 12.141 2.251ZM6.84 7.78C6.71333 7.75467 6.45367 7.71667 6.061 7.666C5.66833 7.60267 5.38333 7.571 5.206 7.571C4.83867 8.445 4.56633 9.13533 4.389 9.642C4.05967 10.63 3.83167 11.3773 3.705 11.884C3.64167 12.0867 3.591 12.3337 3.553 12.625C3.515 12.9163 3.496 13.176 3.496 13.404C3.496 13.7333 3.54033 13.936 3.629 14.012C3.73033 14.012 3.90133 14.012 4.142 14.012C4.39533 13.9993 4.62333 13.9677 4.826 13.917C5.68733 13.689 6.346 13.4737 6.802 13.271C7.27067 13.0683 7.70767 12.739 8.113 12.283C8.42967 11.9283 8.664 11.5927 8.816 11.276C8.98067 10.9593 9.10733 10.592 9.196 10.174C9.22133 10.0473 9.234 9.95867 9.234 9.908C9.234 9.794 9.20867 9.623 9.158 9.395C9.10733 9.25567 9.07567 9.12267 9.063 8.996C8.949 8.73 8.835 8.55267 8.721 8.464C8.61967 8.36267 8.512 8.293 8.398 8.255C8.284 8.217 8.19533 8.18533 8.132 8.16C7.942 8.008 7.51133 7.88133 6.84 7.78ZM6.802 7.78H6.84H6.802ZM14.911 14.335C14.5943 14.6137 14.2143 14.753 13.771 14.753C13.4543 14.753 13.1503 14.677 12.859 14.525C12.5803 14.373 12.346 14.164 12.156 13.898C11.9913 13.6953 11.871 13.4673 11.795 13.214C11.719 12.9607 11.681 12.6503 11.681 12.283C11.681 12.1563 11.6937 11.903 11.719 11.523C11.757 11.0543 11.909 10.5667 12.175 10.06C12.4537 9.55333 12.7957 9.10367 13.201 8.711C13.6063 8.30567 14.0053 8.027 14.398 7.875C14.6007 7.74833 14.7843 7.685 14.949 7.685C15.0377 7.685 15.1263 7.69133 15.215 7.704C15.3037 7.71667 15.3987 7.72933 15.5 7.742C15.7787 7.78 15.9877 7.837 16.127 7.913C16.279 7.97633 16.4057 8.07767 16.507 8.217C16.8237 8.53367 16.982 8.901 16.982 9.319C16.9313 9.623 16.735 9.97133 16.393 10.364C16.051 10.7567 15.6393 11.0733 15.158 11.314C14.93 11.39 14.6703 11.428 14.379 11.428C13.9863 11.428 13.6697 11.3457 13.429 11.181C13.315 11.143 13.2263 11.124 13.163 11.124C13.049 11.124 12.9603 11.2 12.897 11.352C12.8463 11.504 12.7957 11.7827 12.745 12.188C12.7323 12.2767 12.726 12.4033 12.726 12.568C12.726 13.214 12.9413 13.5687 13.372 13.632C13.6633 13.6953 13.8723 13.727 13.999 13.727C14.151 13.727 14.322 13.6763 14.512 13.575L14.873 13.366C14.949 13.328 15.0187 13.2773 15.082 13.214C15.1453 13.1507 15.2023 13.0937 15.253 13.043C15.2783 13.0177 15.3163 12.9797 15.367 12.929C15.4177 12.8657 15.462 12.8277 15.5 12.815C15.5507 12.7897 15.595 12.777 15.633 12.777C15.6837 12.777 15.7407 12.8087 15.804 12.872C15.8673 12.9227 15.918 12.9607 15.956 12.986C16.07 12.986 16.0953 13.0683 16.032 13.233C15.9687 13.385 15.8293 13.5687 15.614 13.784C15.4113 13.9867 15.177 14.1703 14.911 14.335ZM14.892 10.307C15.1073 10.2183 15.3227 10.06 15.538 9.832C15.766 9.604 15.88 9.414 15.88 9.262C15.88 9.11 15.823 8.98333 15.709 8.882C15.595 8.78067 15.4367 8.73 15.234 8.73C15.082 8.73 14.968 8.74267 14.892 8.768C14.7147 8.81867 14.5057 8.958 14.265 9.186C14.0243 9.40133 13.8153 9.623 13.638 9.851C13.4607 10.079 13.391 10.212 13.429 10.25C13.4923 10.364 13.7393 10.421 14.17 10.421C14.4613 10.421 14.702 10.383 14.892 10.307ZM19.8167 14.791C19.6394 14.8163 19.5064 14.829 19.4177 14.829C18.949 14.829 18.5627 14.6833 18.2587 14.392C17.9547 14.1007 17.8027 13.6953 17.8027 13.176C17.752 12.6187 17.8724 11.9283 18.1637 11.105C18.4677 10.2817 18.8477 9.59133 19.3037 9.034C19.6204 8.66667 19.8927 8.369 20.1207 8.141C20.3487 7.913 20.5577 7.761 20.7477 7.685C21.0137 7.571 21.3114 7.514 21.6407 7.514C21.8687 7.56467 22.0904 7.65967 22.3057 7.799C22.5337 7.93833 22.6477 8.07767 22.6477 8.217L22.7427 8.312C22.8187 8.312 22.8884 8.407 22.9517 8.597C23.015 8.77433 23.0467 8.97067 23.0467 9.186C23.0467 9.36333 23.015 9.51533 22.9517 9.642C22.901 9.88267 22.8124 10.0917 22.6857 10.269C22.5717 10.4463 22.4577 10.535 22.3437 10.535C22.2044 10.535 22.1347 10.573 22.1347 10.649C22.1347 10.6997 22.1094 10.725 22.0587 10.725C21.9954 10.725 21.9194 10.687 21.8307 10.611C21.742 10.535 21.6787 10.4463 21.6407 10.345C21.6407 10.307 21.666 10.1993 21.7167 10.022C21.7674 9.84467 21.818 9.64833 21.8687 9.433C21.9067 9.281 21.9257 9.148 21.9257 9.034C21.9257 8.78067 21.8307 8.654 21.6407 8.654C21.5394 8.654 21.438 8.67933 21.3367 8.73C20.83 9.00867 20.3804 9.452 19.9877 10.06C19.595 10.668 19.2657 11.504 18.9997 12.568C18.9364 12.8467 18.9047 13.0683 18.9047 13.233C18.9047 13.3597 18.911 13.461 18.9237 13.537C18.949 13.613 18.9744 13.6573 18.9997 13.67C19.063 13.6953 19.196 13.708 19.3987 13.708C19.8674 13.708 20.1967 13.651 20.3867 13.537C20.792 13.3217 21.2417 13.0303 21.7357 12.663C21.7864 12.625 21.8624 12.5617 21.9637 12.473C22.065 12.3717 22.16 12.302 22.2487 12.264C22.3374 12.1247 22.4197 12.0423 22.4957 12.017C22.5717 11.979 22.692 11.96 22.8567 11.96C23.0214 12.0107 23.1544 12.0803 23.2557 12.169C23.357 12.245 23.357 12.3083 23.2557 12.359C23.2177 12.359 23.1924 12.3717 23.1797 12.397C23.167 12.4223 23.1607 12.4413 23.1607 12.454C23.186 12.5173 23.0847 12.6757 22.8567 12.929C22.6287 13.1823 22.3754 13.423 22.0967 13.651C21.818 13.8663 21.628 13.974 21.5267 13.974C21.476 13.974 21.4317 13.9803 21.3937 13.993C21.3557 14.0057 21.3367 14.0373 21.3367 14.088C21.3367 14.1387 21.1404 14.259 20.7477 14.449C20.3677 14.6263 20.0574 14.7403 19.8167 14.791ZM29.3636 14.297C29.1483 14.259 28.9709 14.1577 28.8316 13.993C28.6923 13.8157 28.6226 13.6257 28.6226 13.423C28.6226 13.3597 28.6353 13.2773 28.6606 13.176C28.8126 12.682 28.9139 12.264 28.9646 11.922C28.9899 11.77 29.0469 11.5863 29.1356 11.371C29.2496 11.029 29.3383 10.7503 29.4016 10.535C29.4649 10.3197 29.4966 10.1107 29.4966 9.908C29.4966 9.604 29.4016 9.38867 29.2116 9.262C29.0469 9.16067 28.8823 9.091 28.7176 9.053C28.5529 9.00233 28.3503 8.958 28.1096 8.92C27.9323 8.89467 27.7993 8.86933 27.7106 8.844C27.6726 8.83133 27.6093 8.83133 27.5206 8.844C27.4446 8.85667 27.3623 8.863 27.2736 8.863C27.1849 8.863 27.1216 8.85667 27.0836 8.844C26.9696 9.262 26.8999 9.54067 26.8746 9.68C26.6719 10.3387 26.5579 10.7123 26.5326 10.801C26.4439 11.181 26.3616 11.4977 26.2856 11.751C26.2223 11.9917 26.1336 12.2957 26.0196 12.663C25.9943 12.739 25.9626 12.853 25.9246 13.005C25.8993 13.1443 25.8549 13.2647 25.7916 13.366C25.7663 13.4293 25.7536 13.4863 25.7536 13.537C25.7536 13.575 25.7536 13.6067 25.7536 13.632C25.7536 13.7967 25.6776 13.936 25.5256 14.05C25.4623 14.088 25.3926 14.1197 25.3166 14.145C25.2533 14.1703 25.1899 14.202 25.1266 14.24C25.0126 14.1513 24.9176 14.05 24.8416 13.936C24.7656 13.822 24.6959 13.7207 24.6326 13.632C24.9113 12.378 25.0949 11.694 25.1836 11.58C25.2089 11.542 25.2469 11.4027 25.2976 11.162C25.3609 10.8453 25.4179 10.63 25.4686 10.516C25.4559 10.3767 25.4813 10.231 25.5446 10.079C25.6206 9.91433 25.6649 9.80667 25.6776 9.756C25.7409 9.57867 25.7979 9.3 25.8486 8.92C25.8613 8.75533 25.8929 8.55267 25.9436 8.312C26.0829 8.22333 26.1843 8.17267 26.2476 8.16C26.3109 8.13467 26.4376 8.10933 26.6276 8.084L26.7036 7.837C26.8936 7.69767 27.1723 7.628 27.5396 7.628C27.8183 7.628 28.0779 7.67233 28.3186 7.761C28.3693 7.77367 28.4073 7.78633 28.4326 7.799C28.4579 7.799 28.4896 7.799 28.5276 7.799C28.7049 7.81167 28.9329 7.894 29.2116 8.046C29.5029 8.18533 29.7246 8.32467 29.8766 8.464C30.3326 8.882 30.5606 9.43933 30.5606 10.136C30.5606 10.6427 30.4213 11.3013 30.1426 12.112C30.1173 12.1753 30.0729 12.321 30.0096 12.549C29.9589 12.777 29.9336 12.9163 29.9336 12.967C29.9336 13.081 29.9526 13.1887 29.9906 13.29C30.0413 13.3913 30.1173 13.5053 30.2186 13.632C30.1933 13.7207 30.1363 13.822 30.0476 13.936C29.9716 14.0373 29.8893 14.088 29.8006 14.088C29.7246 14.088 29.6423 14.1197 29.5536 14.183C29.4776 14.2463 29.4143 14.2843 29.3636 14.297ZM32.2524 14.411C32.189 14.4617 32.1004 14.487 31.9864 14.487C31.809 14.487 31.6 14.4427 31.3594 14.354L31.2264 14.012C31.201 13.8347 31.1757 13.7143 31.1504 13.651C31.2897 13.5117 31.3594 13.442 31.3594 13.442H31.7774C31.8154 13.4293 31.866 13.3913 31.9294 13.328C31.9927 13.2647 32.056 13.233 32.1194 13.233C32.5627 12.9543 32.9997 12.435 33.4304 11.675C33.8737 10.9023 34.3297 10.003 34.7984 8.977L34.9694 8.616L34.9504 8.521C34.8744 8.54633 34.773 8.57167 34.6464 8.597C34.5324 8.62233 34.4374 8.64767 34.3614 8.673L34.2474 8.749C34.1587 8.825 34.0384 8.863 33.8864 8.863C33.747 8.863 33.614 8.83133 33.4874 8.768C33.3734 8.70467 33.291 8.62233 33.2404 8.521C33.1517 8.38167 33.0947 8.293 33.0694 8.255C33.12 8.141 33.2024 8.03333 33.3164 7.932C33.4304 7.818 33.5444 7.74833 33.6584 7.723C34.2917 7.571 34.849 7.495 35.3304 7.495C35.799 7.495 36.255 7.57733 36.6984 7.742C36.7364 7.75467 36.787 7.76733 36.8504 7.78C36.9137 7.79267 36.9707 7.818 37.0214 7.856C37.224 8.008 37.3697 8.12833 37.4584 8.217C37.623 8.369 37.7244 8.55267 37.7624 8.768C37.8004 8.92 37.8194 9.07833 37.8194 9.243C37.8194 9.319 37.8067 9.433 37.7814 9.585C37.7307 9.80033 37.5597 10.4147 37.2684 11.428L37.1354 11.846C36.8947 12.644 36.654 13.461 36.4134 14.297C36.312 14.3223 36.236 14.335 36.1854 14.335C35.9447 14.335 35.7294 14.221 35.5394 13.993C35.4887 13.841 35.4634 13.689 35.4634 13.537C35.4634 13.3597 35.5077 13.1823 35.5964 13.005C35.6344 12.929 35.666 12.8277 35.6914 12.701C35.7294 12.5743 35.7547 12.4857 35.7674 12.435C35.8434 12.0423 35.932 11.7827 36.0334 11.656C36.0587 11.6053 36.0714 11.561 36.0714 11.523C36.0714 11.3963 36.1854 10.9403 36.4134 10.155C36.5907 9.53433 36.692 9.16067 36.7174 9.034C36.73 9.00867 36.7364 8.97067 36.7364 8.92C36.7364 8.86933 36.73 8.825 36.7174 8.787C36.7047 8.73633 36.6984 8.67933 36.6984 8.616C36.5464 8.54 36.388 8.502 36.2234 8.502C36.0587 8.502 35.951 8.56533 35.9004 8.692L35.8434 8.863C35.78 9.07833 35.6724 9.32533 35.5204 9.604C35.2544 10.1613 35.0707 10.6173 34.9694 10.972C34.9567 11.048 34.925 11.1303 34.8744 11.219C34.8364 11.295 34.811 11.352 34.7984 11.39C34.7224 11.504 34.6654 11.6243 34.6274 11.751C34.6274 11.7763 34.621 11.8017 34.6084 11.827C34.5957 11.8397 34.583 11.8523 34.5704 11.865C34.5324 11.9283 34.3804 12.169 34.1144 12.587C33.7724 13.1317 33.1517 13.7397 32.2524 14.411ZM40.1234 14.449C39.9967 14.4743 39.8827 14.487 39.7814 14.487C39.6167 14.487 39.4647 14.4743 39.3254 14.449C39.1861 14.411 39.1164 14.3667 39.1164 14.316C39.1164 14.278 39.1101 14.2527 39.0974 14.24C39.0847 14.2273 39.0594 14.221 39.0214 14.221C39.0087 14.2083 38.9707 14.1767 38.9074 14.126C38.8441 14.0753 38.7681 14.031 38.6794 13.993C38.5654 13.8157 38.5084 13.6257 38.5084 13.423C38.5084 13.2077 38.5654 12.872 38.6794 12.416C38.7174 12.0107 38.9074 11.504 39.2494 10.896C39.5914 10.288 39.9904 9.71167 40.4464 9.167C40.9151 8.62233 41.3331 8.24233 41.7004 8.027C41.8904 7.837 42.1311 7.742 42.4224 7.742C42.6504 7.742 42.8657 7.799 43.0684 7.913C43.2457 8.01433 43.4294 8.18533 43.6194 8.426C43.8221 8.66667 43.9804 8.91367 44.0944 9.167C44.1451 9.357 44.1704 9.54067 44.1704 9.718C44.1704 9.908 44.1451 10.2057 44.0944 10.611C44.0311 10.839 43.9741 11.1177 43.9234 11.447C43.8854 11.7763 43.8664 12.0613 43.8664 12.302C43.8411 12.4793 43.8537 12.625 43.9044 12.739C43.9551 12.8403 44.0247 12.891 44.1134 12.891C44.1767 12.891 44.2464 12.872 44.3224 12.834C44.4491 12.7707 44.5884 12.739 44.7404 12.739C44.8797 12.739 44.9937 12.777 45.0824 12.853C45.1711 12.929 45.2154 13.043 45.2154 13.195C45.2154 13.423 45.0571 13.651 44.7404 13.879C44.4364 14.107 44.1451 14.221 43.8664 14.221C43.6764 14.221 43.4991 14.0753 43.3344 13.784C43.1824 13.48 43.0304 13.0937 42.8784 12.625L42.7644 12.188L41.9474 12.967L41.5104 13.404C41.3077 13.6067 41.1937 13.727 41.1684 13.765C41.0291 14.0057 40.6807 14.2337 40.1234 14.449ZM40.1804 13.328C40.4844 13.1507 40.8581 12.8403 41.3014 12.397C41.7447 11.9537 42.1121 11.5293 42.4034 11.124C42.7961 10.6047 43.0431 10.0917 43.1444 9.585C43.0937 9.433 43.0114 9.281 42.8974 9.129C42.7834 8.977 42.6821 8.89467 42.5934 8.882C42.3401 8.882 42.0741 9.02767 41.7954 9.319C41.5167 9.61033 41.1874 10.0157 40.8074 10.535L40.1804 11.466C40.1044 11.5673 39.9714 11.8397 39.7814 12.283C39.5914 12.7137 39.4964 12.9733 39.4964 13.062C39.4964 13.3407 39.5787 13.48 39.7434 13.48C39.8701 13.48 40.0157 13.4293 40.1804 13.328ZM54.8554 13.347C54.906 13.385 54.9314 13.442 54.9314 13.518C54.9314 13.6067 54.8997 13.6953 54.8364 13.784C54.7857 13.86 54.735 13.898 54.6844 13.898C54.4437 13.898 54.2094 13.8347 53.9814 13.708C53.766 13.5687 53.6584 13.3533 53.6584 13.062V11.884C53.6584 11.2887 53.614 10.953 53.5254 10.877C53.3354 10.7757 53.006 10.9847 52.5374 11.504C52.0814 12.0233 51.638 12.6377 51.2074 13.347C51.068 13.575 50.954 13.7523 50.8654 13.879C50.7767 14.0057 50.707 14.069 50.6564 14.069C50.6184 14.069 50.555 14.0373 50.4664 13.974C50.0737 13.86 49.8774 13.6383 49.8774 13.309C49.8774 13.271 49.89 13.1887 49.9154 13.062C50.042 12.644 50.1687 12.1817 50.2954 11.675C50.422 11.1557 50.5234 10.7187 50.5994 10.364C50.5614 10.288 50.498 10.25 50.4094 10.25C50.2827 10.25 50.137 10.3133 49.9724 10.44C49.6557 10.6553 49.2504 11.1683 48.7564 11.979C48.1357 12.929 47.705 13.5053 47.4644 13.708C47.3757 13.86 47.2934 13.9803 47.2174 14.069C47.154 14.145 47.0907 14.183 47.0274 14.183C46.9767 14.183 46.8817 14.145 46.7424 14.069C46.375 13.8537 46.1914 13.5497 46.1914 13.157C46.1914 12.967 46.2484 12.587 46.3624 12.017C46.4764 11.447 46.603 10.915 46.7424 10.421C46.8564 10.2057 46.9577 9.984 47.0464 9.756C47.1477 9.51533 47.1984 9.36967 47.1984 9.319C47.249 9.053 47.3124 8.768 47.3884 8.464C47.4644 8.16 47.5214 7.989 47.5594 7.951C47.648 7.86233 47.7494 7.818 47.8634 7.818C48.0534 7.818 48.1927 7.91933 48.2814 8.122C48.4207 8.26133 48.4904 8.43867 48.4904 8.654C48.4904 8.89467 48.4207 9.205 48.2814 9.585C48.066 10.0537 47.8317 10.7377 47.5784 11.637C47.8444 11.3457 48.0344 11.1177 48.1484 10.953C48.4524 10.5223 48.845 10.041 49.3264 9.509C49.719 9.07833 50.1624 8.863 50.6564 8.863C51.239 8.96433 51.5747 9.452 51.6634 10.326C51.6634 10.478 51.6507 10.668 51.6254 10.896C51.6 11.1113 51.581 11.2507 51.5684 11.314C51.619 11.238 51.7457 11.0733 51.9484 10.82C52.1637 10.5667 52.4234 10.307 52.7274 10.041C53.006 9.82567 53.2657 9.718 53.5064 9.718C53.709 9.718 53.8864 9.80033 54.0384 9.965C54.3044 10.117 54.4944 10.3323 54.6084 10.611C54.7224 10.877 54.7794 11.219 54.7794 11.637C54.7794 11.8523 54.773 12.0233 54.7604 12.15C54.735 12.4033 54.7224 12.5617 54.7224 12.625C54.7224 12.8657 54.7667 13.1063 54.8554 13.347ZM60.4374 14.791C60.336 14.7657 60.2284 14.7403 60.1144 14.715C60.0004 14.677 59.88 14.639 59.7534 14.601C59.652 14.4617 59.6014 14.278 59.6014 14.05C59.6014 13.86 59.6394 13.6383 59.7154 13.385C59.7914 13.119 59.8737 12.8593 59.9624 12.606C59.9877 12.53 60.032 12.3843 60.0954 12.169C60.1714 11.9537 60.2157 11.7763 60.2284 11.637C60.2157 11.599 60.1967 11.5863 60.1714 11.599C60.146 11.6117 60.1334 11.6307 60.1334 11.656C60.0067 11.7953 59.728 11.8967 59.2974 11.96C58.7527 12.0487 58.2777 12.15 57.8724 12.264L57.6254 12.074C57.524 12.074 57.4354 12.188 57.3594 12.416C57.2834 12.644 57.2074 12.948 57.1314 13.328C57.0554 13.708 56.9984 13.9423 56.9604 14.031L56.6374 14.069C56.5234 14.069 56.3397 14.0247 56.0864 13.936C55.9724 13.7587 55.9154 13.6003 55.9154 13.461C55.9154 13.3597 55.9344 13.2457 55.9724 13.119C55.9977 13.0303 56.0357 12.853 56.0864 12.587C56.1497 12.321 56.2447 12.036 56.3714 11.732C56.3967 11.6687 56.4474 11.5547 56.5234 11.39C56.5994 11.2127 56.6374 11.0417 56.6374 10.877C56.726 10.763 56.7957 10.6173 56.8464 10.44C56.897 10.25 56.9414 10.1043 56.9794 10.003L57.3594 9.072C57.486 8.74267 57.5874 8.464 57.6634 8.236C57.752 8.008 57.8027 7.818 57.8154 7.666C57.828 7.48867 57.923 7.4 58.1004 7.4C58.2777 7.4 58.455 7.476 58.6324 7.628C58.8224 7.78 58.9174 7.951 58.9174 8.141C58.9174 8.19167 58.9047 8.255 58.8794 8.331C58.8287 8.445 58.778 8.578 58.7274 8.73C58.6767 8.882 58.6134 9.04667 58.5374 9.224C58.246 10.0473 58.056 10.554 57.9674 10.744C57.9547 10.782 57.9294 10.8263 57.8914 10.877C57.8534 10.915 57.8344 10.9593 57.8344 11.01C57.885 11.0607 57.9927 11.086 58.1574 11.086C58.3854 11.086 58.5754 11.048 58.7274 10.972H59.8484C60.0384 11.086 60.184 11.257 60.2854 11.485L60.5704 10.725C61.0264 9.547 61.2797 8.787 61.3304 8.445C61.3684 8.24233 61.5014 8.07133 61.7294 7.932C61.8054 7.97 61.913 8.01433 62.0524 8.065C62.2044 8.11567 62.3247 8.18533 62.4134 8.274C62.502 8.35 62.559 8.45767 62.5844 8.597C62.5717 8.72367 62.54 8.85667 62.4894 8.996C62.4387 9.12267 62.407 9.205 62.3944 9.243C62.3564 9.357 62.217 9.71167 61.9764 10.307C61.9384 10.4083 61.837 10.6617 61.6724 11.067C61.5204 11.4597 61.3874 11.827 61.2734 12.169C61.172 12.4983 61.1024 12.7897 61.0644 13.043C61.0264 13.2077 60.963 13.442 60.8744 13.746C60.7984 14.0373 60.7414 14.2463 60.7034 14.373C60.7034 14.5377 60.6147 14.677 60.4374 14.791ZM64.6053 14.373C64.3773 14.4237 64.1303 14.354 63.8643 14.164C63.5983 13.974 63.44 13.765 63.3893 13.537C63.3767 13.4863 63.3703 13.404 63.3703 13.29C63.3703 12.8213 63.5477 12.2197 63.9023 11.485C64.2697 10.7377 64.713 10.0537 65.2323 9.433C65.7517 8.79967 66.2267 8.40067 66.6573 8.236C66.9233 8.09667 67.0943 8.027 67.1703 8.027C67.2463 8.027 67.4173 8.09667 67.6833 8.236C67.8607 8.28667 67.9937 8.34367 68.0823 8.407C68.171 8.47033 68.285 8.597 68.4243 8.787C68.589 9.11633 68.7093 9.52167 68.7853 10.003C68.8613 10.269 68.8993 10.459 68.8993 10.573C68.8993 10.6743 68.8613 10.763 68.7853 10.839C68.7727 10.8517 68.7473 10.877 68.7093 10.915C68.684 10.953 68.6713 10.9847 68.6713 11.01C68.6713 11.0227 68.684 11.029 68.7093 11.029C68.7093 11.0417 68.703 11.0733 68.6903 11.124C68.6777 11.162 68.6523 11.219 68.6143 11.295C68.4623 11.7763 68.3863 12.188 68.3863 12.53C68.3863 12.644 68.399 12.7643 68.4243 12.891C68.551 13.2203 68.7663 13.385 69.0703 13.385C69.3237 13.385 69.5643 13.271 69.7923 13.043C69.995 12.9037 70.1407 12.8087 70.2293 12.758C70.3307 12.6947 70.3813 12.7073 70.3813 12.796C70.394 12.8087 70.4193 12.8277 70.4573 12.853C70.4953 12.8783 70.5333 12.891 70.5713 12.891C70.66 12.891 70.7043 12.948 70.7043 13.062C70.7043 13.176 70.66 13.3027 70.5713 13.442C70.4827 13.5307 70.413 13.6067 70.3623 13.67C70.3117 13.7333 70.2863 13.784 70.2863 13.822L70.0013 14.088C69.7607 14.2273 69.4757 14.297 69.1463 14.297C68.8043 14.297 68.532 14.2273 68.3293 14.088C68.152 13.9613 67.981 13.7777 67.8163 13.537C67.6517 13.2963 67.544 13.081 67.4933 12.891L67.3983 12.701L66.8473 13.062C66.7207 13.1887 66.575 13.3217 66.4103 13.461C66.2457 13.5877 66.138 13.6763 66.0873 13.727C65.986 13.8537 65.8973 13.917 65.8213 13.917H65.6313C65.6313 14.0057 65.5047 14.107 65.2513 14.221C65.0107 14.3223 64.7953 14.373 64.6053 14.373ZM64.4153 13.347C64.5547 13.347 64.9093 13.1507 65.4793 12.758C66.0493 12.3527 66.4103 12.055 66.5623 11.865L67.1133 11.295C67.316 11.067 67.4743 10.8073 67.5883 10.516C67.715 10.2247 67.7783 9.95867 67.7783 9.718C67.7783 9.50267 67.7467 9.35067 67.6833 9.262C67.6327 9.11 67.5567 9.034 67.4553 9.034C67.4047 9.034 67.259 9.07833 67.0183 9.167C66.7777 9.319 66.4357 9.66733 65.9923 10.212C65.5617 10.7567 65.1753 11.3203 64.8333 11.903C64.4913 12.473 64.3203 12.891 64.3203 13.157C64.3203 13.195 64.333 13.233 64.3583 13.271C64.3837 13.309 64.4027 13.3343 64.4153 13.347ZM71.5243 14.905C71.233 14.905 71.0176 14.8227 70.8783 14.658C70.7643 14.4807 70.6693 14.2843 70.5933 14.069C70.6186 13.9803 70.663 13.898 70.7263 13.822C70.7896 13.7333 70.8656 13.689 70.9543 13.689C71.005 13.689 71.062 13.708 71.1253 13.746C71.1506 13.746 71.176 13.7587 71.2013 13.784C71.2266 13.8093 71.2583 13.8347 71.2963 13.86C71.7143 13.67 72.0626 13.423 72.3413 13.119C72.6326 12.815 72.9556 12.3907 73.3103 11.846C73.095 11.7827 72.8796 11.6813 72.6643 11.542C72.4616 11.4027 72.316 11.257 72.2273 11.105C72.1133 10.915 72.031 10.6807 71.9803 10.402C71.9296 10.1233 71.898 9.965 71.8853 9.927C71.936 9.813 72.012 9.57867 72.1133 9.224C72.164 9.02133 72.221 8.844 72.2843 8.692C72.3476 8.54 72.4553 8.36267 72.6073 8.16C72.7973 7.90667 73.0633 7.67233 73.4053 7.457C73.7473 7.229 73.988 7.115 74.1273 7.115C74.2286 7.153 74.3616 7.153 74.5263 7.115C74.7036 7.06433 74.8303 7.05167 74.9063 7.077C74.957 7.08967 75.0013 7.096 75.0393 7.096C75.0773 7.08333 75.1153 7.08333 75.1533 7.096C75.5333 7.172 75.831 7.27333 76.0463 7.4C76.2616 7.514 76.401 7.71033 76.4643 7.989C76.439 8.07767 76.401 8.236 76.3503 8.464C76.2996 8.67933 76.2426 8.87567 76.1793 9.053C76.116 9.23033 76.04 9.395 75.9513 9.547L75.7233 10.022C75.4953 10.478 75.299 10.8137 75.1343 11.029L75.1723 11.143C75.337 11.181 75.5016 11.2127 75.6663 11.238C75.8436 11.2507 75.964 11.2633 76.0273 11.276C76.1793 11.314 76.325 11.39 76.4643 11.504C76.6036 11.618 76.6986 11.694 76.7493 11.732V11.808C76.7493 11.884 76.724 11.9663 76.6733 12.055C76.5213 12.359 76.401 12.587 76.3123 12.739C76.249 12.853 76.173 12.9987 76.0843 13.176C75.9956 13.3407 75.9006 13.537 75.7993 13.765C75.7613 13.841 75.717 13.993 75.6663 14.221C75.5776 14.4997 75.527 14.658 75.5143 14.696C75.375 14.8353 75.2863 14.905 75.2483 14.905C75.2356 14.905 75.2103 14.8987 75.1723 14.886C75.1343 14.8607 75.0773 14.848 75.0013 14.848C74.824 14.81 74.7036 14.715 74.6403 14.563C74.6276 14.5123 74.596 14.449 74.5453 14.373C74.5073 14.2843 74.4883 14.2083 74.4883 14.145C74.4883 14.0057 74.5516 13.8347 74.6783 13.632C74.7416 13.5053 74.824 13.3153 74.9253 13.062C74.976 12.9227 75.0646 12.7137 75.1913 12.435C75.2166 12.4097 75.2356 12.378 75.2483 12.34C75.261 12.302 75.2673 12.264 75.2673 12.226H75.1343L74.5643 12.131C74.5263 12.1563 74.4566 12.207 74.3553 12.283C74.254 12.3463 74.178 12.4477 74.1273 12.587C74.0766 12.6377 73.9563 12.7897 73.7663 13.043C73.6396 13.2457 73.4876 13.4357 73.3103 13.613C72.8923 14.0563 72.5566 14.3857 72.3033 14.601C72.0246 14.8037 71.765 14.905 71.5243 14.905ZM73.8043 10.953C73.9183 10.9277 74.1336 10.6933 74.4503 10.25C74.767 9.80667 74.9443 9.528 74.9823 9.414C75.033 9.3 75.1216 9.072 75.2483 8.73C75.375 8.388 75.47 8.12833 75.5333 7.951C75.3686 7.837 75.223 7.78 75.0963 7.78C75.0583 7.78 74.9506 7.80533 74.7733 7.856C73.8233 8.13467 73.2153 8.73 72.9493 9.642C72.9113 9.80667 72.8923 9.965 72.8923 10.117C72.8923 10.3703 72.9493 10.5857 73.0633 10.763C73.1773 10.9277 73.3356 11.01 73.5383 11.01C73.627 11.01 73.7156 10.991 73.8043 10.953ZM3.743 31.886C3.67967 31.9113 3.515 31.8607 3.249 31.734C2.983 31.5947 2.78667 31.4553 2.66 31.316C2.53333 31.164 2.432 31.0247 2.356 30.898C2.29267 30.7713 2.261 30.6257 2.261 30.461C2.185 30.2837 2.13433 30.1063 2.109 29.929C2.09633 29.739 2.09 29.4983 2.09 29.207C2.09 28.941 2.14067 28.6813 2.242 28.428C2.34333 28.1747 2.48267 27.8707 2.66 27.516C2.774 27.1993 3.02733 26.813 3.42 26.357C3.82533 25.8883 4.24967 25.5463 4.693 25.331C5.04767 25.141 5.35167 25.046 5.605 25.046C5.757 25.046 5.90267 25.0713 6.042 25.122C6.194 25.16 6.308 25.2233 6.384 25.312C6.46 25.388 6.517 25.4387 6.555 25.464C6.65633 25.3627 6.745 25.1347 6.821 24.78C6.90967 24.4127 6.954 24.02 6.954 23.602C6.954 22.8167 6.821 22.2467 6.555 21.892C6.137 21.2967 5.64933 20.999 5.092 20.999C4.87667 20.999 4.61067 21.0623 4.294 21.189C4.12933 21.113 3.99 20.9863 3.876 20.809C3.762 20.6317 3.73033 20.4607 3.781 20.296C4.07233 20.0553 4.351 19.9097 4.617 19.859C4.87033 19.8083 5.054 19.783 5.168 19.783C5.38333 19.783 5.57333 19.8337 5.738 19.935C6.37133 20.1377 6.859 20.429 7.201 20.809C7.543 21.189 7.77733 21.6387 7.904 22.158C8.04333 22.6773 8.12567 23.3297 8.151 24.115C8.16367 24.229 8.17 24.381 8.17 24.571C8.17 24.7357 8.151 25.027 8.113 25.445C8.037 25.5463 7.99267 25.673 7.98 25.825C7.96733 25.977 7.961 26.0657 7.961 26.091C7.961 26.3443 7.93567 26.528 7.885 26.642C7.87233 26.8067 7.82167 26.984 7.733 27.174C7.64433 27.364 7.6 27.497 7.6 27.573C7.23267 28.6117 6.70067 29.5427 6.004 30.366C5.30733 31.1893 4.55367 31.696 3.743 31.886ZM3.629 30.651C3.80633 30.727 4.11033 30.5877 4.541 30.233C4.98433 29.8657 5.35167 29.473 5.643 29.055C5.719 28.941 5.83933 28.7257 6.004 28.409C6.16867 28.0797 6.289 27.8327 6.365 27.668C6.50433 27.288 6.574 26.946 6.574 26.642C6.574 26.4267 6.536 26.281 6.46 26.205C6.35867 26.1037 6.22567 26.053 6.061 26.053C5.74433 26.053 5.358 26.2113 4.902 26.528C4.75 26.642 4.598 26.8003 4.446 27.003C4.30667 27.193 4.218 27.3133 4.18 27.364C4.05333 27.5667 3.952 27.7123 3.876 27.801V27.839C3.876 27.9277 3.838 28.0037 3.762 28.067C3.69867 28.1303 3.65433 28.181 3.629 28.219C3.48967 28.485 3.38833 28.7573 3.325 29.036C3.26167 29.302 3.23 29.492 3.23 29.606C3.23 29.834 3.26167 30.0493 3.325 30.252C3.401 30.4547 3.50233 30.5877 3.629 30.651ZM9.90924 31.715C9.75724 31.715 9.63691 31.6897 9.54824 31.639C9.45958 31.5883 9.33291 31.4933 9.16824 31.354C8.75024 30.9107 8.54124 30.5053 8.54124 30.138C8.54124 30.0493 8.54758 29.986 8.56024 29.948C8.59824 29.8593 8.61091 29.7707 8.59824 29.682C8.59824 29.5933 8.59824 29.5363 8.59824 29.511C8.54758 29.4603 8.52224 29.4287 8.52224 29.416C8.52224 29.3907 8.53491 29.3717 8.56024 29.359C8.58558 29.3337 8.60458 29.3083 8.61724 29.283C8.69324 29.283 8.71858 29.2133 8.69324 29.074C8.66791 28.9727 8.71858 28.751 8.84524 28.409C8.97191 28.0543 9.13024 27.7313 9.32024 27.44C9.45958 27.212 9.66224 26.927 9.92824 26.585C10.2069 26.243 10.4539 25.9833 10.6692 25.806C10.9732 25.54 11.2456 25.3437 11.4862 25.217C11.7269 25.0903 11.9929 24.9953 12.2842 24.932C12.5376 24.8687 12.7086 24.837 12.7972 24.837C12.8859 24.837 12.9619 24.8623 13.0252 24.913C13.1012 24.951 13.1962 25.027 13.3102 25.141C13.6522 25.293 13.8866 25.4893 14.0132 25.73C14.1526 25.958 14.2222 26.319 14.2222 26.813C14.2222 27.6363 13.8866 28.5293 13.2152 29.492C12.9239 29.91 12.6516 30.233 12.3982 30.461C12.1449 30.6763 11.8092 30.9107 11.3912 31.164C11.1252 31.354 10.8782 31.4933 10.6502 31.582C10.4349 31.658 10.1879 31.7023 9.90924 31.715ZM11.7332 29.701C12.0372 29.359 12.2779 29.036 12.4552 28.732C12.6452 28.428 12.8226 28.0417 12.9872 27.573C13.0506 27.3577 13.0822 27.098 13.0822 26.794C13.0822 26.414 13.0316 26.1987 12.9302 26.148C12.8036 26.0847 12.6769 26.053 12.5502 26.053C12.2716 26.053 11.9802 26.1797 11.6762 26.433C11.3089 26.7497 10.9796 27.1423 10.6882 27.611C10.3969 28.067 10.0992 28.637 9.79524 29.321C9.66858 29.587 9.60524 29.8467 9.60524 30.1C9.60524 30.29 9.64958 30.442 9.73824 30.556C9.83958 30.67 9.97258 30.727 10.1372 30.727C10.5552 30.727 11.0872 30.385 11.7332 29.701ZM17.2915 31.563C16.8988 31.563 16.6392 31.544 16.5125 31.506C16.3858 31.4553 16.2402 31.354 16.0755 31.202C15.9488 30.9487 15.8222 30.7587 15.6955 30.632C15.6448 30.4927 15.6195 30.2837 15.6195 30.005C15.6195 29.6883 15.6575 29.3463 15.7335 28.979C15.8095 28.599 15.9108 28.2443 16.0375 27.915C16.0882 27.8137 16.1262 27.7187 16.1515 27.63C16.1895 27.5413 16.2148 27.4843 16.2275 27.459C16.2275 27.3703 16.3858 27.098 16.7025 26.642C17.0318 26.1733 17.2915 25.8503 17.4815 25.673C17.5702 25.5717 17.7032 25.464 17.8805 25.35C18.0705 25.236 18.2352 25.1537 18.3745 25.103C18.7292 24.9763 19.0395 24.913 19.3055 24.913C19.6728 24.913 19.9832 25.084 20.2365 25.426C20.5152 25.7047 20.6545 26.015 20.6545 26.357C20.6545 26.4837 20.6355 26.623 20.5975 26.775C20.4708 27.2817 20.2872 27.535 20.0465 27.535C19.8818 27.535 19.7235 27.44 19.5715 27.25C19.5208 27.1233 19.4955 27.041 19.4955 27.003C19.4955 26.965 19.5208 26.8573 19.5715 26.68C19.5968 26.5533 19.6095 26.4647 19.6095 26.414C19.6095 26.262 19.5842 26.129 19.5335 26.015C19.4828 25.901 19.4132 25.844 19.3245 25.844C19.0332 25.844 18.6532 26.0973 18.1845 26.604C18.0198 26.7813 17.8045 27.06 17.5385 27.44C17.2852 27.82 17.0952 28.162 16.9685 28.466C16.8418 28.846 16.7405 29.1563 16.6645 29.397C16.5885 29.6377 16.5378 29.7897 16.5125 29.853C16.5125 29.8783 16.5252 29.9227 16.5505 29.986C16.5885 30.0493 16.6075 30.1 16.6075 30.138C16.6075 30.2267 16.6265 30.2963 16.6645 30.347C16.7025 30.3977 16.7722 30.4483 16.8735 30.499C17.0128 30.6003 17.1775 30.651 17.3675 30.651C17.5702 30.651 17.8045 30.5877 18.0705 30.461C18.2352 30.385 18.4695 30.2203 18.7735 29.967L19.2295 29.625C19.3182 29.5617 19.3942 29.511 19.4575 29.473C19.5335 29.4223 19.5905 29.3907 19.6285 29.378C19.6665 29.3527 19.6855 29.3527 19.6855 29.378C19.6855 29.4287 19.7045 29.454 19.7425 29.454C19.7805 29.454 19.8248 29.4287 19.8755 29.378C19.9895 29.226 20.1352 29.15 20.3125 29.15C20.4138 29.15 20.4645 29.169 20.4645 29.207L20.4455 29.302C20.4455 29.3653 20.4772 29.4287 20.5405 29.492C20.5405 29.5427 20.5215 29.6123 20.4835 29.701C20.4582 29.777 20.4202 29.8403 20.3695 29.891C20.2935 30.005 20.1605 30.1443 19.9705 30.309C19.7932 30.461 19.6728 30.5623 19.6095 30.613H19.5905C19.5272 30.613 19.4385 30.67 19.3245 30.784C19.1345 30.9613 18.9698 31.05 18.8305 31.05C18.7798 31.0753 18.7228 31.107 18.6595 31.145C18.5962 31.1703 18.5645 31.202 18.5645 31.24C18.4378 31.3667 18.2858 31.4553 18.1085 31.506C17.9312 31.544 17.6588 31.563 17.2915 31.563ZM30.9636 30.347C31.0143 30.385 31.0396 30.442 31.0396 30.518C31.0396 30.6067 31.008 30.6953 30.9446 30.784C30.894 30.86 30.8433 30.898 30.7926 30.898C30.552 30.898 30.3176 30.8347 30.0896 30.708C29.8743 30.5687 29.7666 30.3533 29.7666 30.062V28.884C29.7666 28.2887 29.7223 27.953 29.6336 27.877C29.4436 27.7757 29.1143 27.9847 28.6456 28.504C28.1896 29.0233 27.7463 29.6377 27.3156 30.347C27.1763 30.575 27.0623 30.7523 26.9736 30.879C26.885 31.0057 26.8153 31.069 26.7646 31.069C26.7266 31.069 26.6633 31.0373 26.5746 30.974C26.182 30.86 25.9856 30.6383 25.9856 30.309C25.9856 30.271 25.9983 30.1887 26.0236 30.062C26.1503 29.644 26.277 29.1817 26.4036 28.675C26.5303 28.1557 26.6316 27.7187 26.7076 27.364C26.6696 27.288 26.6063 27.25 26.5176 27.25C26.391 27.25 26.2453 27.3133 26.0806 27.44C25.764 27.6553 25.3586 28.1683 24.8646 28.979C24.244 29.929 23.8133 30.5053 23.5726 30.708C23.484 30.86 23.4016 30.9803 23.3256 31.069C23.2623 31.145 23.199 31.183 23.1356 31.183C23.085 31.183 22.99 31.145 22.8506 31.069C22.4833 30.8537 22.2996 30.5497 22.2996 30.157C22.2996 29.967 22.3566 29.587 22.4706 29.017C22.5846 28.447 22.7113 27.915 22.8506 27.421C22.9646 27.2057 23.066 26.984 23.1546 26.756C23.256 26.5153 23.3066 26.3697 23.3066 26.319C23.3573 26.053 23.4206 25.768 23.4966 25.464C23.5726 25.16 23.6296 24.989 23.6676 24.951C23.7563 24.8623 23.8576 24.818 23.9716 24.818C24.1616 24.818 24.301 24.9193 24.3896 25.122C24.529 25.2613 24.5986 25.4387 24.5986 25.654C24.5986 25.8947 24.529 26.205 24.3896 26.585C24.1743 27.0537 23.94 27.7377 23.6866 28.637C23.9526 28.3457 24.1426 28.1177 24.2566 27.953C24.5606 27.5223 24.9533 27.041 25.4346 26.509C25.8273 26.0783 26.2706 25.863 26.7646 25.863C27.3473 25.9643 27.683 26.452 27.7716 27.326C27.7716 27.478 27.759 27.668 27.7336 27.896C27.7083 28.1113 27.6893 28.2507 27.6766 28.314C27.7273 28.238 27.854 28.0733 28.0566 27.82C28.272 27.5667 28.5316 27.307 28.8356 27.041C29.1143 26.8257 29.374 26.718 29.6146 26.718C29.8173 26.718 29.9946 26.8003 30.1466 26.965C30.4126 27.117 30.6026 27.3323 30.7166 27.611C30.8306 27.877 30.8876 28.219 30.8876 28.637C30.8876 28.8523 30.8813 29.0233 30.8686 29.15C30.8433 29.4033 30.8306 29.5617 30.8306 29.625C30.8306 29.8657 30.875 30.1063 30.9636 30.347ZM34.2045 31.449C34.0778 31.4743 33.9638 31.487 33.8625 31.487C33.6978 31.487 33.5458 31.4743 33.4065 31.449C33.2671 31.411 33.1975 31.3667 33.1975 31.316C33.1975 31.278 33.1911 31.2527 33.1785 31.24C33.1658 31.2273 33.1405 31.221 33.1025 31.221C33.0898 31.2083 33.0518 31.1767 32.9885 31.126C32.9251 31.0753 32.8491 31.031 32.7605 30.993C32.6465 30.8157 32.5895 30.6257 32.5895 30.423C32.5895 30.2077 32.6465 29.872 32.7605 29.416C32.7985 29.0107 32.9885 28.504 33.3305 27.896C33.6725 27.288 34.0715 26.7117 34.5275 26.167C34.9961 25.6223 35.4141 25.2423 35.7815 25.027C35.9715 24.837 36.2121 24.742 36.5035 24.742C36.7315 24.742 36.9468 24.799 37.1495 24.913C37.3268 25.0143 37.5105 25.1853 37.7005 25.426C37.9031 25.6667 38.0615 25.9137 38.1755 26.167C38.2261 26.357 38.2515 26.5407 38.2515 26.718C38.2515 26.908 38.2261 27.2057 38.1755 27.611C38.1121 27.839 38.0551 28.1177 38.0045 28.447C37.9665 28.7763 37.9475 29.0613 37.9475 29.302C37.9221 29.4793 37.9348 29.625 37.9855 29.739C38.0361 29.8403 38.1058 29.891 38.1945 29.891C38.2578 29.891 38.3275 29.872 38.4035 29.834C38.5301 29.7707 38.6695 29.739 38.8215 29.739C38.9608 29.739 39.0748 29.777 39.1635 29.853C39.2521 29.929 39.2965 30.043 39.2965 30.195C39.2965 30.423 39.1381 30.651 38.8215 30.879C38.5175 31.107 38.2261 31.221 37.9475 31.221C37.7575 31.221 37.5801 31.0753 37.4155 30.784C37.2635 30.48 37.1115 30.0937 36.9595 29.625L36.8455 29.188L36.0285 29.967L35.5915 30.404C35.3888 30.6067 35.2748 30.727 35.2495 30.765C35.1101 31.0057 34.7618 31.2337 34.2045 31.449ZM34.2615 30.328C34.5655 30.1507 34.9391 29.8403 35.3825 29.397C35.8258 28.9537 36.1931 28.5293 36.4845 28.124C36.8771 27.6047 37.1241 27.0917 37.2255 26.585C37.1748 26.433 37.0925 26.281 36.9785 26.129C36.8645 25.977 36.7631 25.8947 36.6745 25.882C36.4211 25.882 36.1551 26.0277 35.8765 26.319C35.5978 26.6103 35.2685 27.0157 34.8885 27.535L34.2615 28.466C34.1855 28.5673 34.0525 28.8397 33.8625 29.283C33.6725 29.7137 33.5775 29.9733 33.5775 30.062C33.5775 30.3407 33.6598 30.48 33.8245 30.48C33.9511 30.48 34.0968 30.4293 34.2615 30.328ZM41.8684 31.943C41.8304 31.943 41.7038 31.9493 41.4884 31.962C41.2858 31.962 41.0894 31.9177 40.8994 31.829C40.7094 31.7277 40.5511 31.5757 40.4244 31.373C40.3358 31.2083 40.2598 31.0183 40.1964 30.803C40.1331 30.5877 40.1014 30.404 40.1014 30.252C40.1014 30.1887 40.1141 30.119 40.1394 30.043C40.3801 28.6497 40.5764 27.7693 40.7284 27.402L41.0324 26.661C41.0958 26.4583 41.1148 26.2303 41.0894 25.977V25.901C41.0894 25.7363 41.1528 25.597 41.2794 25.483C41.4948 25.3183 41.6658 25.103 41.7924 24.837C41.8811 24.6217 42.0204 24.3303 42.2104 23.963C42.4004 23.5957 42.5398 23.355 42.6284 23.241C42.7678 23.051 42.8944 22.8673 43.0084 22.69C43.0338 22.652 43.1224 22.519 43.2744 22.291C43.4391 22.0503 43.6228 21.8477 43.8254 21.683C44.0661 21.2777 44.5411 20.79 45.2504 20.22C45.5544 19.9667 45.7444 19.802 45.8204 19.726C45.8584 19.688 45.9724 19.65 46.1624 19.612C46.3524 19.5613 46.4728 19.5297 46.5234 19.517C46.6248 19.4917 46.7958 19.4473 47.0364 19.384C47.1124 19.346 47.2518 19.3777 47.4544 19.479C47.6698 19.5677 47.8281 19.669 47.9294 19.783C48.1321 20.1377 48.2334 20.4163 48.2334 20.619C48.2334 20.7837 48.1954 20.9673 48.1194 21.17C48.0434 21.3727 47.8978 21.702 47.6824 22.158C47.2264 23.07 46.3968 23.9377 45.1934 24.761C44.7374 25.1663 44.2244 25.521 43.6544 25.825C43.2364 26.0403 42.8944 26.1923 42.6284 26.281C42.4258 26.3443 42.2801 26.49 42.1914 26.718C42.1408 26.832 42.0964 26.9713 42.0584 27.136C42.0331 27.3007 41.9951 27.4083 41.9444 27.459C41.8684 27.535 41.7418 27.9593 41.5644 28.732C41.3871 29.5047 41.2984 30.0303 41.2984 30.309C41.2984 30.4103 41.3111 30.499 41.3364 30.575C41.3618 30.651 41.4188 30.708 41.5074 30.746C41.6848 30.708 41.8241 30.651 41.9254 30.575C42.0394 30.4863 42.1788 30.347 42.3434 30.157C42.6981 29.7137 42.9514 29.2893 43.1034 28.884C43.1414 28.77 43.1794 28.6243 43.2174 28.447C43.2554 28.257 43.2998 28.1113 43.3504 28.01C43.3504 27.5667 43.3441 27.2817 43.3314 27.155C43.3188 27.0157 43.2744 26.851 43.1984 26.661C43.2618 26.623 43.3124 26.585 43.3504 26.547C43.4011 26.4963 43.4644 26.4773 43.5404 26.49C43.8318 26.5533 44.1294 26.7307 44.4334 27.022C44.5221 27.1107 44.5474 27.2183 44.5094 27.345C44.4588 27.7503 44.4334 28.0417 44.4334 28.219C44.3954 28.3077 44.3321 28.504 44.2434 28.808C44.2308 28.9727 44.1928 29.131 44.1294 29.283C43.9014 29.7517 43.7368 30.0683 43.6354 30.233C43.3568 30.7523 42.9768 31.1957 42.4954 31.563L41.8684 31.943ZM42.7424 24.932C42.8058 24.9447 42.8818 24.951 42.9704 24.951C43.0971 24.951 43.2048 24.8877 43.2934 24.761C44.2181 24.153 44.9971 23.564 45.6304 22.994C46.2764 22.4113 46.6754 21.9173 46.8274 21.512C46.8781 21.4107 46.9478 21.284 47.0364 21.132C47.1251 20.9673 47.1821 20.8153 47.2074 20.676L47.1314 20.144C46.7641 20.3087 46.4728 20.467 46.2574 20.619C46.0548 20.7583 45.7951 20.9863 45.4784 21.303C45.1618 21.6197 44.6804 22.1897 44.0344 23.013C43.4011 23.8363 42.9704 24.476 42.7424 24.932ZM46.1768 31.905C46.0248 31.8543 45.8665 31.7087 45.7018 31.468C45.5372 31.2147 45.4548 30.9867 45.4548 30.784L45.7208 29.986L46.0818 28.846C46.1958 28.6813 46.2845 28.485 46.3478 28.257C46.4238 28.0163 46.4682 27.877 46.4808 27.839C46.6075 27.5983 46.8608 27.0157 47.2408 26.091L47.6018 25.217L47.7538 24.856C47.8298 24.666 47.8805 24.514 47.9058 24.4C47.9058 24.2987 47.9312 24.2163 47.9818 24.153C48.0325 24.077 48.0832 24.039 48.1338 24.039C48.1972 23.9757 48.3175 23.944 48.4948 23.944C48.6342 23.944 48.7545 24.0327 48.8558 24.21C48.9572 24.3873 49.0078 24.5583 49.0078 24.723C49.0078 24.8623 48.9445 25.084 48.8178 25.388C48.7038 25.692 48.5772 25.996 48.4378 26.3C48.3238 26.5407 48.2225 26.7687 48.1338 26.984C48.0578 27.1867 48.0388 27.307 48.0768 27.345C48.1275 27.3197 48.2352 27.269 48.3998 27.193C48.5645 27.1043 48.7355 26.9967 48.9128 26.87C49.0268 26.8067 49.1345 26.7433 49.2358 26.68C49.3372 26.604 49.4258 26.5407 49.5018 26.49C49.8945 26.224 50.1352 26.0783 50.2238 26.053C50.2998 26.0023 50.4455 25.9137 50.6608 25.787C50.8888 25.635 51.0092 25.5527 51.0218 25.54C51.1738 25.464 51.3005 25.426 51.4018 25.426C51.4778 25.426 51.5475 25.4513 51.6108 25.502C51.6742 25.5527 51.7502 25.6287 51.8388 25.73C51.9148 25.8187 51.9528 25.9073 51.9528 25.996C51.9528 26.0847 51.9022 26.1797 51.8008 26.281C51.6995 26.3697 51.5285 26.49 51.2878 26.642C51.1232 26.756 50.9522 26.8637 50.7748 26.965C50.5975 27.0663 50.4265 27.1677 50.2618 27.269C49.3498 27.8263 48.8812 28.124 48.8558 28.162C48.8812 28.2127 48.9382 28.3267 49.0268 28.504C49.1282 28.6813 49.2232 28.8333 49.3118 28.96L49.5968 29.454C49.7488 29.6693 49.8248 29.8087 49.8248 29.872C49.9388 30.1887 50.0908 30.4357 50.2808 30.613C50.4835 30.7903 50.6988 30.879 50.9268 30.879C51.0408 30.879 51.1738 30.8473 51.3258 30.784C51.5158 30.708 51.6678 30.67 51.7818 30.67C51.9592 30.67 52.0795 30.7713 52.1428 30.974C52.1808 31.05 52.1998 31.107 52.1998 31.145C52.1998 31.1957 52.1112 31.3097 51.9338 31.487C51.6045 31.8163 51.2688 31.981 50.9268 31.981C50.8128 31.981 50.6798 31.9493 50.5278 31.886C50.3378 31.8987 50.0972 31.772 49.8058 31.506C49.5272 31.24 49.1345 30.7777 48.6278 30.119C48.6278 30.0683 48.5582 29.9037 48.4188 29.625C48.3682 29.511 48.3112 29.4097 48.2478 29.321C48.1845 29.2197 48.1402 29.15 48.1148 29.112C48.1148 29.0613 48.0832 28.998 48.0198 28.922C47.9692 28.8333 47.9312 28.7637 47.9058 28.713C47.7665 28.675 47.6525 28.6877 47.5638 28.751C47.4878 28.8143 47.4118 28.903 47.3358 29.017C47.2725 29.131 47.2218 29.2133 47.1838 29.264C47.0572 29.5933 46.9305 29.9987 46.8038 30.48C46.6772 30.9487 46.6328 31.2527 46.6708 31.392C46.6708 31.5947 46.6392 31.734 46.5758 31.81C46.5125 31.8733 46.3795 31.905 46.1768 31.905ZM54.0663 31.373C53.8383 31.4237 53.5913 31.354 53.3253 31.164C53.0593 30.974 52.9009 30.765 52.8503 30.537C52.8376 30.4863 52.8313 30.404 52.8313 30.29C52.8313 29.8213 53.0086 29.2197 53.3633 28.485C53.7306 27.7377 54.1739 27.0537 54.6933 26.433C55.2126 25.7997 55.6876 25.4007 56.1183 25.236C56.3843 25.0967 56.5553 25.027 56.6313 25.027C56.7073 25.027 56.8783 25.0967 57.1443 25.236C57.3216 25.2867 57.4546 25.3437 57.5433 25.407C57.6319 25.4703 57.7459 25.597 57.8853 25.787C58.0499 26.1163 58.1703 26.5217 58.2463 27.003C58.3223 27.269 58.3603 27.459 58.3603 27.573C58.3603 27.6743 58.3223 27.763 58.2463 27.839C58.2336 27.8517 58.2083 27.877 58.1703 27.915C58.1449 27.953 58.1323 27.9847 58.1323 28.01C58.1323 28.0227 58.1449 28.029 58.1703 28.029C58.1703 28.0417 58.1639 28.0733 58.1513 28.124C58.1386 28.162 58.1133 28.219 58.0753 28.295C57.9233 28.7763 57.8473 29.188 57.8473 29.53C57.8473 29.644 57.8599 29.7643 57.8853 29.891C58.0119 30.2203 58.2273 30.385 58.5313 30.385C58.7846 30.385 59.0253 30.271 59.2533 30.043C59.4559 29.9037 59.6016 29.8087 59.6903 29.758C59.7916 29.6947 59.8423 29.7073 59.8423 29.796C59.8549 29.8087 59.8803 29.8277 59.9183 29.853C59.9563 29.8783 59.9943 29.891 60.0323 29.891C60.1209 29.891 60.1653 29.948 60.1653 30.062C60.1653 30.176 60.1209 30.3027 60.0323 30.442C59.9436 30.5307 59.8739 30.6067 59.8233 30.67C59.7726 30.7333 59.7473 30.784 59.7473 30.822L59.4623 31.088C59.2216 31.2273 58.9366 31.297 58.6073 31.297C58.2653 31.297 57.9929 31.2273 57.7903 31.088C57.6129 30.9613 57.4419 30.7777 57.2773 30.537C57.1126 30.2963 57.0049 30.081 56.9543 29.891L56.8593 29.701L56.3083 30.062C56.1816 30.1887 56.0359 30.3217 55.8713 30.461C55.7066 30.5877 55.5989 30.6763 55.5483 30.727C55.4469 30.8537 55.3583 30.917 55.2823 30.917H55.0923C55.0923 31.0057 54.9656 31.107 54.7123 31.221C54.4716 31.3223 54.2563 31.373 54.0663 31.373ZM53.8763 30.347C54.0156 30.347 54.3703 30.1507 54.9403 29.758C55.5103 29.3527 55.8713 29.055 56.0233 28.865L56.5743 28.295C56.7769 28.067 56.9353 27.8073 57.0493 27.516C57.1759 27.2247 57.2393 26.9587 57.2393 26.718C57.2393 26.5027 57.2076 26.3507 57.1443 26.262C57.0936 26.11 57.0176 26.034 56.9163 26.034C56.8656 26.034 56.7199 26.0783 56.4793 26.167C56.2386 26.319 55.8966 26.6673 55.4533 27.212C55.0226 27.7567 54.6363 28.3203 54.2943 28.903C53.9523 29.473 53.7813 29.891 53.7813 30.157C53.7813 30.195 53.7939 30.233 53.8193 30.271C53.8446 30.309 53.8636 30.3343 53.8763 30.347ZM6.441 48.962C6.137 48.6707 5.909 48.24 5.757 47.67C5.73167 47.594 5.719 47.461 5.719 47.271C5.719 47.081 5.719 46.948 5.719 46.872C5.643 47.062 5.50367 47.233 5.301 47.385C5.00967 47.6763 4.71833 47.8917 4.427 48.031C3.98367 48.3223 3.62267 48.468 3.344 48.468C3.09067 48.468 2.85 48.3287 2.622 48.05C2.45733 47.9107 2.33067 47.7713 2.242 47.632C2.166 47.4927 2.128 47.3217 2.128 47.119C2.128 46.9797 2.147 46.8277 2.185 46.663C2.21033 46.1943 2.27367 45.7447 2.375 45.314C2.489 44.8833 2.698 44.3323 3.002 43.661C3.40733 42.863 3.69867 42.331 3.876 42.065C3.93933 42.0397 4.02167 42.027 4.123 42.027C4.24967 42.027 4.351 42.065 4.427 42.141C4.51567 42.217 4.56633 42.3183 4.579 42.445C4.617 42.4957 4.636 42.5653 4.636 42.654C4.636 42.9707 4.446 43.49 4.066 44.212C3.572 45.4027 3.325 46.226 3.325 46.682C3.325 46.948 3.401 47.1063 3.553 47.157C3.61633 47.195 3.686 47.214 3.762 47.214C4.07867 47.214 4.45867 46.9987 4.902 46.568C5.34533 46.1373 5.76967 45.447 6.175 44.497C6.35233 44.0663 6.46 43.623 6.498 43.167C6.48533 43.129 6.479 43.072 6.479 42.996C6.479 42.768 6.593 42.5843 6.821 42.445C6.87167 42.369 6.94133 42.312 7.03 42.274C7.11867 42.2233 7.17567 42.2233 7.201 42.274L7.505 42.255C7.543 42.2423 7.581 42.2803 7.619 42.369C7.657 42.445 7.695 42.4957 7.733 42.521C7.82167 42.597 7.866 42.7363 7.866 42.939C7.866 43.357 7.68233 43.9967 7.315 44.858C7.07433 45.3647 6.90967 45.7573 6.821 46.036C6.745 46.302 6.70067 46.5617 6.688 46.815C6.688 47.2963 6.87167 47.6953 7.239 48.012C7.36567 48.1007 7.44167 48.1957 7.467 48.297C7.49233 48.3983 7.49867 48.5377 7.486 48.715C7.46067 48.829 7.38467 48.924 7.258 49C7.144 49.0633 7.01733 49.095 6.878 49.095C6.71333 49.095 6.56767 49.0507 6.441 48.962ZM18.9868 41.951C19.0881 42.1537 19.1388 42.3753 19.1388 42.616C19.1388 42.996 19.0375 43.338 18.8348 43.642C18.7081 43.8193 18.5941 44.0853 18.4928 44.44C18.4041 44.7947 18.3155 45.2697 18.2268 45.865C18.1128 46.3463 17.9735 47.0873 17.8088 48.088C17.6061 48.62 17.4795 49.019 17.4288 49.285C17.4161 49.361 17.3528 49.5193 17.2388 49.76C17.1375 50.0007 17.0551 50.1907 16.9918 50.33C16.4978 51.356 15.9341 52.1413 15.3008 52.686C14.6675 53.2307 13.9771 53.5283 13.2298 53.579C13.0271 53.6043 12.9068 53.617 12.8688 53.617C12.7548 53.617 12.6471 53.598 12.5458 53.56C12.4571 53.522 12.3558 53.4713 12.2418 53.408C12.1911 53.3827 12.1215 53.3383 12.0328 53.275C11.9441 53.2117 11.8808 53.161 11.8428 53.123C11.8175 53.0977 11.8048 53.066 11.8048 53.028C11.8048 52.9647 11.8428 52.9013 11.9188 52.838C11.9948 52.7747 12.1151 52.743 12.2798 52.743C12.3685 52.7937 12.5205 52.819 12.7358 52.819C12.9511 52.819 13.0778 52.7937 13.1158 52.743C13.1411 52.7177 13.2171 52.6733 13.3438 52.61C13.4705 52.5593 13.6161 52.515 13.7808 52.477C14.1735 52.287 14.5218 52.04 14.8258 51.736C15.1425 51.4447 15.4338 51.071 15.6998 50.615C16.0165 50.1337 16.2255 49.6967 16.3268 49.304C16.4408 49.038 16.5675 48.658 16.7068 48.164C16.8588 47.6573 16.9791 47.2013 17.0678 46.796L16.8208 47.024C16.7575 47.1 16.5991 47.214 16.3458 47.366C16.0925 47.5053 15.9405 47.575 15.8898 47.575C15.8771 47.575 15.8581 47.5813 15.8328 47.594C15.8075 47.6067 15.7948 47.632 15.7948 47.67C15.7948 47.7207 15.6301 47.803 15.3008 47.917C14.9715 48.0183 14.7625 48.069 14.6738 48.069C14.5471 48.069 14.4078 48.0057 14.2558 47.879C14.1165 47.7397 14.0151 47.6067 13.9518 47.48C13.9138 47.3913 13.8631 47.29 13.7998 47.176C13.7365 47.062 13.6858 46.9543 13.6478 46.853C13.6098 46.739 13.5908 46.6123 13.5908 46.473C13.5908 46.3083 13.6035 46.1817 13.6288 46.093C13.7808 45.523 14.0341 44.7187 14.3888 43.68C14.7561 42.6413 15.0348 41.9763 15.2248 41.685C15.3261 41.5457 15.4465 41.476 15.5858 41.476C15.7758 41.476 15.9278 41.5773 16.0418 41.78C16.1558 41.932 16.2128 42.0587 16.2128 42.16C16.2128 42.236 16.1811 42.3437 16.1178 42.483C16.0545 42.6223 15.9721 42.787 15.8708 42.977C15.8201 43.1163 15.7568 43.2683 15.6808 43.433C15.6048 43.5977 15.5668 43.699 15.5668 43.737C15.5541 43.7877 15.5161 43.946 15.4528 44.212C15.3895 44.4653 15.3325 44.592 15.2818 44.592C15.1931 44.668 15.0981 44.9593 14.9968 45.466C14.8955 45.9727 14.8448 46.3653 14.8448 46.644C14.8448 46.7833 14.8638 46.853 14.9018 46.853C15.6491 46.853 16.4598 46.2957 17.3338 45.181C17.4478 44.6237 17.5491 44.155 17.6378 43.775C17.8025 43.129 17.9291 42.5527 18.0178 42.046C18.0938 41.8687 18.1508 41.7673 18.1888 41.742C18.2268 41.704 18.3091 41.685 18.4358 41.685C18.5878 41.685 18.6955 41.6977 18.7588 41.723C18.8221 41.7483 18.8981 41.8243 18.9868 41.951ZM22.0804 48.791C21.903 48.8163 21.77 48.829 21.6814 48.829C21.2127 48.829 20.8264 48.6833 20.5224 48.392C20.2184 48.1007 20.0664 47.6953 20.0664 47.176C20.0157 46.6187 20.136 45.9283 20.4274 45.105C20.7314 44.2817 21.1114 43.5913 21.5674 43.034C21.884 42.6667 22.1564 42.369 22.3844 42.141C22.6124 41.913 22.8214 41.761 23.0114 41.685C23.2774 41.571 23.575 41.514 23.9044 41.514C24.1324 41.5647 24.354 41.6597 24.5694 41.799C24.7974 41.9383 24.9114 42.0777 24.9114 42.217L25.0064 42.312C25.0824 42.312 25.152 42.407 25.2154 42.597C25.2787 42.7743 25.3104 42.9707 25.3104 43.186C25.3104 43.3633 25.2787 43.5153 25.2154 43.642C25.1647 43.8827 25.076 44.0917 24.9494 44.269C24.8354 44.4463 24.7214 44.535 24.6074 44.535C24.468 44.535 24.3984 44.573 24.3984 44.649C24.3984 44.6997 24.373 44.725 24.3224 44.725C24.259 44.725 24.183 44.687 24.0944 44.611C24.0057 44.535 23.9424 44.4463 23.9044 44.345C23.9044 44.307 23.9297 44.1993 23.9804 44.022C24.031 43.8447 24.0817 43.6483 24.1324 43.433C24.1704 43.281 24.1894 43.148 24.1894 43.034C24.1894 42.7807 24.0944 42.654 23.9044 42.654C23.803 42.654 23.7017 42.6793 23.6004 42.73C23.0937 43.0087 22.644 43.452 22.2514 44.06C21.8587 44.668 21.5294 45.504 21.2634 46.568C21.2 46.8467 21.1684 47.0683 21.1684 47.233C21.1684 47.3597 21.1747 47.461 21.1874 47.537C21.2127 47.613 21.238 47.6573 21.2634 47.67C21.3267 47.6953 21.4597 47.708 21.6624 47.708C22.131 47.708 22.4604 47.651 22.6504 47.537C23.0557 47.3217 23.5054 47.0303 23.9994 46.663C24.05 46.625 24.126 46.5617 24.2274 46.473C24.3287 46.3717 24.4237 46.302 24.5124 46.264C24.601 46.1247 24.6834 46.0423 24.7594 46.017C24.8354 45.979 24.9557 45.96 25.1204 45.96C25.285 46.0107 25.418 46.0803 25.5194 46.169C25.6207 46.245 25.6207 46.3083 25.5194 46.359C25.4814 46.359 25.456 46.3717 25.4434 46.397C25.4307 46.4223 25.4244 46.4413 25.4244 46.454C25.4497 46.5173 25.3484 46.6757 25.1204 46.929C24.8924 47.1823 24.639 47.423 24.3604 47.651C24.0817 47.8663 23.8917 47.974 23.7904 47.974C23.7397 47.974 23.6954 47.9803 23.6574 47.993C23.6194 48.0057 23.6004 48.0373 23.6004 48.088C23.6004 48.1387 23.404 48.259 23.0114 48.449C22.6314 48.6263 22.321 48.7403 22.0804 48.791ZM27.2953 48.297C27.1939 48.1703 27.1433 48.0437 27.1433 47.917C27.1433 47.8157 27.1116 47.765 27.0483 47.765C26.9723 47.689 27.1179 47.2583 27.4853 46.473C27.8526 45.675 28.1693 45.067 28.4353 44.649C28.4859 44.611 28.5239 44.5603 28.5493 44.497C28.5746 44.421 28.5746 44.383 28.5493 44.383C28.5746 44.345 28.6126 44.2817 28.6633 44.193C28.7139 44.1043 28.7646 44.0283 28.8153 43.965C29.0306 43.547 29.1193 43.2113 29.0813 42.958C29.0306 42.9073 28.9736 42.8883 28.9103 42.901C28.8596 42.9137 28.8279 42.9263 28.8153 42.939C28.7899 42.9517 28.7203 42.977 28.6063 43.015C28.5049 43.0403 28.4163 43.0783 28.3403 43.129C28.0489 43.319 27.8653 43.414 27.7893 43.414C27.7133 43.414 27.6436 43.376 27.5803 43.3C27.5296 43.224 27.4726 43.0973 27.4093 42.92C27.3713 42.806 27.3523 42.7237 27.3523 42.673C27.3523 42.5843 27.4029 42.4957 27.5043 42.407C27.5803 42.331 27.6689 42.274 27.7703 42.236C27.8843 42.1853 27.9603 42.1473 27.9983 42.122C28.2643 41.97 28.4543 41.8813 28.5683 41.856C28.7963 41.7927 28.9799 41.761 29.1193 41.761C29.4993 41.761 29.7653 41.9383 29.9173 42.293C30.0946 42.5083 30.1833 42.7553 30.1833 43.034C30.1833 43.2747 30.0946 43.585 29.9173 43.965L29.7273 44.25C29.6893 44.326 29.6703 44.3767 29.6703 44.402C29.6703 44.4273 29.6766 44.44 29.6893 44.44C29.7399 44.44 29.7969 44.3957 29.8603 44.307C29.9236 44.2437 30.0059 44.1677 30.1073 44.079C30.2086 43.9777 30.2783 43.927 30.3163 43.927C30.3289 43.927 30.3479 43.9207 30.3733 43.908C30.3986 43.8827 30.4113 43.832 30.4113 43.756L30.6013 43.585C30.6519 43.585 30.8039 43.4773 31.0573 43.262L31.4183 42.977C31.5576 42.8757 31.6843 42.825 31.7983 42.825C31.8363 42.8123 31.8933 42.806 31.9693 42.806C32.2099 42.806 32.4063 42.939 32.5583 43.205C32.7103 43.4583 32.7863 43.7877 32.7863 44.193L32.3873 45.219L33.0713 44.383C33.1853 44.2437 33.3373 44.0917 33.5273 43.927C33.5526 43.851 33.5843 43.8067 33.6223 43.794C33.6729 43.7687 33.7046 43.756 33.7173 43.756C33.7299 43.756 33.7426 43.7497 33.7553 43.737C33.7806 43.7243 33.7933 43.7053 33.7933 43.68C33.8439 43.642 33.9073 43.5977 33.9833 43.547C34.0719 43.4837 34.1289 43.433 34.1543 43.395C34.2683 43.3443 34.3949 43.319 34.5343 43.319C34.8003 43.319 35.0219 43.49 35.1993 43.832C35.2753 43.9713 35.3196 44.098 35.3323 44.212C35.3576 44.3133 35.3703 44.4907 35.3703 44.744C35.3196 45.0227 35.2753 45.314 35.2373 45.618C35.2373 45.6687 35.2246 45.7953 35.1993 45.998C35.1359 46.1373 35.1043 46.3527 35.1043 46.644C35.1043 46.8213 35.1106 46.9353 35.1233 46.986C35.1486 47.0367 35.1993 47.062 35.2753 47.062C35.4653 47.024 35.7123 46.9353 36.0163 46.796C36.3329 46.644 36.5609 46.4983 36.7003 46.359C36.8903 46.169 37.0613 46.074 37.2133 46.074C37.3526 46.074 37.4413 46.15 37.4793 46.302C37.5173 46.378 37.4159 46.5807 37.1753 46.91C36.9473 47.2393 36.7889 47.404 36.7003 47.404C36.6749 47.404 36.6243 47.442 36.5483 47.518C36.4849 47.594 36.4343 47.6447 36.3963 47.67C36.1809 47.9107 36.0036 48.031 35.8643 48.031C35.8136 48.031 35.7439 48.05 35.6553 48.088C35.5793 48.1133 35.5096 48.126 35.4463 48.126C35.4209 48.1387 35.3576 48.145 35.2563 48.145C35.0663 48.145 34.8826 48.0943 34.7053 47.993C34.5279 47.8917 34.4139 47.7397 34.3633 47.537C34.2619 47.2837 34.2113 46.929 34.2113 46.473C34.2113 46.359 34.2239 46.1753 34.2493 45.922L34.3443 45.333C34.3696 45.0923 34.3949 44.9467 34.4203 44.896V44.725C34.4203 44.5097 34.4013 44.402 34.3633 44.402C34.2619 44.402 33.9263 44.7313 33.3563 45.39C32.7863 46.036 32.3493 46.5933 32.0453 47.062C31.9566 47.176 31.8553 47.347 31.7413 47.575C31.6399 47.7903 31.5766 47.9043 31.5513 47.917C31.5006 47.9677 31.4436 47.993 31.3803 47.993C31.3043 47.993 31.2219 47.955 31.1333 47.879C31.0446 47.803 30.9686 47.708 30.9053 47.594C30.8546 47.4673 30.8293 47.3723 30.8293 47.309C30.8293 47.2203 30.8673 47.0493 30.9433 46.796C31.0193 46.53 31.1269 46.1817 31.2663 45.751C31.4056 45.333 31.5196 44.972 31.6083 44.668C31.7096 44.364 31.7729 44.1613 31.7983 44.06C31.7983 43.9713 31.4816 44.1993 30.8483 44.744C30.7216 44.896 30.5759 45.0543 30.4113 45.219C30.1199 45.523 29.7906 45.8777 29.4233 46.283C29.0686 46.6883 28.7583 47.0747 28.4923 47.442C28.2136 47.822 28.0046 48.088 27.8653 48.24C27.7386 48.392 27.6309 48.468 27.5423 48.468C27.4789 48.468 27.3966 48.411 27.2953 48.297ZM39.5751 48.373C39.3471 48.4237 39.1001 48.354 38.8341 48.164C38.5681 47.974 38.4097 47.765 38.3591 47.537C38.3464 47.4863 38.3401 47.404 38.3401 47.29C38.3401 46.8213 38.5174 46.2197 38.8721 45.485C39.2394 44.7377 39.6827 44.0537 40.2021 43.433C40.7214 42.7997 41.1964 42.4007 41.6271 42.236C41.8931 42.0967 42.0641 42.027 42.1401 42.027C42.2161 42.027 42.3871 42.0967 42.6531 42.236C42.8304 42.2867 42.9634 42.3437 43.0521 42.407C43.1407 42.4703 43.2547 42.597 43.3941 42.787C43.5587 43.1163 43.6791 43.5217 43.7551 44.003C43.8311 44.269 43.8691 44.459 43.8691 44.573C43.8691 44.6743 43.8311 44.763 43.7551 44.839C43.7424 44.8517 43.7171 44.877 43.6791 44.915C43.6537 44.953 43.6411 44.9847 43.6411 45.01C43.6411 45.0227 43.6537 45.029 43.6791 45.029C43.6791 45.0417 43.6727 45.0733 43.6601 45.124C43.6474 45.162 43.6221 45.219 43.5841 45.295C43.4321 45.7763 43.3561 46.188 43.3561 46.53C43.3561 46.644 43.3687 46.7643 43.3941 46.891C43.5207 47.2203 43.7361 47.385 44.0401 47.385C44.2934 47.385 44.5341 47.271 44.7621 47.043C44.9647 46.9037 45.1104 46.8087 45.1991 46.758C45.3004 46.6947 45.3511 46.7073 45.3511 46.796C45.3637 46.8087 45.3891 46.8277 45.4271 46.853C45.4651 46.8783 45.5031 46.891 45.5411 46.891C45.6297 46.891 45.6741 46.948 45.6741 47.062C45.6741 47.176 45.6297 47.3027 45.5411 47.442C45.4524 47.5307 45.3827 47.6067 45.3321 47.67C45.2814 47.7333 45.2561 47.784 45.2561 47.822L44.9711 48.088C44.7304 48.2273 44.4454 48.297 44.1161 48.297C43.7741 48.297 43.5017 48.2273 43.2991 48.088C43.1217 47.9613 42.9507 47.7777 42.7861 47.537C42.6214 47.2963 42.5137 47.081 42.4631 46.891L42.3681 46.701L41.8171 47.062C41.6904 47.1887 41.5447 47.3217 41.3801 47.461C41.2154 47.5877 41.1077 47.6763 41.0571 47.727C40.9557 47.8537 40.8671 47.917 40.7911 47.917H40.6011C40.6011 48.0057 40.4744 48.107 40.2211 48.221C39.9804 48.3223 39.7651 48.373 39.5751 48.373ZM39.3851 47.347C39.5244 47.347 39.8791 47.1507 40.4491 46.758C41.0191 46.3527 41.3801 46.055 41.5321 45.865L42.0831 45.295C42.2857 45.067 42.4441 44.8073 42.5581 44.516C42.6847 44.2247 42.7481 43.9587 42.7481 43.718C42.7481 43.5027 42.7164 43.3507 42.6531 43.262C42.6024 43.11 42.5264 43.034 42.4251 43.034C42.3744 43.034 42.2287 43.0783 41.9881 43.167C41.7474 43.319 41.4054 43.6673 40.9621 44.212C40.5314 44.7567 40.1451 45.3203 39.8031 45.903C39.4611 46.473 39.2901 46.891 39.2901 47.157C39.2901 47.195 39.3027 47.233 39.3281 47.271C39.3534 47.309 39.3724 47.3343 39.3851 47.347ZM47.178 48.563C47.14 48.5503 47.0324 48.5313 46.855 48.506C46.6777 48.468 46.5257 48.4173 46.399 48.354C46.285 48.278 46.228 48.183 46.228 48.069C46.228 47.841 46.285 47.6763 46.399 47.575L46.437 47.48C46.437 47.4293 46.4244 47.3723 46.399 47.309C46.3737 47.2457 46.3737 47.1823 46.399 47.119C46.4117 47.081 46.4434 46.9987 46.494 46.872C46.5447 46.7327 46.57 46.5743 46.57 46.397C46.57 46.321 46.5764 46.264 46.589 46.226C46.6397 46.0867 46.703 45.865 46.779 45.561C46.9184 45.0797 47.0324 44.7377 47.121 44.535C47.615 43.4963 48.014 42.5653 48.318 41.742C48.4067 41.5267 48.527 41.419 48.679 41.419C48.8184 41.419 48.9704 41.495 49.135 41.647C49.3124 41.7863 49.4454 41.932 49.534 42.084C48.812 43.414 48.4004 44.25 48.299 44.592C48.4637 44.6047 48.66 44.6047 48.888 44.592C48.9767 44.5793 49.116 44.573 49.306 44.573C49.4707 44.573 49.591 44.5793 49.667 44.592C49.7557 44.6047 49.8824 44.611 50.047 44.611C50.237 44.611 50.598 44.573 51.13 44.497L51.32 43.908C51.472 43.3887 51.6177 42.9707 51.757 42.654C51.8964 42.3247 52.0927 42.0777 52.346 41.913C52.384 41.9003 52.4347 41.894 52.498 41.894C52.5867 41.894 52.6817 41.9383 52.783 42.027C52.8337 42.065 52.9034 42.122 52.992 42.198C53.0807 42.2613 53.144 42.3183 53.182 42.369C53.22 42.407 53.239 42.4513 53.239 42.502C53.239 42.5907 53.1567 42.7553 52.992 42.996C52.916 43.11 52.8527 43.2683 52.802 43.471C52.726 43.699 52.6564 43.8573 52.593 43.946C52.5424 44.0093 52.3524 44.516 52.023 45.466C51.6937 46.416 51.5227 46.9417 51.51 47.043L51.453 47.423C51.4024 47.7017 51.377 47.917 51.377 48.069C51.377 48.259 51.2757 48.354 51.073 48.354C50.845 48.354 50.5917 48.2653 50.313 48.088C50.2117 48.0247 50.1484 47.8853 50.123 47.67C50.199 47.366 50.3194 46.986 50.484 46.53L50.693 45.884C50.7437 45.7573 50.7437 45.656 50.693 45.58C50.427 45.542 50.1674 45.523 49.914 45.523C49.6354 45.523 49.23 45.5483 48.698 45.599L48.147 45.637C48.0457 45.7383 47.8874 46.188 47.672 46.986C47.6214 47.1253 47.5834 47.252 47.558 47.366C47.5707 47.5053 47.5327 47.7207 47.444 48.012C47.3554 48.2907 47.2667 48.4743 47.178 48.563ZM55.3682 48.715C55.2162 48.715 55.0959 48.6897 55.0072 48.639C54.9186 48.5883 54.7919 48.4933 54.6272 48.354C54.2092 47.9107 54.0002 47.5053 54.0002 47.138C54.0002 47.0493 54.0066 46.986 54.0192 46.948C54.0572 46.8593 54.0699 46.7707 54.0572 46.682C54.0572 46.5933 54.0572 46.5363 54.0572 46.511C54.0066 46.4603 53.9812 46.4287 53.9812 46.416C53.9812 46.3907 53.9939 46.3717 54.0192 46.359C54.0446 46.3337 54.0636 46.3083 54.0762 46.283C54.1522 46.283 54.1776 46.2133 54.1522 46.074C54.1269 45.9727 54.1776 45.751 54.3042 45.409C54.4309 45.0543 54.5892 44.7313 54.7792 44.44C54.9186 44.212 55.1212 43.927 55.3872 43.585C55.6659 43.243 55.9129 42.9833 56.1282 42.806C56.4322 42.54 56.7046 42.3437 56.9452 42.217C57.1859 42.0903 57.4519 41.9953 57.7432 41.932C57.9966 41.8687 58.1676 41.837 58.2562 41.837C58.3449 41.837 58.4209 41.8623 58.4842 41.913C58.5602 41.951 58.6552 42.027 58.7692 42.141C59.1112 42.293 59.3456 42.4893 59.4722 42.73C59.6116 42.958 59.6812 43.319 59.6812 43.813C59.6812 44.6363 59.3456 45.5293 58.6742 46.492C58.3829 46.91 58.1106 47.233 57.8572 47.461C57.6039 47.6763 57.2682 47.9107 56.8502 48.164C56.5842 48.354 56.3372 48.4933 56.1092 48.582C55.8939 48.658 55.6469 48.7023 55.3682 48.715ZM57.1922 46.701C57.4962 46.359 57.7369 46.036 57.9142 45.732C58.1042 45.428 58.2816 45.0417 58.4462 44.573C58.5096 44.3577 58.5412 44.098 58.5412 43.794C58.5412 43.414 58.4906 43.1987 58.3892 43.148C58.2626 43.0847 58.1359 43.053 58.0092 43.053C57.7306 43.053 57.4392 43.1797 57.1352 43.433C56.7679 43.7497 56.4386 44.1423 56.1472 44.611C55.8559 45.067 55.5582 45.637 55.2542 46.321C55.1276 46.587 55.0642 46.8467 55.0642 47.1C55.0642 47.29 55.1086 47.442 55.1972 47.556C55.2986 47.67 55.4316 47.727 55.5962 47.727C56.0142 47.727 56.5462 47.385 57.1922 46.701ZM62.4085 48.943C62.3705 48.943 62.2438 48.9493 62.0285 48.962C61.8258 48.962 61.6295 48.9177 61.4395 48.829C61.2495 48.7277 61.0911 48.5757 60.9645 48.373C60.8758 48.2083 60.7998 48.0183 60.7365 47.803C60.6731 47.5877 60.6415 47.404 60.6415 47.252C60.6415 47.1887 60.6541 47.119 60.6795 47.043C60.9201 45.6497 61.1165 44.7693 61.2685 44.402L61.5725 43.661C61.6358 43.4583 61.6548 43.2303 61.6295 42.977V42.901C61.6295 42.7363 61.6928 42.597 61.8195 42.483C62.0348 42.3183 62.2058 42.103 62.3325 41.837C62.4211 41.6217 62.5605 41.3303 62.7505 40.963C62.9405 40.5957 63.0798 40.355 63.1685 40.241C63.3078 40.051 63.4345 39.8673 63.5485 39.69C63.5738 39.652 63.6625 39.519 63.8145 39.291C63.9791 39.0503 64.1628 38.8477 64.3655 38.683C64.6061 38.2777 65.0811 37.79 65.7905 37.22C66.0945 36.9667 66.2845 36.802 66.3605 36.726C66.3985 36.688 66.5125 36.65 66.7025 36.612C66.8925 36.5613 67.0128 36.5297 67.0635 36.517C67.1648 36.4917 67.3358 36.4473 67.5765 36.384C67.6525 36.346 67.7918 36.3777 67.9945 36.479C68.2098 36.5677 68.3681 36.669 68.4695 36.783C68.6721 37.1377 68.7735 37.4163 68.7735 37.619C68.7735 37.7837 68.7355 37.9673 68.6595 38.17C68.5835 38.3727 68.4378 38.702 68.2225 39.158C67.7665 40.07 66.9368 40.9377 65.7335 41.761C65.2775 42.1663 64.7645 42.521 64.1945 42.825C63.7765 43.0403 63.4345 43.1923 63.1685 43.281C62.9658 43.3443 62.8201 43.49 62.7315 43.718C62.6808 43.832 62.6365 43.9713 62.5985 44.136C62.5731 44.3007 62.5351 44.4083 62.4845 44.459C62.4085 44.535 62.2818 44.9593 62.1045 45.732C61.9271 46.5047 61.8385 47.0303 61.8385 47.309C61.8385 47.4103 61.8511 47.499 61.8765 47.575C61.9018 47.651 61.9588 47.708 62.0475 47.746C62.2248 47.708 62.3641 47.651 62.4655 47.575C62.5795 47.4863 62.7188 47.347 62.8835 47.157C63.2381 46.7137 63.4915 46.2893 63.6435 45.884C63.6815 45.77 63.7195 45.6243 63.7575 45.447C63.7955 45.257 63.8398 45.1113 63.8905 45.01C63.8905 44.5667 63.8841 44.2817 63.8715 44.155C63.8588 44.0157 63.8145 43.851 63.7385 43.661C63.8018 43.623 63.8525 43.585 63.8905 43.547C63.9411 43.4963 64.0045 43.4773 64.0805 43.49C64.3718 43.5533 64.6695 43.7307 64.9735 44.022C65.0621 44.1107 65.0875 44.2183 65.0495 44.345C64.9988 44.7503 64.9735 45.0417 64.9735 45.219C64.9355 45.3077 64.8721 45.504 64.7835 45.808C64.7708 45.9727 64.7328 46.131 64.6695 46.283C64.4415 46.7517 64.2768 47.0683 64.1755 47.233C63.8968 47.7523 63.5168 48.1957 63.0355 48.563L62.4085 48.943ZM63.2825 41.932C63.3458 41.9447 63.4218 41.951 63.5105 41.951C63.6371 41.951 63.7448 41.8877 63.8335 41.761C64.7581 41.153 65.5371 40.564 66.1705 39.994C66.8165 39.4113 67.2155 38.9173 67.3675 38.512C67.4181 38.4107 67.4878 38.284 67.5765 38.132C67.6651 37.9673 67.7221 37.8153 67.7475 37.676L67.6715 37.144C67.3041 37.3087 67.0128 37.467 66.7975 37.619C66.5948 37.7583 66.3351 37.9863 66.0185 38.303C65.7018 38.6197 65.2205 39.1897 64.5745 40.013C63.9411 40.8363 63.5105 41.476 63.2825 41.932ZM66.7169 48.905C66.5649 48.8543 66.4065 48.7087 66.2419 48.468C66.0772 48.2147 65.9949 47.9867 65.9949 47.784L66.2609 46.986L66.6219 45.846C66.7359 45.6813 66.8245 45.485 66.8879 45.257C66.9639 45.0163 67.0082 44.877 67.0209 44.839C67.1475 44.5983 67.4009 44.0157 67.7809 43.091L68.1419 42.217L68.2939 41.856C68.3699 41.666 68.4205 41.514 68.4459 41.4C68.4459 41.2987 68.4712 41.2163 68.5219 41.153C68.5725 41.077 68.6232 41.039 68.6739 41.039C68.7372 40.9757 68.8575 40.944 69.0349 40.944C69.1742 40.944 69.2945 41.0327 69.3959 41.21C69.4972 41.3873 69.5479 41.5583 69.5479 41.723C69.5479 41.8623 69.4845 42.084 69.3579 42.388C69.2439 42.692 69.1172 42.996 68.9779 43.3C68.8639 43.5407 68.7625 43.7687 68.6739 43.984C68.5979 44.1867 68.5789 44.307 68.6169 44.345C68.6675 44.3197 68.7752 44.269 68.9399 44.193C69.1045 44.1043 69.2755 43.9967 69.4529 43.87C69.5669 43.8067 69.6745 43.7433 69.7759 43.68C69.8772 43.604 69.9659 43.5407 70.0419 43.49C70.4345 43.224 70.6752 43.0783 70.7639 43.053C70.8399 43.0023 70.9855 42.9137 71.2009 42.787C71.4289 42.635 71.5492 42.5527 71.5619 42.54C71.7139 42.464 71.8405 42.426 71.9419 42.426C72.0179 42.426 72.0875 42.4513 72.1509 42.502C72.2142 42.5527 72.2902 42.6287 72.3789 42.73C72.4549 42.8187 72.4929 42.9073 72.4929 42.996C72.4929 43.0847 72.4422 43.1797 72.3409 43.281C72.2395 43.3697 72.0685 43.49 71.8279 43.642C71.6632 43.756 71.4922 43.8637 71.3149 43.965C71.1375 44.0663 70.9665 44.1677 70.8019 44.269C69.8899 44.8263 69.4212 45.124 69.3959 45.162C69.4212 45.2127 69.4782 45.3267 69.5669 45.504C69.6682 45.6813 69.7632 45.8333 69.8519 45.96L70.1369 46.454C70.2889 46.6693 70.3649 46.8087 70.3649 46.872C70.4789 47.1887 70.6309 47.4357 70.8209 47.613C71.0235 47.7903 71.2389 47.879 71.4669 47.879C71.5809 47.879 71.7139 47.8473 71.8659 47.784C72.0559 47.708 72.2079 47.67 72.3219 47.67C72.4992 47.67 72.6195 47.7713 72.6829 47.974C72.7209 48.05 72.7399 48.107 72.7399 48.145C72.7399 48.1957 72.6512 48.3097 72.4739 48.487C72.1445 48.8163 71.8089 48.981 71.4669 48.981C71.3529 48.981 71.2199 48.9493 71.0679 48.886C70.8779 48.8987 70.6372 48.772 70.3459 48.506C70.0672 48.24 69.6745 47.7777 69.1679 47.119C69.1679 47.0683 69.0982 46.9037 68.9589 46.625C68.9082 46.511 68.8512 46.4097 68.7879 46.321C68.7245 46.2197 68.6802 46.15 68.6549 46.112C68.6549 46.0613 68.6232 45.998 68.5599 45.922C68.5092 45.8333 68.4712 45.7637 68.4459 45.713C68.3065 45.675 68.1925 45.6877 68.1039 45.751C68.0279 45.8143 67.9519 45.903 67.8759 46.017C67.8125 46.131 67.7619 46.2133 67.7239 46.264C67.5972 46.5933 67.4705 46.9987 67.3439 47.48C67.2172 47.9487 67.1729 48.2527 67.2109 48.392C67.2109 48.5947 67.1792 48.734 67.1159 48.81C67.0525 48.8733 66.9195 48.905 66.7169 48.905ZM75.0433 48.449C74.9167 48.4743 74.8027 48.487 74.7013 48.487C74.5367 48.487 74.3847 48.4743 74.2453 48.449C74.106 48.411 74.0363 48.3667 74.0363 48.316C74.0363 48.278 74.03 48.2527 74.0173 48.24C74.0047 48.2273 73.9793 48.221 73.9413 48.221C73.9287 48.2083 73.8907 48.1767 73.8273 48.126C73.764 48.0753 73.688 48.031 73.5993 47.993C73.4853 47.8157 73.4283 47.6257 73.4283 47.423C73.4283 47.2077 73.4853 46.872 73.5993 46.416C73.6373 46.0107 73.8273 45.504 74.1693 44.896C74.5113 44.288 74.9103 43.7117 75.3663 43.167C75.835 42.6223 76.253 42.2423 76.6203 42.027C76.8103 41.837 77.051 41.742 77.3423 41.742C77.5703 41.742 77.7857 41.799 77.9883 41.913C78.1657 42.0143 78.3493 42.1853 78.5393 42.426C78.742 42.6667 78.9003 42.9137 79.0143 43.167C79.065 43.357 79.0903 43.5407 79.0903 43.718C79.0903 43.908 79.065 44.2057 79.0143 44.611C78.951 44.839 78.894 45.1177 78.8433 45.447C78.8053 45.7763 78.7863 46.0613 78.7863 46.302C78.761 46.4793 78.7737 46.625 78.8243 46.739C78.875 46.8403 78.9447 46.891 79.0333 46.891C79.0967 46.891 79.1663 46.872 79.2423 46.834C79.369 46.7707 79.5083 46.739 79.6603 46.739C79.7997 46.739 79.9137 46.777 80.0023 46.853C80.091 46.929 80.1353 47.043 80.1353 47.195C80.1353 47.423 79.977 47.651 79.6603 47.879C79.3563 48.107 79.065 48.221 78.7863 48.221C78.5963 48.221 78.419 48.0753 78.2543 47.784C78.1023 47.48 77.9503 47.0937 77.7983 46.625L77.6843 46.188L76.8673 46.967L76.4303 47.404C76.2277 47.6067 76.1137 47.727 76.0883 47.765C75.949 48.0057 75.6007 48.2337 75.0433 48.449ZM75.1003 47.328C75.4043 47.1507 75.778 46.8403 76.2213 46.397C76.6647 45.9537 77.032 45.5293 77.3233 45.124C77.716 44.6047 77.963 44.0917 78.0643 43.585C78.0137 43.433 77.9313 43.281 77.8173 43.129C77.7033 42.977 77.602 42.8947 77.5133 42.882C77.26 42.882 76.994 43.0277 76.7153 43.319C76.4367 43.6103 76.1073 44.0157 75.7273 44.535L75.1003 45.466C75.0243 45.5673 74.8913 45.8397 74.7013 46.283C74.5113 46.7137 74.4163 46.9733 74.4163 47.062C74.4163 47.3407 74.4987 47.48 74.6633 47.48C74.79 47.48 74.9357 47.4293 75.1003 47.328Z" fill="#506036"/>
<path d="M44.1094 58C36.06 71.1539 25.5229 83.4416 12.0001 90.9543" stroke="#506036" stroke-opacity="0.88" stroke-width="1.2" stroke-linecap="round" stroke-linejoin="round"/>
</svg>
