<svg width="97" height="18" viewBox="0 0 97 18" fill="none" xmlns="http://www.w3.org/2000/svg">
<path d="M83.2 12.6V8H81.7V7.8L85 4.5H85.2V6.5H87V7.9H85.2V12.3C85.2 13 85.5 13.4 86.1 13.4C86.5 13.4 86.8 13.4 87 13.2V14.7C86.7 14.8 86.3 14.9 85.7 14.9C84.1 15 83.2 14.1 83.2 12.6Z" fill="white"/>
<path d="M25.9 13.3996C27.3 13.3996 28 12.7996 28 11.5996V11.4996C28 10.2996 27.4 9.69961 25.8 9.69961H23.9V13.2996H25.9V13.3996ZM25.6 8.29961C27.0001 8.29961 27.5 7.79961 27.5 6.59961C27.5 5.49961 26.9 5.09961 25.5 5.09961H23.8V8.39961H25.6V8.29961ZM21.8 3.59961H25.8C28.1 3.59961 29.5 4.49961 29.5 6.49961V6.59961C29.5 7.69961 29.0001 8.59961 27.7001 8.99961C29.2001 9.29961 30 10.1996 30 11.6996V11.7996C30 13.8996 28.6 14.9996 26.1 14.9996H21.8V3.59961Z" fill="white"/>
<path d="M37.8 10.8004V10.7004C37.8 9.00039 36.9 7.90039 35.5 7.90039C34.1 7.90039 33.2001 8.90039 33.2001 10.6004V10.7004C33.2001 12.4004 34 13.5004 35.5 13.5004C37 13.5004 37.8 12.5004 37.8 10.8004ZM31.3 10.8004V10.7004C31.3 8.10039 33.1 6.40039 35.5 6.40039C37.9 6.40039 39.7001 8.10039 39.7001 10.6004V10.7004C39.7001 13.3004 37.9 15.0004 35.5 15.0004C33.1 15.0004 31.3 13.3004 31.3 10.8004Z" fill="white"/>
<path d="M47.5 10.8004V10.7004C47.5 9.00039 46.6 7.90039 45.2 7.90039C43.8 7.90039 42.9 8.90039 42.9 10.6004V10.7004C42.9 12.4004 43.7 13.5004 45.2 13.5004C46.6 13.5004 47.5 12.5004 47.5 10.8004ZM41 10.8004V10.7004C41 8.10039 42.8 6.40039 45.2 6.40039C47.6 6.40039 49.4 8.10039 49.4 10.6004V10.7004C49.4 13.3004 47.6 15.0004 45.2 15.0004C42.8 15.0004 41 13.3004 41 10.8004Z" fill="white"/>
<path d="M51.2 2.7998H53.0999V10.1998L56 6.5998H58.0999L54.9 10.3998L58.4 14.8998H56.2L53.0999 10.7998V14.8998H51.2V2.7998Z" fill="white"/>
<path d="M59.7 6.6H61.6V7.9C62 7.1 62.9 6.5 64.1 6.5C65.2 6.5 66 7 66.4 8C67 7 68.2 6.5 69.2 6.5C70.7 6.5 71.9 7.4 71.9 9.7V14.9H70V9.8C70 8.6 69.5 8.1 68.5 8.1C67.5 8.1 66.7 8.7 66.7 10V15H64.8V9.8C64.8 8.6 64.3 8.1 63.3 8.1C62.4 8.1 61.5 8.7 61.5 10V15H59.6V6.6H59.7Z" fill="white"/>
<path d="M78.8 12.0004V11.2004H77.8C76.4 11.2004 75.5 11.5004 75.5 12.5004C75.5 13.2004 75.9 13.7004 76.8 13.7004C78 13.7004 78.8 13.0004 78.8 12.0004ZM73.6 12.6004C73.6 10.7004 75.5 10.0004 77.8 10.0004H78.8V9.50039C78.8 8.40039 78.4 7.80039 77.3 7.80039C76.3 7.80039 75.8 8.30039 75.7 9.10039H73.9C74.1 7.20039 75.6 6.40039 77.4 6.40039C79.2 6.40039 80.7 7.20039 80.7 9.40039V14.8004H78.8V13.8004C78.3 14.5004 77.5 15.0004 76.3 15.0004C74.8 15.0004 73.6 14.3004 73.6 12.6004Z" fill="white"/>
<path d="M94.3 9.90039C94.2 8.50039 93.5 7.80039 92.3 7.80039C91.1 7.80039 90.4 8.60039 90.2 9.90039H94.3ZM88.2 10.8004V10.7004C88.2 8.10039 90 6.40039 92.3 6.40039C94.4 6.40039 96.2 7.60039 96.2 10.6004V11.2004H90.2C90.3 12.8004 91.1 13.7004 92.5 13.7004C93.7 13.7004 94.3 13.2004 94.4 12.4004H96.2C95.9 14.1004 94.5 15.1004 92.4 15.1004C90 15.0004 88.2 13.4004 88.2 10.8004Z" fill="white"/>
<path d="M9.8 11.8C9.1 13.1 7.9 13.6 6.7 13.6C4.3 13.6 2.5 11.9 2.5 9.2V9.1C2.5 9 2.5 8.9 2.5 8.7H12.9V0.5L6.7 5.1L0.5 0.5V17.5H12.9V13.6C11.7 13.6 10.6 13.1 9.8 11.8Z" fill="white"/>
<path d="M6.70005 12.1996C7.90005 12.1996 8.70005 11.5996 8.80005 10.0996H4.30005C4.50005 11.3996 5.50005 12.1996 6.70005 12.1996Z" fill="white"/>
<path d="M10.9 10.0996H15.4C15.2 11.3996 14.2 12.1996 13 12.1996C11.7 12.1996 11 11.4996 10.9 10.0996Z" fill="white"/>
</svg>
