<svg width="12" height="12" viewBox="0 0 12 12" fill="none" xmlns="http://www.w3.org/2000/svg">
<path d="M1.1123 6.97363H5.09082V10.9521C5.09082 11.4512 5.50098 11.8613 6 11.8613C6.49902 11.8613 6.90918 11.4512 6.90918 10.9521V6.97363H10.8877C11.3867 6.97363 11.7969 6.57031 11.7969 6.06445C11.7969 5.56543 11.3867 5.15527 10.8877 5.15527H6.90918V1.17676C6.90918 0.677734 6.49902 0.267578 6 0.267578C5.50098 0.267578 5.09082 0.677734 5.09082 1.17676V5.15527H1.1123C0.613281 5.15527 0.203125 5.56543 0.203125 6.06445C0.203125 6.57031 0.613281 6.97363 1.1123 6.97363Z" fill="#1F2532"/>
</svg>
