<svg width="20" height="18" viewBox="0 0 20 18" fill="none" xmlns="http://www.w3.org/2000/svg"><path d="M9.491 16.878l-.054-.04-.007-.006c-1.358-1.066-3.45-2.767-5.2-4.807-1.767-2.06-3.08-4.347-3.08-6.589A4.486 4.486 0 015.636.95c1.156 0 2.085.5 2.748 1.034a5.784 5.784 0 01.942.963l.042.058.009.012h0s0 0 0 0v.001h0l.623.934.623-.934s0 0 0 0h0s0 0 0 0h0l.009-.013a4.572 4.572 0 01.23-.292c.17-.197.424-.463.754-.729.663-.533 1.593-1.034 2.748-1.034a4.486 4.486 0 014.486 4.486c0 2.247-1.32 4.54-3.094 6.605-1.756 2.044-3.854 3.745-5.208 4.808l-.022.017v.001l-.016.011a.85.85 0 01-.51.172.85.85 0 01-.509-.172z" fill="transparent" stroke="#4B505B" stroke-width="1.5"/></svg>