<svg width="98" height="71" viewBox="0 0 98 71" fill="none" xmlns="http://www.w3.org/2000/svg">
<path d="M10.2158 21.033C12.0102 18.1693 14.8609 15.6365 18.7702 13.5014C23.6033 10.8473 29.3053 10.238 35.7364 11.6491C47.3597 14.2196 53.0979 20.2739 54.3363 31.3159C54.8284 35.6956 53.7838 39.6974 52.5938 43.3652C52.5609 43.4531 52.5218 43.5155 52.4573 43.583C52.4535 43.6244 52.4243 43.6711 52.3951 43.7177L51.7806 44.6982C51.3418 45.3985 50.9188 46.1091 50.4484 46.7891C47.7999 50.6972 44.075 53.1039 39.3698 53.9619C27.7384 56.0388 16.5866 50.4518 10.9429 39.7184C7.16796 32.5475 6.95857 26.231 10.2158 21.033Z" fill="#FFE6D1"/>
<path d="M46.4637 30.7305H24.9998" stroke="black" stroke-width="2" stroke-linecap="round" stroke-linejoin="round"/>
<path fill-rule="evenodd" clip-rule="evenodd" d="M87.0587 61.0245C87.1254 61.0245 88.2019 61.0224 88.2679 61.0182C89.3616 60.9482 90.342 60.3048 90.8352 59.3183L93.8491 53.3111C95.3746 50.2689 96.1698 46.912 96.1698 43.5088C96.1698 40.9233 95.0187 38.4704 93.026 36.8136L80.0359 26.0209C78.464 24.7158 76.4836 24 74.4382 24H43.5659C40.7222 24 38.1198 25.6013 36.848 28.1406L25.7919 50.1887C25.2721 51.2254 24.9998 52.3731 24.9998 53.5363C24.9998 57.6707 28.3633 61.0245 32.5097 61.0245H33.9641" fill="#FFFAF5"/>
<path d="M87.0587 61.0245C87.1254 61.0245 88.2019 61.0224 88.2679 61.0182C89.3616 60.9482 90.342 60.3048 90.8352 59.3183L93.8491 53.3111C95.3746 50.2689 96.1698 46.912 96.1698 43.5088C96.1698 40.9233 95.0187 38.4704 93.026 36.8136L80.0359 26.0209C78.464 24.7158 76.4836 24 74.4382 24H43.5659C40.7222 24 38.1198 25.6013 36.848 28.1406L25.7919 50.1887C25.2721 51.2254 24.9998 52.3731 24.9998 53.5363C24.9998 57.6707 28.3633 61.0245 32.5097 61.0245H33.9641" stroke="black" stroke-width="2" stroke-linecap="round" stroke-linejoin="round"/>
<path fill-rule="evenodd" clip-rule="evenodd" d="M52.113 61.025C52.113 65.9825 48.0672 70.0006 43.0756 70.0006C38.0839 70.0006 34.0381 65.9825 34.0381 61.025C34.0381 56.0674 38.0839 52.0493 43.0756 52.0493C48.0672 52.0493 52.113 56.0674 52.113 61.025Z" fill="#FFFAF5" stroke="black" stroke-width="2" stroke-linecap="round" stroke-linejoin="round"/>
<path fill-rule="evenodd" clip-rule="evenodd" d="M86.0024 61.025C86.0024 65.9825 81.9567 70.0006 76.965 70.0006C71.9733 70.0006 67.9275 65.9825 67.9275 61.025C67.9275 56.0674 71.9733 52.0493 76.965 52.0493C81.9567 52.0493 86.0024 56.0674 86.0024 61.025Z" fill="#FFFAF5" stroke="black" stroke-width="2" stroke-linecap="round" stroke-linejoin="round"/>
<path d="M52.1118 61.0249H67.9274" stroke="black" stroke-width="2" stroke-linecap="round" stroke-linejoin="round"/>
<path fill-rule="evenodd" clip-rule="evenodd" d="M74.3296 30.7305L71.3171 43.072H89.3921L74.3296 30.7305Z" fill="#FFFAF5" stroke="black" stroke-width="2" stroke-linecap="round" stroke-linejoin="round"/>
<path d="M40.8153 39.707H24.9998" stroke="black" stroke-width="2" stroke-linecap="round" stroke-linejoin="round"/>
<path d="M34.0372 48.6841H24.9998" stroke="black" stroke-width="2" stroke-linecap="round" stroke-linejoin="round"/>
</svg>
