<svg width="63" height="77" viewBox="0 0 63 77" fill="none" xmlns="http://www.w3.org/2000/svg">
<path d="M26.3487 55.7798C23.0342 54.7391 19.7528 52.5851 16.5696 49.2986C12.62 45.2392 10.4418 39.8234 10.0498 33.1939C9.36107 21.2072 13.7297 14.1008 24.2517 10.1488C28.425 8.58043 32.6517 8.60629 36.5902 8.85699C36.6858 8.8673 36.758 8.88991 36.8423 8.93619C36.884 8.92955 36.9381 8.94655 36.9921 8.96341L38.1269 9.31979C38.9375 9.57428 39.7538 9.81079 40.5531 10.1012C45.1318 11.7162 48.5312 14.7551 50.6781 19.1358C55.9419 29.9761 53.532 42.2519 44.5331 50.4283C38.5224 55.8952 32.3651 57.6687 26.3487 55.7798Z" fill="#FFE6D1"/>
<path fill-rule="evenodd" clip-rule="evenodd" d="M32.3341 57.083L39.7907 75.1917L31.2689 70.9309L24.8776 75.1917L20.6167 62.4091" fill="#FFFAF5"/>
<path d="M32.3341 57.083L39.7907 75.1917L31.2689 70.9309L24.8776 75.1917L20.6167 62.4091" stroke="black" stroke-width="2" stroke-linecap="round" stroke-linejoin="round"/>
<path fill-rule="evenodd" clip-rule="evenodd" d="M11.0293 57.083L3.57275 75.1917L12.0945 70.9309L18.4858 75.1917L21.6815 66.67" fill="#FFFAF5"/>
<path d="M11.0293 57.083L3.57275 75.1917L12.0945 70.9309L18.4858 75.1917L21.6815 66.67" stroke="black" stroke-width="2" stroke-linecap="round" stroke-linejoin="round"/>
<path fill-rule="evenodd" clip-rule="evenodd" d="M39.7902 44.3011C39.7902 45.8265 37.4958 47.0302 37.1187 48.4384C36.7309 49.8957 38.1029 52.0836 37.3658 53.3576C36.618 54.6508 34.0295 54.5507 32.9792 55.5989C31.9289 56.6492 32.0312 59.2376 30.738 59.9854C29.4619 60.7226 27.276 59.3484 25.8188 59.7383C24.4106 60.1154 23.2069 62.4099 21.6815 62.4099C20.1561 62.4099 18.9503 60.1154 17.5442 59.7383C16.087 59.3484 13.899 60.7226 12.625 59.9854C11.3318 59.2376 11.4319 56.6492 10.3838 55.5989C9.33346 54.5507 6.74498 54.6508 5.9972 53.3576C5.26006 52.0815 6.63207 49.8935 6.24433 48.4384C5.86724 47.0302 3.57275 45.8265 3.57275 44.3011C3.57275 42.7757 5.86724 41.572 6.24433 40.1638C6.63207 38.7066 5.26006 36.5186 5.9972 35.2446C6.74498 33.9514 9.33346 34.0516 10.3838 33.0034C11.4341 31.9531 11.3318 29.3646 12.625 28.6168C13.9011 27.8797 16.087 29.2538 17.5442 28.864C18.9524 28.4869 20.1561 26.1924 21.6815 26.1924C23.2069 26.1924 24.4127 28.4869 25.8188 28.864C27.276 29.2538 29.464 27.8797 30.738 28.6168C32.0312 29.3646 31.931 31.9531 32.9792 33.0034C34.0295 34.0516 36.618 33.9514 37.3658 35.2446C38.1029 36.5208 36.7309 38.7087 37.1187 40.1638C37.4958 41.572 39.7902 42.7757 39.7902 44.3011Z" fill="#FFFAF5" stroke="black" stroke-width="2" stroke-linecap="round" stroke-linejoin="round"/>
<path fill-rule="evenodd" clip-rule="evenodd" d="M33.3987 44.3004C33.3987 50.7727 28.1536 56.0178 21.6813 56.0178C15.209 56.0178 9.96387 50.7727 9.96387 44.3004C9.96387 37.8282 15.209 32.583 21.6813 32.583C28.1536 32.583 33.3987 37.8282 33.3987 44.3004Z" fill="#FFFAF5" stroke="black" stroke-width="2" stroke-linecap="round" stroke-linejoin="round"/>
</svg>
