<svg width="49" height="69" viewBox="0 0 49 69" fill="none" xmlns="http://www.w3.org/2000/svg">
<path d="M0.434318 30.1763C-0.321712 26.7853 -0.0969622 22.8662 1.15763 18.4659C2.69839 13.0153 6.29947 8.42074 11.8448 4.76629C21.8813 -1.82406 30.2199 -1.59389 38.9034 5.54294C42.3483 8.37315 44.4393 12.0468 46.1914 15.5832C46.2303 15.6712 46.2468 15.745 46.2489 15.8412C46.2755 15.874 46.2878 15.9293 46.3002 15.9845L46.559 17.1456C46.7439 17.9749 46.9472 18.8001 47.0954 19.6376C47.9861 24.4107 47.054 28.8745 44.3337 32.9244C37.5776 42.9039 25.7415 46.955 14.1611 43.2497C6.42117 40.7775 1.80667 36.3316 0.434318 30.1763Z" fill="#FFE6D1"/>
<path fill-rule="evenodd" clip-rule="evenodd" d="M29.0433 46.086C35.7383 46.086 39.4781 38.5208 39.4781 31.4773C39.4781 24.4338 36.3477 19.999 36.3477 19.999L31.1303 28.3468L25.9129 19.999L20.6955 28.3468L15.4781 19.999C15.4781 19.999 12.3477 24.4338 12.3477 31.4773C12.3477 38.5208 16.0875 46.086 22.7824 46.086V67.999H33.2172C39.5428 67.999 47.8259 63.2157 47.8259 54.4338V42.9555L29.0433 60.6947V46.086Z" fill="#FFFAF5" stroke="#1F0000" stroke-width="2" stroke-linecap="round" stroke-linejoin="round"/>
<path fill-rule="evenodd" clip-rule="evenodd" d="M4 42.9551V54.4333C4 63.2153 12.2831 67.9986 18.6087 67.9986V57.5638L4 42.9551Z" fill="#FFFAF5" stroke="#1F0000" stroke-width="2" stroke-linecap="round" stroke-linejoin="round"/>
</svg>
