<svg width="22" height="21" viewBox="0 0 22 21" fill="none" xmlns="http://www.w3.org/2000/svg">
<path d="M5.99951 0C2.68576 0 0 2.68576 0 5.99951C0 11.7675 6.69073 17.279 9.81657 19.7334C9.81955 19.7358 9.82253 19.7382 9.82552 19.7406C9.84694 19.7574 9.87606 19.7813 9.89714 19.7979L9.89893 19.7961C10.2161 20.0357 10.6025 20.1658 11 20.1667C11.3981 20.1662 11.7852 20.0361 12.1029 19.7961V19.7979C12.109 19.793 12.1182 19.7866 12.1243 19.7817C12.1291 19.778 12.1357 19.7729 12.1405 19.7692C12.1465 19.7639 12.1524 19.7585 12.1584 19.7531C15.2745 17.3075 22 11.7813 22 5.99951C22 2.68576 19.3142 0 16.0005 0C12.8334 0 11 2.75 11 2.75C11 2.75 9.1666 0 5.99951 0Z" fill="white"/>
</svg>
