<svg width="62" height="61" viewBox="0 0 62 61" fill="none" xmlns="http://www.w3.org/2000/svg"><g clip-path="url(#clip0)"><path d="M42.035 8.383l2.144 6.266 6.339 1.92-1.276 6.5 4.528 4.832-4.354 4.99 1.506 6.45-6.266 2.144-1.92 6.338-6.5-1.276-4.832 4.529-4.99-4.354-6.45 1.506-2.143-6.266-6.34-1.92 1.277-6.5L8.23 28.71l4.353-4.99-1.505-6.45 6.265-2.144 1.921-6.338 6.5 1.276 4.831-4.529 4.99 4.354 6.45-1.506z" fill="url(#paint0_linear)"/><path d="M20.657 29.849l3.607-3.553-1.453-4.69 1.712.426.636 2.31.262 1.13.024.005c.24-.302.494-.594.762-.873l1.657-1.739 1.712.427-3.496 3.457 1.528 4.833-1.677-.418-.738-2.546-.268-1.106-.023-.006c-.239.295-.487.58-.745.854l-1.835 1.904-1.665-.415zm7.781 1.94l1.48-5.938 1.41.351-.793 3.179a6.1 6.1 0 01-.212.701l.023.006c.049-.062.255-.262.62-.6l2.993-2.63 1.432.357-1.48 5.939-1.41-.352.79-3.167c.043-.17.113-.404.212-.701l-.023-.006c-.037.048-.243.248-.62.6l-2.99 2.618-1.432-.357zm8.447 2.106l1.167-4.68-1.956-.488.313-1.258 5.391 1.344-.313 1.258-1.968-.49-1.167 4.68-1.467-.366z" fill="#fff"/></g><defs><linearGradient id="paint0_linear" x1="20.148" y1="6.469" x2="37.018" y2="52.48" gradientUnits="userSpaceOnUse"><stop stop-color="#FFA96B"/><stop offset="1" stop-color="#EB7023"/></linearGradient><clipPath id="clip0"><path fill="#fff" transform="rotate(14 6.395 52.085)" d="M0 0h50v50H0z"/></clipPath></defs></svg>