<svg width="136" height="33" viewBox="0 0 136 33" fill="none" xmlns="http://www.w3.org/2000/svg">
<path fill-rule="evenodd" clip-rule="evenodd" d="M13.1036 20.5853C13.8827 18.9497 14.273 17.1301 14.273 15.1264C14.273 13.3165 13.9914 11.8434 13.4287 10.7095C12.5389 8.92287 11.0034 8.0293 8.82388 8.0293C6.89056 8.0293 5.48506 8.78984 4.60586 10.3104C3.72768 11.832 3.28833 13.6661 3.28833 15.8142C3.28833 17.8793 3.72768 19.5984 4.60586 20.9751C5.48506 22.3508 6.87843 23.0386 8.78951 23.0386C10.8861 23.0386 12.3245 22.2208 13.1036 20.5853ZM14.3912 5.81988H17.5905V28.0258C17.5905 29.4396 17.3655 30.4982 16.9151 31.1989C16.1683 32.3833 14.7527 32.9753 12.6672 32.9753C12.513 32.9753 12.3497 32.9696 12.1783 32.9572C12.0064 32.9454 11.737 32.9211 11.3694 32.885V30.0568C12.8027 30.0084 13.6647 29.8784 13.9559 29.666C14.2461 29.4546 14.3912 28.793 14.3912 27.6813V23.8987C13.3113 24.8562 11.5853 25.8483 8.48913 25.8483C5.88845 25.8483 3.82367 24.946 2.2938 23.1413C0.764431 21.3355 0 18.9116 0 15.8689C0 12.6086 0.805888 10.0135 2.41716 8.08089C4.02995 6.14936 6.19432 5.18359 8.9128 5.18359C11.334 5.18359 13.1389 6.05088 14.3912 7.05789V5.81988Z" fill="#1F2533"/>
<path fill-rule="evenodd" clip-rule="evenodd" d="M107.179 13.7418C107.049 12.3279 106.749 11.1977 106.279 10.352C105.41 8.78093 103.959 7.99512 101.926 7.99512C100.469 7.99512 99.2473 8.53601 98.2599 9.61779C97.2736 10.6996 96.7503 12.0742 96.6921 13.7418H107.179ZM106.032 6.11925C107.292 6.76584 108.252 7.6027 108.912 8.62983C109.548 9.60848 109.972 10.7506 110.183 12.0556C110.372 12.9503 110.467 14.376 110.467 16.3338H96.6208C96.6789 18.3102 97.1324 19.8947 97.9787 21.0878C98.8251 22.282 100.136 22.8786 101.912 22.8786C103.568 22.8786 104.892 22.3145 105.879 21.1858C106.432 20.5299 106.823 19.7704 107.054 18.9088H110.201C110.117 19.6214 109.842 20.416 109.374 21.2925C108.906 22.1686 108.384 22.8843 107.808 23.4406C106.843 24.4074 105.649 25.0597 104.226 25.398C103.462 25.5913 102.598 25.6882 101.633 25.6882C99.2781 25.6882 97.2826 24.8091 95.6455 23.0508C94.0079 21.2925 93.1904 18.8299 93.1904 15.6635C93.1904 12.5455 94.015 10.0138 95.6632 8.0678C97.3119 6.12234 99.4667 5.15039 102.129 5.15039C103.471 5.15039 104.772 5.47369 106.032 6.11925Z" fill="#1F2533"/>
<path fill-rule="evenodd" clip-rule="evenodd" d="M40.487 13.7427C40.3576 12.3289 40.0573 11.1986 39.5876 10.353C38.7185 8.78187 37.267 7.99606 35.2346 7.99606C33.7775 7.99606 32.5555 8.53695 31.5682 9.61873C30.5818 10.7005 30.0585 12.0752 30.0004 13.7427H40.487ZM39.3404 6.12028C40.6008 6.76688 41.5604 7.60373 42.2202 8.63086C42.8562 9.60952 43.2804 10.7516 43.4917 12.0567C43.6803 12.9513 43.7753 14.377 43.7753 16.3348H29.9291C29.9873 18.3091 30.4408 19.8947 31.2871 21.0878C32.1334 22.2815 33.4444 22.8786 35.22 22.8786C36.8767 22.8786 38.2003 22.3135 39.1877 21.1848C39.7403 20.5289 40.1316 19.7704 40.3627 18.9088H43.5089C43.4255 19.6214 43.1504 20.416 42.6823 21.2925C42.2141 22.1686 41.6918 22.8843 41.116 23.4406C40.1514 24.4074 38.9577 25.0597 37.5345 25.398C36.7701 25.5913 35.906 25.6882 34.9414 25.6882C32.5864 25.6882 30.5909 24.8091 28.9539 23.0508C27.3163 21.2925 26.4988 18.8299 26.4988 15.6645C26.4988 12.5465 27.3234 10.0148 28.9716 8.06883C30.6202 6.12337 32.775 5.15039 35.4374 5.15039C36.7792 5.15039 38.0805 5.47369 39.3404 6.12028Z" fill="#1F2533"/>
<path fill-rule="evenodd" clip-rule="evenodd" d="M58.9047 8.28025C57.4714 8.32872 56.6094 8.45866 56.3187 8.67007C56.0285 8.88147 55.8829 9.54302 55.8829 10.6547V25.2108H52.6836V10.3108C52.6836 8.89643 52.9091 7.83939 53.359 7.13814C54.1058 5.95375 55.5219 5.36182 57.6074 5.36182C57.7611 5.36182 57.9249 5.368 58.0958 5.37986C58.2677 5.39172 58.5372 5.41596 58.9047 5.45257V8.28025Z" fill="#1F2533"/>
<path fill-rule="evenodd" clip-rule="evenodd" d="M85.1502 25.2248L81.4888 9.92572L77.7739 25.2248H74.1838L70.4516 10.0165L66.5587 25.2248H63.3589L68.8874 5.81104H72.2105L76.0853 20.8379L79.8356 5.81104H83.1593L88.6519 25.2248H85.1502Z" fill="#1F2533"/>
<path fill-rule="evenodd" clip-rule="evenodd" d="M135.817 25.2248H132.066L122.735 10.3429L122.664 10.2397V25.2248H119.375V5.81104H123.126L132.475 20.693L132.546 20.8018V5.81104H135.817V25.2248Z" fill="#1F2533"/>
<path fill-rule="evenodd" clip-rule="evenodd" d="M29.4492 2.58795H40.8247V-0.000488281H29.4492V2.58795Z" fill="#1F2533"/>
</svg>
