<svg width="28" height="28" viewBox="0 0 28 28" fill="none" xmlns="http://www.w3.org/2000/svg">
<path d="M7 2.33398L3.5 7.00065V23.334C3.5 23.9528 3.74583 24.5463 4.18342 24.9839C4.621 25.4215 5.21449 25.6673 5.83333 25.6673H22.1667C22.7855 25.6673 23.379 25.4215 23.8166 24.9839C24.2542 24.5463 24.5 23.9528 24.5 23.334V7.00065L21 2.33398H7Z" stroke="#25272E" stroke-width="2" stroke-linecap="round" stroke-linejoin="round"/>
<path d="M3.5 7H24.5" stroke="#25272E" stroke-width="2" stroke-linecap="round" stroke-linejoin="round"/>
<path d="M18.6666 11.666C18.6666 12.9037 18.175 14.0907 17.2998 14.9658C16.4246 15.841 15.2377 16.3327 14 16.3327C12.7623 16.3327 11.5753 15.841 10.7001 14.9658C9.82498 14.0907 9.33331 12.9037 9.33331 11.666" stroke="#25272E" stroke-width="2" stroke-linecap="round" stroke-linejoin="round"/>
</svg>
