<svg width="22" height="21" viewBox="0 0 22 21" fill="none" xmlns="http://www.w3.org/2000/svg"><path d="M10.367 19.05h0l-.008-.007c-1.556-1.222-3.953-3.17-5.957-5.505C2.378 11.178.878 8.561.878 6A5.121 5.121 0 016 .878c1.318 0 2.38.571 3.137 1.18a6.608 6.608 0 011.075 1.1l.05.067.008.013s0 0 0 0l.001.001s0 0 0 0L11 4.334l.729-1.093V3.24s0 0 0 0l.01-.014.049-.067a6.578 6.578 0 011.075-1.099C13.621 1.45 14.682.879 16 .879A5.121 5.121 0 0121.122 6c0 2.568-1.508 5.19-3.54 7.555-2.012 2.341-4.414 4.29-5.966 5.508l-.025.02h0l-.017.013a.956.956 0 01-.574.193.956.956 0 01-.572-.193l-.061-.047z" stroke="#fff" stroke-width="1.756"/></svg>